<?xml version="1.0" standalone="no"?>
<!DOCTYPE svg PUBLIC "-//W3C//DTD SVG 1.1//EN" "http://www.w3.org/Graphics/SVG/1.1/DTD/svg11.dtd" >
<svg xmlns:xlink="http://www.w3.org/1999/xlink" xmlns="http://www.w3.org/2000/svg" version="1.1">
    <metadata>
        Created by FontForge 20170731 at Sun Nov 29 18:58:03 2015
        By Aleksey,,,
        Copyright (c) 2012 by Svetoslav Simov. All rights reserved.
    </metadata>
    <defs>
        <font id="Nexa-LightItalic" horiz-adv-x="600">
            <font-face
                    font-family="Nexa Light Italic"
                    font-weight="300"
                    font-style="italic"
                    font-stretch="normal"
                    units-per-em="1000"
                    panose-1="2 0 0 0 0 0 0 0 0 0"
                    ascent="750"
                    descent="-250"
                    x-height="494"
                    cap-height="700"
                    bbox="-187 -297 1112 935"
                    underline-thickness="50"
                    underline-position="-175"
                    unicode-range="U+0020-FB02"
            />
            <missing-glyph horiz-adv-x="645"
                           d="M37 0l123 700h538l-123 -700h-538zM206 447h35q10 58 55.5 82.5t102.5 24.5q134 0 134 -90q0 -54 -25 -78t-70 -37q-67 -18 -94 -50t-40 -104h35q12 65 29 85t73 37q27 8 43.5 15.5t38.5 24t33 45t11 67.5q0 63 -46.5 90.5t-115.5 27.5q-73 0 -130 -34t-69 -106zM284 118
q0 -16 14 -21t27.5 2.5t13.5 23.5q0 15 -12 21.5t-25.5 -0.5t-17.5 -26z"/>
            <glyph glyph-name=".notdef" horiz-adv-x="645"
                   d="M37 0l123 700h538l-123 -700h-538zM206 447h35q10 58 55.5 82.5t102.5 24.5q134 0 134 -90q0 -54 -25 -78t-70 -37q-67 -18 -94 -50t-40 -104h35q12 65 29 85t73 37q27 8 43.5 15.5t38.5 24t33 45t11 67.5q0 63 -46.5 90.5t-115.5 27.5q-73 0 -130 -34t-69 -106zM284 118
q0 -16 14 -21t27.5 2.5t13.5 23.5q0 15 -12 21.5t-25.5 -0.5t-17.5 -26z"/>
            <glyph glyph-name=".null" horiz-adv-x="0"
            />
            <glyph glyph-name="nonmarkingreturn" horiz-adv-x="333"
            />
            <glyph glyph-name="space" unicode=" " horiz-adv-x="267"
            />
            <glyph glyph-name="exclam" unicode="!" horiz-adv-x="238"
                   d="M164 700h51l-98 -559h-51q17 98 49 279.5t49 279.5zM34 28q0 21 15 33.5t33 12.5q14 0 23.5 -8.5t9.5 -23.5q0 -21 -14 -33.5t-33 -12.5q-14 0 -24 8.5t-10 23.5z"/>
            <glyph glyph-name="quotedbl" unicode="&#x22;" horiz-adv-x="336"
                   d="M147 704h45l-45 -256h-45zM287 704h44l-45 -256h-44z"/>
            <glyph glyph-name="numbersign" unicode="#" horiz-adv-x="634"
                   d="M323 700h46l-70 -168h201l71 168h46l-71 -168h91l-7 -38h-100l-122 -283h95l-7 -40h-104l-72 -171h-46l72 171h-201l-72 -171h-46l72 171h-81l7 40h89l123 283h-85l7 38h94zM484 494h-201l-123 -283h202z"/>
            <glyph glyph-name="dollar" unicode="$" horiz-adv-x="641"
                   d="M392 805h45l-17 -100q72 -4 129 -33.5t77 -84.5l-41 -22q-17 49 -73.5 71.5t-122.5 23.5q-37 0 -75.5 -8t-77.5 -24.5t-64 -49.5t-25 -76q0 -20 6 -35.5t22 -27.5t28.5 -19.5t41.5 -15t44.5 -11t52.5 -10.5q66 -13 99 -22.5t76.5 -31.5t58.5 -59t5 -91q-11 -62 -60 -104
t-106 -58.5t-121 -19.5l-17 -97h-44l17 97q-84 3 -150.5 37.5t-88.5 100.5l46 23q20 -59 84 -86.5t139 -27.5q35 0 73.5 7.5t77 23t66.5 44.5t35 67q6 30 -4.5 54t-26.5 38t-51 26.5t-57.5 17.5t-67.5 14q-43 9 -69 15.5t-60.5 19.5t-53 28.5t-32.5 41t-14 58.5q0 52 26 92
t68.5 63.5t89 36t95.5 14.5z"/>
            <glyph glyph-name="percent" unicode="%" horiz-adv-x="751"
                   d="M696 702h-57l-571 -702h56zM262 705q63 0 97 -35t34 -87q0 -68 -48.5 -120.5t-133.5 -52.5q-65 0 -96 35t-32 89q0 71 51 121t128 50zM257 664q-58 0 -94.5 -37.5t-36.5 -84.5q0 -39 21.5 -64.5t69.5 -25.5q58 0 93.5 37.5t35.5 84.5q0 39 -21 64.5t-68 25.5zM558 290
q63 0 97 -35t34 -87q0 -68 -48.5 -120.5t-133.5 -52.5q-65 0 -96 35t-32 89q0 71 51 121t128 50zM553 249q-58 0 -94.5 -37.5t-36.5 -84.5q0 -39 21.5 -64.5t69.5 -25.5q58 0 93.5 37.5t35.5 84.5q0 39 -21 64.5t-68 25.5z"/>
            <glyph glyph-name="ampersand" unicode="&#x26;" horiz-adv-x="683"
                   d="M592 542h-47q9 66 -35 92.5t-123 26.5q-106 0 -166.5 -46t-60.5 -114q0 -63 54.5 -92.5t124.5 -29.5h297l-8 -43h-64l-27 -153q-5 -39 -7 -72t15 -53.5t54 -17.5l-7 -40q-95 -12 -103 86q-80 -95 -221 -95q-229 0 -229 161q0 76 55 130.5t126 76.5q-50 14 -80 51t-30 86
q0 90 77.5 149t207.5 59q94 0 151.5 -38t45.5 -124zM493 183l27 153h-192q-107 0 -172 -53.5t-65 -123.5q0 -124 183 -124q31 0 63 7t65.5 22.5t58.5 46.5t32 72z"/>
            <glyph glyph-name="quotesingle" unicode="'" horiz-adv-x="196"
                   d="M147 704h44l-45 -256h-44z"/>
            <glyph glyph-name="parenleft" unicode="(" horiz-adv-x="319"
                   d="M347 735l19 -38q-104 -64 -173.5 -173.5t-91.5 -224t8.5 -227t114.5 -182.5l-33 -39q-63 46 -101 118t-47.5 153t6.5 171t54 171t101 153t143 118z"/>
            <glyph glyph-name="parenright" unicode=")" horiz-adv-x="318"
                   d="M96 699l31 37q76 -55 115 -145.5t36 -193.5t-36.5 -206t-104.5 -193.5t-166 -145.5l-19 39q109 70 179 182.5t89 227.5t-12 224.5t-112 173.5z"/>
            <glyph glyph-name="asterisk" unicode="*" horiz-adv-x="344"
                   d="M253 493l-38 73l-66 -73l-29 23l70 71l-75 23l17 36l75 -26l12 81h41l-16 -81l89 25l5 -36l-90 -22l43 -70z"/>
            <glyph glyph-name="plus" unicode="+" horiz-adv-x="496"
                   d="M62 366h175l30 172h47l-30 -172h175l-9 -48h-175l-31 -177h-47l31 177h-175z"/>
            <glyph glyph-name="comma" unicode="," horiz-adv-x="223"
                   d="M27 24q0 21 15 32.5t34 11.5q14 0 23.5 -8t9.5 -24q0 -24 -65 -125h-43l46 83q-20 7 -20 30z"/>
            <glyph glyph-name="hyphen" unicode="-" horiz-adv-x="495"
                   d="M66 261l9 50h350l-9 -50h-350z"/>
            <glyph glyph-name="period" unicode="." horiz-adv-x="221"
                   d="M27 23q0 21 14.5 33.5t32.5 12.5q14 0 23.5 -8.5t9.5 -23.5q0 -21 -14 -33.5t-33 -12.5q-14 0 -23.5 8.5t-9.5 23.5z"/>
            <glyph glyph-name="slash" unicode="/" horiz-adv-x="492"
                   d="M20 -82h-53l521 841h54z"/>
            <glyph glyph-name="zero" unicode="0" horiz-adv-x="670"
                   d="M144 434l-29 -167q-22 -127 60 -189q68 -51 166 -30q103 21 162 110q31 48 42 109l29 167q22 126 -60 188q-68 51 -165 31q-105 -22 -163 -111q-31 -48 -42 -108zM62 267l29 167q26 149 147 225q101 64 213 46q109 -17 155 -103q38 -70 21 -168l-29 -167
q-26 -149 -147 -225q-101 -64 -213 -47q-109 17 -156 104q-37 69 -20 168z"/>
            <glyph glyph-name="one" unicode="1" horiz-adv-x="395"
                   d="M-3 0l8 47h136l105 592l-135 -32l8 47l191 46l-115 -653h137l-8 -47h-327z"/>
            <glyph glyph-name="two" unicode="2" horiz-adv-x="666"
                   d="M163 514h-53q12 70 62.5 116t110.5 62.5t129 16.5q100 0 168.5 -42.5t68.5 -131.5q0 -59 -28.5 -105t-74.5 -72.5t-98 -40t-105 -13.5q-222 -2 -247 -145l-19 -107h482l-9 -52h-535l28 158q10 56 40.5 95.5t75 60.5t91 30t99.5 9q37 0 74.5 7.5t74.5 24t64 47.5t34 73
q8 44 -6.5 76t-45.5 49t-66 24.5t-74 7.5q-38 0 -74.5 -7t-72.5 -23t-61.5 -46.5t-32.5 -71.5z"/>
            <glyph glyph-name="three" unicode="3" horiz-adv-x="660"
                   d="M160 529h-51q9 52 39 89t73.5 56t87.5 27t92 8q109 0 168.5 -45t59.5 -117q0 -66 -53.5 -119.5t-125.5 -66.5q56 -11 94.5 -53.5t38.5 -97.5q0 -91 -82.5 -155t-223.5 -64q-39 0 -74 4.5t-70.5 17.5t-58.5 33.5t-34.5 54t-3.5 77.5h52q-6 -36 4.5 -62.5t30 -40.5
t50.5 -22t56.5 -10t57.5 -2q116 0 180 47.5t64 114.5q0 55 -50.5 94.5t-142.5 39.5h-116l8 45h113q98 0 161 43t74 99q11 58 -37 99t-147 41q-210 0 -234 -135z"/>
            <glyph glyph-name="four" unicode="4" horiz-adv-x="655"
                   d="M504 700h89l-87 -491h88l-9 -51h-88l-28 -158h-54l28 158h-429v65zM452 209l80 451l-462 -451h382z"/>
            <glyph glyph-name="five" unicode="5" horiz-adv-x="656"
                   d="M369 380h-275l57 320h487l-9 -48h-437l-39 -224h225q114 0 165.5 -50t51.5 -127q0 -107 -83 -181.5t-231 -74.5q-52 0 -95 9.5t-80 30.5t-54 61.5t-7 96.5h54q-8 -43 6.5 -73.5t46.5 -45t65 -20t73 -5.5q122 0 186 54t64 140q0 60 -39.5 98.5t-131.5 38.5z"/>
            <glyph glyph-name="six" unicode="6" horiz-adv-x="687"
                   d="M174 516l-34 -191q87 99 242 99q100 0 169 -46t69 -137q0 -65 -28.5 -115t-75.5 -78t-100.5 -42t-111.5 -14q-52 0 -97.5 12.5t-81.5 37t-52 68t-6 100.5l54 306q16 93 103.5 143.5t196.5 50.5q111 0 178 -46t58 -131h-54q7 61 -46.5 95t-143.5 34q-86 0 -156.5 -38.5
t-82.5 -107.5zM313 43q45 0 86.5 9.5t80.5 29.5t62.5 58.5t23.5 89.5q0 69 -58 107t-135 38q-85 0 -161 -43t-91 -123q-8 -45 6 -78.5t44.5 -52t66 -27t75.5 -8.5z"/>
            <glyph glyph-name="seven" unicode="7" horiz-adv-x="558"
                   d="M51 0l493 650h-454l8 50h510v-44l-496 -656h-61z"/>
            <glyph glyph-name="eight" unicode="8" horiz-adv-x="700"
                   d="M358 340q-37 0 -79 -9t-85.5 -27.5t-71.5 -54t-28 -82.5q0 -36 21.5 -63t55.5 -41t67.5 -20.5t66.5 -6.5q49 0 100 11.5t101 47t60 89.5t-27 91.5t-85.5 51t-95.5 13.5zM296 -15q-65 0 -120 15t-96 55.5t-41 101.5q0 78 57 133t135 71q-120 39 -120 139q0 58 30 102
t78.5 67.5t100 34.5t105.5 11q45 0 85.5 -8.5t77.5 -26.5t59.5 -51.5t22.5 -79.5q0 -73 -51 -119.5t-132 -70.5q56 -12 95 -53.5t39 -99.5q0 -59 -30.5 -104t-80 -69.5t-103.5 -36t-111 -11.5zM416 669q-38 0 -78 -8t-81 -25t-66.5 -50.5t-25.5 -78.5q0 -33 20 -58t52 -38
t64.5 -19t64.5 -6q38 0 77.5 7.5t80.5 24t67 48.5t26 75q0 34 -19.5 60.5t-51 40.5t-64.5 20.5t-66 6.5z"/>
            <glyph glyph-name="nine" unicode="9" horiz-adv-x="687"
                   d="M534 186l33 191q-87 -99 -242 -99q-100 0 -169.5 46t-69.5 137q0 65 28.5 115t75.5 78t100.5 42t111.5 14q52 0 97.5 -12.5t81.5 -37t52.5 -68t6.5 -100.5l-54 -306q-16 -93 -103.5 -143.5t-196.5 -50.5q-110 0 -177.5 46t-58.5 131h54q-7 -61 46.5 -95t143.5 -34
q86 0 157 38.5t83 107.5zM393 659q-45 0 -86.5 -9.5t-80.5 -30t-62.5 -59.5t-23.5 -91q0 -72 57.5 -107t136.5 -35q85 0 161 43t91 123q8 45 -6 78.5t-44.5 52t-66.5 27t-76 8.5z"/>
            <glyph glyph-name="colon" unicode=":" horiz-adv-x="227"
                   d="M28 23q0 21 13.5 33.5t32.5 12.5q14 0 24 -8.5t10 -23.5q0 -21 -14 -33.5t-33 -12.5q-14 0 -23.5 8.5t-9.5 23.5zM80 323q0 21 14 33.5t33 12.5q14 0 24 -8.5t10 -23.5q0 -21 -14 -33.5t-33 -12.5q-14 0 -24 8.5t-10 23.5z"/>
            <glyph glyph-name="semicolon" unicode=";" horiz-adv-x="233"
                   d="M31 24q0 22 15 33.5t34 11.5q14 0 23 -8.5t9 -23.5q0 -12 -7 -24l-58 -102h-43l46 83q-19 7 -19 30zM84 323q0 21 14 33.5t33 12.5q14 0 24 -8.5t10 -23.5q0 -21 -14 -33.5t-33 -12.5q-14 0 -24 8.5t-10 23.5z"/>
            <glyph glyph-name="less" unicode="&#x3c;" horiz-adv-x="361"
                   d="M63 337l244 186l24 -34l-222 -171l165 -172l-40 -34l-178 186z"/>
            <glyph glyph-name="equal" unicode="=" horiz-adv-x="553"
                   d="M58 193l9 49h399l-9 -49h-399zM93 390l9 50h399l-9 -50h-399z"/>
            <glyph glyph-name="greater" unicode="&#x3e;" horiz-adv-x="360"
                   d="M133 523l179 -186l-7 -39l-244 -186l-28 34l226 172l-162 171z"/>
            <glyph glyph-name="question" unicode="?" horiz-adv-x="606"
                   d="M121 508h-47q9 58 38 99.5t71.5 63.5t88 31.5t96.5 9.5q107 0 169 -49t68 -121q5 -74 -40.5 -137t-133.5 -87q-73 -20 -113.5 -65.5t-40.5 -111.5h-47q0 161 186 219q71 22 107.5 69.5t33.5 99.5q-3 61 -53 98.5t-144 37.5q-210 0 -239 -157zM202 28q0 21 14 33.5
t32 12.5q14 0 24.5 -8.5t10.5 -23.5q0 -21 -13.5 -33.5t-32.5 -12.5q-14 0 -24.5 8.5t-10.5 23.5z"/>
            <glyph glyph-name="at" unicode="@" horiz-adv-x="888"
                   d="M518 695q154 0 241.5 -84t87.5 -230q0 -48 -9 -98.5t-28 -101t-55 -82.5t-83 -32q-29 0 -45 22.5t-9 62.5v-1q-43 -48 -101.5 -75t-118.5 -27q-99 0 -155 59t-56 150q0 128 89 210.5t211 82.5q62 0 112 -28.5t70 -81.5l15 85h44l-66 -373q-4 -20 2.5 -31.5t18.5 -10.5
q37 3 65 47t40 102t12 117q0 136 -76 204t-214 68q-176 0 -292.5 -116.5t-116.5 -288.5q0 -128 72.5 -201.5t211.5 -73.5q76 0 165 41l20 -38q-88 -49 -193 -49q-155 0 -240.5 86.5t-85.5 228.5q0 123 59 227.5t166.5 167t241.5 62.5zM479 506q-98 0 -170.5 -67.5
t-72.5 -172.5q0 -74 45 -122.5t125 -48.5q119 0 191 95q60 78 52 170q-9 93 -85 129q-37 17 -85 17z"/>
            <glyph glyph-name="A" unicode="A" horiz-adv-x="740"
                   d="M664 0h-56l-47 172h-418l-105 -172h-61l437 700h59zM172 220h376l-112 426z"/>
            <glyph glyph-name="B" unicode="B" horiz-adv-x="696"
                   d="M160 332l-52 -282h235q52 0 95 9t82.5 40.5t48.5 83.5q11 75 -39.5 112t-129.5 37h-240zM216 654l-47 -271h240q38 0 70.5 7t62 23t46.5 46t17 72q0 59 -46 91t-110 32h-233zM457 700q86 0 142.5 -41t57.5 -120q1 -71 -37.5 -118t-105.5 -67q119 -42 109 -166
q-6 -68 -51 -112t-105 -60t-133 -16h-287l123 700h287z"/>
            <glyph glyph-name="C" unicode="C" horiz-adv-x="715"
                   d="M605 131l32 -38q-55 -50 -128.5 -75.5t-146.5 -25.5q-148 0 -226 84t-78 212q0 80 29 154.5t82 134t136 95.5t183 36q150 0 236 -105l-42 -33q-75 90 -202 90q-150 0 -245.5 -89t-117.5 -223q-21 -130 44 -217.5t210 -87.5q61 0 124.5 23t109.5 65z"/>
            <glyph glyph-name="D" unicode="D" horiz-adv-x="747"
                   d="M407 700q148 0 224 -84.5t76 -208.5q0 -74 -28 -145.5t-79 -130.5t-133.5 -95t-182.5 -36h-237l123 700h237zM398 649h-183l-105 -597h183q84 0 153.5 31.5t113.5 82t68 111.5t24 124q0 50 -14 93t-42.5 78.5t-79 56t-118.5 20.5z"/>
            <glyph glyph-name="E" unicode="E" horiz-adv-x="648"
                   d="M214 650l-48 -273h410l-8 -49h-410l-49 -276h442l-9 -52h-495l123 700h483l-9 -50h-430z"/>
            <glyph glyph-name="F" unicode="F" horiz-adv-x="625"
                   d="M216 648l-50 -281h403l-9 -51h-403l-56 -317h-54l124 701h471l-9 -52h-417z"/>
            <glyph glyph-name="G" unicode="G" horiz-adv-x="747"
                   d="M728 605l-37 -35q-36 44 -92 67t-117 23q-86 0 -157.5 -31t-117 -82.5t-70.5 -116t-25 -133.5q0 -114 63.5 -185t197.5 -71q155 0 227 76l38 202h-247l8 47h295l-49 -271q-105 -104 -281 -104q-148 0 -226.5 84t-78.5 213q0 184 124 303t307 119q150 0 238 -105z"/>
            <glyph glyph-name="H" unicode="H" horiz-adv-x="752"
                   d="M601 0h-54l56 318h-446l-56 -318h-54l123 700h54l-58 -333h446l58 333h54z"/>
            <glyph glyph-name="I" unicode="I" horiz-adv-x="251"
                   d="M100 0h-53l123 700h53z"/>
            <glyph glyph-name="J" unicode="J" horiz-adv-x="670"
                   d="M521 264l69 389h-269l9 47h321l-77 -436q-22 -126 -113 -200.5t-213 -74.5q-120 0 -184.5 77t-42.5 198h50q-18 -101 32 -163t154 -62q100 0 172.5 59.5t91.5 165.5z"/>
            <glyph glyph-name="K" unicode="K" horiz-adv-x="588"
                   d="M538 4l-1 -4h-68l-308 345l-61 -344h-54l123 699h54l-56 -319l395 319h66l-1 -5l-408 -335z"/>
            <glyph glyph-name="L" unicode="L" horiz-adv-x="558"
                   d="M170 700h54l-114 -649h394l-9 -51h-448z"/>
            <glyph glyph-name="M" unicode="M" horiz-adv-x="861"
                   d="M657 0l107 602l-338 -390h-18l-200 385l-107 -597h-54l123 700h44l215 -410l353 410h51l-123 -700h-53z"/>
            <glyph glyph-name="N" unicode="N" horiz-adv-x="745"
                   d="M170 700h23l369 -579l102 579h53l-123 -700h-21l-370 584l-102 -584h-54z"/>
            <glyph glyph-name="O" unicode="O" horiz-adv-x="814"
                   d="M481 711q86 0 148 -29.5t95 -80.5t44.5 -115t1.5 -137q-20 -148 -133 -254.5t-283 -106.5q-78 0 -137 24.5t-92.5 67.5t-50 95.5t-16.5 114.5q0 79 28.5 154t81 135t134 96t179.5 36zM472 661q-119 0 -208.5 -64.5t-127 -163t-19.5 -203.5q15 -86 75.5 -139t169.5 -53
q108 0 192 55t126.5 137.5t43.5 173.5q2 120 -61.5 188.5t-190.5 68.5z"/>
            <glyph glyph-name="P" unicode="P" horiz-adv-x="670"
                   d="M469 651h-253l-64 -360h253q105 0 167 87q53 73 41 155q-11 83 -85 109q-27 9 -59 9zM397 242h-253l-43 -242h-54l123 700h307q122 0 170 -92q42 -81 8 -182q-36 -104 -129 -153q-58 -31 -129 -31z"/>
            <glyph glyph-name="Q" unicode="Q" horiz-adv-x="821"
                   d="M484 709q135 0 210 -68t85 -179q8 -105 -26.5 -205.5t-102.5 -154.5l73 -80l-40 -35l-72 81q-99 -75 -253 -75q-140 0 -219.5 79.5t-79.5 206.5q-4 186 119 308t306 122zM475 659q-152 0 -257.5 -104.5t-105.5 -256.5q0 -254 255 -254q166 0 263.5 107.5t97.5 267.5
q0 108 -64 174t-189 66z"/>
            <glyph glyph-name="R" unicode="R" horiz-adv-x="697"
                   d="M405 268l200 -268h-68l-193 265h-196l-47 -265h-54l123 700h308q101 0 149 -59.5t40 -142.5q-10 -101 -74.5 -165t-187.5 -65zM216 651l-59 -335h248q88 0 141 45t67 122q13 68 -22.5 118t-120.5 50h-254z"/>
            <glyph glyph-name="S" unicode="S" horiz-adv-x="655"
                   d="M634 588l-40 -25q-22 47 -79 71t-119 25q-43 0 -83 -7t-78 -23.5t-60.5 -48t-22.5 -75.5q0 -27 14.5 -47t45.5 -33.5t60 -21t77 -17.5q49 -10 78.5 -17.5t68.5 -24t58.5 -37t31 -54t3.5 -77.5q-10 -56 -42.5 -95.5t-79 -58t-90.5 -26t-94 -7.5q-90 0 -165.5 38.5
t-100.5 113.5l48 24q20 -61 84 -93t137 -32q29 0 57 3t61 12.5t59 25t46 42.5t26 63q5 29 -4.5 53t-26.5 38.5t-48.5 27.5t-58 19.5t-66.5 14.5q-37 8 -56.5 12.5t-50 13t-48 18.5t-36 24t-28 33.5t-11.5 43.5q-10 102 74 163t221 61q81 0 146.5 -31t91.5 -89z"/>
            <glyph glyph-name="T" unicode="T" horiz-adv-x="586"
                   d="M214 0l114 652h-253l9 48h560l-9 -48h-253l-114 -652h-54z"/>
            <glyph glyph-name="U" unicode="U" horiz-adv-x="719"
                   d="M646 700h53l-77 -435q-24 -136 -109.5 -205t-211.5 -69q-108 0 -173 72t-42 202l77 435h53l-77 -435q-19 -108 29.5 -166.5t141.5 -58.5q97 0 168 56.5t91 168.5z"/>
            <glyph glyph-name="V" unicode="V" horiz-adv-x="693"
                   d="M674 700h58l-412 -702h-58l-164 702h57l145 -644z"/>
            <glyph glyph-name="W" unicode="W" horiz-adv-x="1079"
                   d="M263 60l330 640h30l100 -640l331 640h58l-371 -702h-58l-53 328l-38 275l-138 -273l-170 -330h-58l-121 702h57z"/>
            <glyph glyph-name="X" unicode="X" horiz-adv-x="599"
                   d="M320 401l266 299h58v-1l-299 -344l188 -354v-1h-57l-168 317l-284 -317h-64v1l323 361l-181 337v1h58z"/>
            <glyph glyph-name="Y" unicode="Y" horiz-adv-x="657"
                   d="M246 0l49 280l-199 419v1h62l170 -370l306 370h63v-1l-348 -419l-49 -280h-54z"/>
            <glyph glyph-name="Z" unicode="Z" horiz-adv-x="590"
                   d="M111 651l8 49h507l-3 -19l-561 -630h450l-9 -51h-531l4 23l556 628h-421z"/>
            <glyph glyph-name="bracketleft" unicode="[" horiz-adv-x="305"
                   d="M10 -167l156 882h181l-9 -48h-129l-139 -786h129l-8 -48h-181z"/>
            <glyph glyph-name="backslash" unicode="\" horiz-adv-x="474"
                   d="M383 -82h-52l-226 841h53z"/>
            <glyph glyph-name="bracketright" unicode="]" horiz-adv-x="305"
                   d="M289 716l-156 -882h-181l8 48h129l139 786h-129l9 48h181z"/>
            <glyph glyph-name="asciicircum" unicode="^" horiz-adv-x="577"
                   d="M542 384l-3 -3h-52l-128 277l-230 -277h-56l-1 3l266 316h50z"/>
            <glyph glyph-name="underscore" unicode="_" horiz-adv-x="612"
                   d="M7 -72l8 46h468l-8 -46h-468z"/>
            <glyph glyph-name="grave" unicode="`" horiz-adv-x="234"
                   d="M260 577h-45l-60 123v1h62l44 -120z"/>
            <glyph glyph-name="a" unicode="a" horiz-adv-x="631"
                   d="M541 494h45q-15 -82 -44 -247t-43 -247h-47l18 105q-79 -113 -223 -113q-94 0 -152.5 59.5t-58.5 154.5q0 127 87.5 210.5t212.5 83.5q63 0 114 -29.5t70 -84.5zM328 453q-104 0 -173 -67.5t-69 -172.5q0 -79 45.5 -126t123.5 -47q121 0 193 94q60 79 53 171
q-8 93 -85 130q-38 18 -88 18z"/>
            <glyph glyph-name="b" unicode="b" horiz-adv-x="632"
                   d="M359 455q-98 0 -170 -69t-72 -173q0 -78 46.5 -125.5t122.5 -47.5q101 0 172 66t71 181q0 82 -44.5 125t-125.5 43zM151 700h48l-55 -308q38 56 99.5 83t126.5 27q95 0 151.5 -55.5t56.5 -153.5q0 -138 -85 -219.5t-212 -81.5q-64 0 -114.5 31t-71.5 86l-19 -109h-48z
"/>
            <glyph glyph-name="c" unicode="c" horiz-adv-x="520"
                   d="M416 99l27 -34q-85 -73 -193 -73q-94 0 -154 58.5t-60 154.5q0 132 85.5 214.5t218.5 82.5q103 0 166 -74l-35 -31q-49 59 -139 59q-107 0 -177 -66.5t-70 -178.5q0 -81 48.5 -127t124.5 -46q86 0 158 61z"/>
            <glyph glyph-name="d" unicode="d" horiz-adv-x="631"
                   d="M328 455q-101 0 -172 -65.5t-71 -181.5q0 -168 170 -168q100 0 171 69.5t71 172.5q0 77 -47 125t-122 48zM574 700h48l-123 -700h-48l18 102q-79 -110 -226 -110q-93 0 -150 55t-57 153q0 138 85.5 220t212.5 82q64 0 114 -30t68 -86z"/>
            <glyph glyph-name="e" unicode="e" horiz-adv-x="585"
                   d="M246 -8q-93 0 -152.5 58.5t-58.5 153.5q2 126 91 212t210 86q114 0 173 -71t22 -207h-447q-8 -85 39.5 -135.5t130.5 -50.5q51 0 105 20.5t87 56.5l30 -28q-43 -46 -105.5 -70.5t-124.5 -24.5zM91 268h404q16 92 -26.5 140.5t-140.5 48.5q-80 0 -146.5 -50.5
t-90.5 -138.5z"/>
            <glyph glyph-name="f" unicode="f" horiz-adv-x="355"
                   d="M129 0h-48l79 447h-101l8 43h101l9 51q15 83 56.5 126t120.5 43q53 0 92 -34l-26 -32q-36 24 -72 24q-50 0 -80 -27.5t-43 -99.5l-9 -51h163l-8 -43h-163z"/>
            <glyph glyph-name="g" unicode="g" horiz-adv-x="629"
                   d="M326 453q-97 0 -169.5 -68.5t-72.5 -171.5q0 -81 42.5 -128t127.5 -47q121 0 193 95q60 79 52 171q-8 94 -85 131q-38 18 -88 18zM539 494h45l-89 -507q-21 -120 -94.5 -180.5t-185.5 -60.5q-104 0 -158.5 47.5t-44.5 128.5h44q-6 -67 37.5 -99t124.5 -32q85 0 149 46
t81 149l21 112q-84 -106 -224 -106q-101 0 -155.5 58t-54.5 156q0 126 90 210t210 84q63 0 113 -29t70 -84z"/>
            <glyph glyph-name="h" unicode="h" horiz-adv-x="586"
                   d="M151 700h47l-52 -298q71 97 195 99q101 0 144 -59t25 -159l-50 -283h-48l50 283q30 172 -129 172q-77 0 -135.5 -53t-72.5 -131l-48 -271h-49z"/>
            <glyph glyph-name="i" unicode="i" horiz-adv-x="209"
                   d="M164 496h-49l-87 -496h49zM130 653q0 21 14.5 33.5t32.5 12.5q14 0 23.5 -8.5t9.5 -23.5q0 -21 -14.5 -33.5t-33.5 -12.5q-13 0 -22.5 8.5t-9.5 23.5z"/>
            <glyph glyph-name="j" unicode="j" horiz-adv-x="207"
                   d="M162 495h-47l-100 -566q-11 -60 -32.5 -91.5t-73.5 -31.5q-40 0 -72 20l-21 -42q40 -24 85 -24q76 0 112 44t50 125zM127 653q0 21 14.5 33.5t32.5 12.5q14 0 23.5 -8.5t9.5 -23.5q0 -21 -14.5 -33.5t-32.5 -12.5q-14 0 -23.5 8.5t-9.5 23.5z"/>
            <glyph glyph-name="k" unicode="k" horiz-adv-x="461"
                   d="M151 700h48l-74 -422l271 216h65v-2l-291 -235l234 -254l-1 -3h-60l-224 242l-43 -242h-48z"/>
            <glyph glyph-name="l" unicode="l" horiz-adv-x="223"
                   d="M158 700h49l-123 -700h-49z"/>
            <glyph glyph-name="m" unicode="m" horiz-adv-x="935"
                   d="M809 0h-49l52 296q13 73 -20.5 117.5t-108.5 44.5q-69 0 -122 -47.5t-66 -117.5l-52 -293h-49l52 293q13 73 -21 118.5t-109 45.5q-70 0 -122 -46t-65 -118l-52 -293h-49l87 494h46l-13 -82q64 92 177 92q62 0 107 -30t54 -92q32 61 86.5 91.5t118.5 30.5q91 0 138.5 -58
t31.5 -150z"/>
            <glyph glyph-name="n" unicode="n"
                   d="M115 494h48l-15 -88q70 95 193 97q102 0 152 -58t32 -160l-50 -285h-49l50 284q15 84 -22 128t-124 43q-76 -1 -133.5 -52t-71.5 -128l-48 -275h-49z"/>
            <glyph glyph-name="o" unicode="o"
                   d="M246 -8q-94 0 -152.5 57t-58.5 153q0 130 89.5 215t211.5 85q93 0 152 -58.5t59 -155.5q0 -131 -89.5 -213.5t-211.5 -82.5zM255 40q99 0 171 67t72 174q0 79 -47.5 127t-122.5 48q-98 0 -171 -70t-73 -176q0 -78 47.5 -124t123.5 -46z"/>
            <glyph glyph-name="p" unicode="p" horiz-adv-x="632"
                   d="M287 38q101 0 171.5 66.5t70.5 182.5q0 82 -45 124.5t-125 42.5q-99 0 -169.5 -70t-70.5 -172q0 -77 46.5 -125.5t121.5 -48.5zM33 -239h-47l129 733h48l-19 -108q39 56 100 85.5t134 29.5q90 -2 145.5 -57.5t55.5 -150.5q0 -139 -87.5 -220.5t-213.5 -81.5
q-65 0 -113 32t-69 92z"/>
            <glyph glyph-name="q" unicode="q" horiz-adv-x="632"
                   d="M255 37q97 0 169 71t72 173q0 76 -46 124.5t-121 48.5q-103 0 -173 -65t-70 -182q0 -83 44 -126.5t125 -43.5zM458 -239h-47l62 353q-42 -60 -101.5 -91.5t-124.5 -31.5q-94 0 -152.5 55t-58.5 154q0 133 84.5 214.5t205.5 86.5q72 0 123 -34t69 -93l21 120h48z"/>
            <glyph glyph-name="r" unicode="r" horiz-adv-x="403"
                   d="M115 494h46l-13 -88q30 47 79 70t101 23q55 1 101 -29l-27 -42q-33 23 -80 23q-69 0 -125.5 -47.5t-68.5 -115.5l-51 -288h-49z"/>
            <glyph glyph-name="s" unicode="s" horiz-adv-x="500"
                   d="M461 436l-35 -31q-49 52 -146 52q-67 0 -116 -26t-49 -74q0 -21 9.5 -35.5t35 -24t35.5 -12t45 -8.5q3 -1 5 -1.5t4 -0.5q33 -6 55 -11t51.5 -16.5t46 -26t25.5 -39t2 -55.5q-10 -51 -50.5 -83t-84 -42t-93.5 -10q-147 0 -198 101l38 29q48 -83 169 -83q59 0 109 21
t61 73q5 24 -4 41.5t-33 28.5t-47 16.5t-59 11.5q-51 8 -84 18.5t-59.5 36.5t-26.5 65q0 74 65.5 113t155.5 38q114 0 173 -66z"/>
            <glyph glyph-name="t" unicode="t" horiz-adv-x="369"
                   d="M196 638l49 5l-27 -149h157l-8 -43h-157l-52 -299q-10 -57 3.5 -85.5t67.5 -28.5q34 0 79 20l10 -40q-55 -25 -97 -25q-75 0 -100 41t-11 118l52 299h-105l8 43h105z"/>
            <glyph glyph-name="u" unicode="u" horiz-adv-x="601"
                   d="M469 0h-48l16 89q-71 -96 -193 -96q-101 0 -152 58t-33 159l50 285h49l-50 -284q-15 -84 22 -128t124 -44q76 0 133.5 52t71.5 129l48 275h49z"/>
            <glyph glyph-name="v" unicode="v" horiz-adv-x="538"
                   d="M188 0l-120 494h54l100 -438l260 438h54l-294 -494h-54z"/>
            <glyph glyph-name="w" unicode="w" horiz-adv-x="818"
                   d="M811 494l-261 -494h-55l-42 216l-26 192l-96 -193l-118 -215h-54l-89 494h54l72 -437l228 437h35l72 -437l226 437h54z"/>
            <glyph glyph-name="x" unicode="x" horiz-adv-x="473"
                   d="M121 494l114 -202l184 202h59v-2l-219 -239l146 -251v-2h-55l-124 221l-203 -221h-58v2l236 259l-135 231v2h55z"/>
            <glyph glyph-name="y" unicode="y" horiz-adv-x="598"
                   d="M417 -19l20 108q-70 -95 -196 -97q-100 0 -151 58.5t-33 159.5l50 284h49l-50 -283q-15 -84 22 -128.5t124 -43.5q76 1 133 52.5t71 128.5l48 274h49l-90 -512q-21 -119 -89.5 -177.5t-175.5 -58.5q-101 0 -146.5 46.5t-35.5 129.5h44q-7 -66 30 -98t116 -32q80 0 137 46
t74 143z"/>
            <glyph glyph-name="z" unicode="z" horiz-adv-x="453"
                   d="M72 450l8 44h372l-3 -19l-387 -429h311l-8 -46h-388l3 17l389 433h-297z"/>
            <glyph glyph-name="braceleft" unicode="{" horiz-adv-x="301"
                   d="M199 -87l-7 -38q-93 -13 -118.5 17.5t-9.5 118.5l26 147q21 118 -58 118l7 39q79 0 100 118l24 135q16 87 55 120t121 17l-6 -34q-63 10 -89 -12t-38 -91l-23 -135q-4 -25 -9 -42.5t-15 -38.5t-28 -35.5t-44 -20.5q23 -6 36 -20t15.5 -36.5t1 -39t-5.5 -42.5l-26 -147
q-12 -68 6.5 -88.5t84.5 -9.5z"/>
            <glyph glyph-name="bar" unicode="|" horiz-adv-x="235"
                   d="M216 705l-145 -823h-52l145 823h52z"/>
            <glyph glyph-name="braceright" unicode="}" horiz-adv-x="300"
                   d="M-42 -131l7 38q62 -11 87.5 9.5t37.5 88.5l26 147q4 25 9 42.5t15 39t28 36t44 20.5q-23 6 -36.5 20t-16 36t-1 38.5t5.5 42.5l24 135q12 69 -6 91t-84 12l6 34q88 16 116 -17t12 -120l-24 -135q-21 -118 59 -118l-7 -39q-79 0 -100 -118l-26 -147q-16 -88 -52 -118.5
t-124 -17.5z"/>
            <glyph glyph-name="asciitilde" unicode="~" horiz-adv-x="622"
                   d="M516 356l38 -17q-26 -61 -81 -83.5t-116 5.5l-99 56q-43 21 -85.5 6.5t-63.5 -59.5l-36 17q28 63 87 85.5t121 -8.5l95 -52q93 -47 140 50z"/>
            <glyph glyph-name="exclamdown" unicode="&#xa1;" horiz-adv-x="221"
                   d="M-2 -201h51q17 98 49 279.5t50 279.5h-51zM179 471q0 -21 -14.5 -33.5t-32.5 -12.5q-14 0 -23.5 8.5t-9.5 23.5q0 21 14.5 33.5t32.5 12.5q14 0 23.5 -8.5t9.5 -23.5z"/>
            <glyph glyph-name="cent" unicode="&#xa2;" horiz-adv-x="537"
                   d="M274 -14l-13 -71h-48l13 71q-86 8 -139 62t-53 145q0 123 81 203.5t199 91.5l11 60h48l-11 -60q90 -10 143 -73l-39 -31q-51 60 -136 60q-102 0 -174.5 -66t-72.5 -179q0 -81 48.5 -124.5t126.5 -43.5q82 0 156 62l28 -35q-76 -64 -168 -72z"/>
            <glyph glyph-name="sterling" unicode="&#xa3;" horiz-adv-x="638"
                   d="M61 308l8 43h80q-6 78 -6 98q0 132 80 194.5t200 62.5q46 0 82.5 -9t65.5 -29t40.5 -56.5t3.5 -86.5h-43q6 39 -5 67t-36 42.5t-53 20.5t-63 6q-99 0 -161 -50.5t-62 -154.5q0 -19 2.5 -56.5t2.5 -48.5h260l-8 -43h-251q0 -78 -25 -139.5t-98 -120.5h465l-8 -48h-525
l8 45q86 75 113 134.5t24 128.5h-91z"/>
            <glyph glyph-name="currency" unicode="&#xa4;" horiz-adv-x="571"
                   d="M543 514l-70 -59q23 -37 23 -96q0 -88 -69 -163l49 -60l-41 -35l-51 60q-56 -37 -129 -37t-118 37l-70 -60l-29 35l71 60q-25 38 -25 97q0 90 69 162l-48 59l41 35l48 -60q58 39 132 39q71 0 117 -39l71 60zM263 171q82 0 132.5 56t50.5 126q0 54 -33 91.5t-95 37.5
q-84 0 -134 -56.5t-50 -126.5q0 -54 33.5 -91t95.5 -37z"/>
            <glyph glyph-name="yen" unicode="&#xa5;" horiz-adv-x="665"
                   d="M127 167l7 41h154l12 63h-154l7 41h133l-184 387v1h56l176 -378l311 378h58v-1l-322 -387h139l-7 -41h-160l-12 -63h160l-7 -41h-160l-29 -167h-53l29 167h-154z"/>
            <glyph glyph-name="brokenbar" unicode="&#xa6;" horiz-adv-x="237"
                   d="M154 342h-54l64 364h54zM88 275h54l-64 -363h-54z"/>
            <glyph glyph-name="section" unicode="&#xa7;" horiz-adv-x="541"
                   d="M520 650l-36 -31q-50 51 -145 51q-67 0 -116 -25.5t-49 -71.5q0 -21 11.5 -36t35 -24t40.5 -13.5t46 -9.5q16 -3 27 -4.5t27.5 -5t27 -7t26 -9t24 -11t20.5 -13.5t16 -16.5t10.5 -20t4.5 -24.5t-3 -29q-18 -90 -121 -113q99 -31 81 -119q-10 -50 -49.5 -82t-83.5 -42.5
t-94 -10.5q-68 0 -122 25t-77 72l41 31q22 -41 68 -61.5t99 -20.5q26 0 50.5 4t50.5 13.5t45 28.5t25 46q5 24 -2 40t-34.5 26.5t-41 14t-57.5 10.5q-3 1 -5.5 1.5t-4.5 0.5q-171 28 -171 120q0 41 33 80t83 55q-76 29 -76 94q0 75 66.5 114t156.5 38q115 0 173 -65z
M441 353q6 41 -35.5 65.5t-103.5 26.5q-68 2 -118.5 -24.5t-50.5 -79.5q0 -35 38.5 -57t92.5 -24q42 -1 79 8t65 31t33 54z"/>
            <glyph glyph-name="dieresis" unicode="&#xa8;" horiz-adv-x="455"
                   d="M183 671q0 21 14.5 33.5t32.5 12.5q14 0 23.5 -8.5t9.5 -23.5q0 -21 -13.5 -33.5t-32.5 -12.5q-34 0 -34 32zM400 671q0 21 14.5 33.5t32.5 12.5q14 0 23.5 -8.5t9.5 -23.5q0 -21 -13.5 -33.5t-32.5 -12.5q-34 0 -34 32z"/>
            <glyph glyph-name="copyright" unicode="&#xa9;" horiz-adv-x="838"
                   d="M493 713q146 0 224.5 -83.5t78.5 -217.5q0 -175 -121 -302t-311 -127q-145 0 -224 85.5t-79 217.5q0 113 52 209.5t152 157t228 60.5zM553 212l-27 34q-50 -42 -111 -42q-55 0 -89.5 33t-34.5 89q0 75 52.5 124.5t123.5 49.5q63 0 98 -41l37 30q-45 57 -127 57
q-95 0 -164.5 -66t-69.5 -161q0 -73 45.5 -118.5t119.5 -45.5q82 0 147 57zM111 292q0 -119 64.5 -191.5t196.5 -72.5q165 0 270 110.5t105 266.5q0 119 -66 191.5t-196 72.5q-165 0 -269.5 -110.5t-104.5 -266.5z"/>
            <glyph glyph-name="ordfeminine" unicode="&#xaa;" horiz-adv-x="502"
                   d="M428 639l11 62h44l-57 -324h-44l11 63q-57 -67 -139 -67q-61 0 -100 38t-39 101q0 86 59 140t139 54q38 0 69 -17.5t46 -49.5zM308 660q-57 0 -99.5 -40.5t-42.5 -99.5q0 -46 23.5 -73.5t69.5 -27.5q78 0 121 67q37 58 20 114q-19 60 -92 60zM80 254l8 48h334l-8 -48
h-334z"/>
            <glyph glyph-name="guillemotleft" unicode="&#xab;" horiz-adv-x="409"
                   d="M51 297l177 219h52l-1 -5l-173 -214l98 -214l-1 -6h-52zM264 77l-100 220l177 219h52l-1 -5l-173 -214l98 -214l-1 -6h-52z"/>
            <glyph glyph-name="logicalnot" unicode="&#xac;" horiz-adv-x="503"
                   d="M435 362l-33 -187h-50l24 136h-297l9 51h347z"/>
            <glyph glyph-name="registered" unicode="&#xae;" horiz-adv-x="838"
                   d="M493 713q145 0 224 -85.5t79 -217.5q0 -112 -52 -209t-152 -157.5t-228 -60.5q-145 0 -224 86t-79 218q0 112 52 208.5t152.5 157t227.5 60.5zM112 291q0 -116 67.5 -189.5t192.5 -73.5q165 0 269.5 110.5t104.5 266.5q0 116 -68 190t-193 74q-110 0 -196.5 -52.5
t-131.5 -138t-45 -187.5zM475 306q74 9 111.5 68.5t14 115t-100.5 55.5h-170l-67 -383h47l25 144h88l95 -144h52l1 8zM342 348l27 151h123q55 0 66 -44q10 -41 -23 -77q-29 -30 -73 -30h-120z"/>
            <glyph glyph-name="macron" unicode="&#xaf;" horiz-adv-x="394"
                   d="M151 656l8 46h314l-8 -46h-314z"/>
            <glyph glyph-name="degree" unicode="&#xb0;" horiz-adv-x="323"
                   d="M202 529q-45 0 -68 23t-23 58q0 45 35 80t91 35q43 0 66 -24t23 -59q0 -44 -34 -78.5t-90 -34.5zM209 567q32 0 51.5 21.5t19.5 48.5q0 21 -13 35.5t-37 14.5q-32 0 -53.5 -22t-21.5 -48q0 -21 13.5 -35.5t40.5 -14.5z"/>
            <glyph glyph-name="plusminus" unicode="&#xb1;" horiz-adv-x="523"
                   d="M84 345l7 45h163l29 164h46l-29 -164h162l-7 -45h-162l-30 -166h-46l30 166h-163zM39 47l8 47h358l-8 -47h-358z"/>
            <glyph glyph-name="twosuperior" unicode="&#xb2;" horiz-adv-x="354"
                   d="M160 683h-46q19 106 154 106q46 0 80 -21t34 -69q0 -40 -15 -67t-40 -39t-47.5 -16t-47.5 -4q-91 3 -103 -65l-5 -31h219l-9 -49h-267q3 17 7 41t7 39q10 55 54 82t103 27q98 0 98 76q0 55 -77 55q-40 0 -66 -13.5t-33 -51.5z"/>
            <glyph glyph-name="threesuperior" unicode="&#xb3;" horiz-adv-x="354"
                   d="M230 595h-55l8 41h51q36 0 66.5 16.5t30.5 47.5q0 20 -20 34.5t-57 14.5q-32 0 -62.5 -15t-36.5 -50h-43q9 53 51.5 79t97.5 26q50 0 83 -20.5t33 -60.5q0 -35 -20.5 -60.5t-52.5 -33.5q25 -7 38.5 -27t13.5 -42q0 -62 -47 -91t-113 -29q-58 0 -91.5 25.5t-24.5 81.5h46
q-5 -27 10.5 -41.5t31.5 -17.5t37 -3q103 0 103 70q0 21 -19 38t-59 17z"/>
            <glyph glyph-name="acute" unicode="&#xb4;" horiz-adv-x="224"
                   d="M189 577h-48l1 4l96 120h65v-1z"/>
            <glyph glyph-name="paragraph" unicode="&#xb6;" horiz-adv-x="781"
                   d="M387 655l-153 -871h-49l72 411q-133 0 -183 100q-42 86 -4 196q38 111 134 168q66 40 146 40h467l-8 -44h-106l-153 -871h-47l153 871h-269z"/>
            <glyph glyph-name="periodcentered" unicode="&#xb7;" horiz-adv-x="224"
                   d="M69 273q0 21 14.5 33.5t32.5 12.5q14 0 23.5 -8.5t9.5 -23.5q0 -21 -14 -33.5t-33 -12.5q-14 0 -23.5 8.5t-9.5 23.5z"/>
            <glyph glyph-name="cedilla" unicode="&#xb8;" horiz-adv-x="296"
                   d="M82 -71l-5 5l35 88h39l-23 -58q39 2 61.5 -14t23.5 -40t-8 -50q-15 -34 -47 -50.5t-69 -16.5q-32 0 -57 14.5t-35 40.5l31 25q20 -39 68 -39q52 0 70 38q14 30 -8 49t-76 8z"/>
            <glyph glyph-name="onesuperior" unicode="&#xb9;" horiz-adv-x="237"
                   d="M60 427l7 41h63l46 260l-57 -14l7 44l107 23l-55 -313h65l-7 -41h-176z"/>
            <glyph glyph-name="ordmasculine" unicode="&#xba;" horiz-adv-x="484"
                   d="M77 260l8 48h319l-8 -48h-319zM256 373q-61 0 -100 38t-39 101q0 86 59 140t139 54q61 0 100 -37.5t39 -100.5q0 -86 -59.5 -140.5t-138.5 -54.5zM264 419q57 0 98 41t41 100q0 45 -26.5 72.5t-69.5 27.5q-57 0 -98 -40.5t-41 -100.5q0 -45 26.5 -72.5t69.5 -27.5z"/>
            <glyph glyph-name="guillemotright" unicode="&#xbb;" horiz-adv-x="405"
                   d="M355 298l-177 -220h-52l1 6l173 214l-97 214v5h52zM246 298l-177 -220h-52l1 6l173 214l-97 214v5h52z"/>
            <glyph glyph-name="onequarter" unicode="&#xbc;" horiz-adv-x="715"
                   d="M600 356h48l-41 -233h42l-7 -44h-42l-14 -78h-45l14 78h-192l3 37zM425 123h137l31 173zM140 -2h-53l496 705h54zM58 348l7 41h63l46 260l-57 -14l7 44l107 23l-55 -313h65l-7 -41h-176z"/>
            <glyph glyph-name="onehalf" unicode="&#xbd;" horiz-adv-x="769"
                   d="M498 255h-46q19 106 154 106q48 0 82 -22t34 -70q0 -38 -16 -64t-42 -37.5t-48.5 -16t-46.5 -4.5q-33 0 -65 -15t-39 -53l-7 -37h219l-8 -42h-264l15 80q9 52 54.5 80.5t102.5 28.5q101 0 101 77q0 53 -80 53q-89 0 -100 -64zM137 -2h-53l495 705h54zM57 349l7 41h63
l46 260l-57 -14l7 44l107 23l-55 -313h65l-7 -41h-176z"/>
            <glyph glyph-name="threequarters" unicode="&#xbe;" horiz-adv-x="746"
                   d="M218 522h-54l7 40h50q36 0 66.5 15.5t30.5 46.5q0 20 -20.5 34.5t-56.5 14.5q-31 0 -60.5 -14.5t-36.5 -49.5h-42q10 52 51 77.5t95 25.5q49 0 81.5 -22t32.5 -63q0 -33 -20 -56t-52 -31q25 -6 38.5 -26t13.5 -42q0 -62 -45.5 -89.5t-111.5 -27.5q-56 0 -89.5 25
t-24.5 80h45q-5 -26 9.5 -40.5t30 -17.5t35.5 -3q104 0 104 69q0 20 -19 37t-58 17zM192 -2h-53l495 705h54zM632 356h48l-41 -233h42l-8 -44h-42l-14 -78h-45l14 78h-192l3 37zM457 123h137l30 173z"/>
            <glyph glyph-name="questiondown" unicode="&#xbf;" horiz-adv-x="599"
                   d="M514 -5h-47q-29 -157 -239 -157q-94 0 -144 37.5t-53 98.5q-3 52 33.5 99.5t107.5 69.5q186 58 186 219h-47q0 -66 -40.5 -111.5t-113.5 -65.5q-88 -24 -133.5 -87t-40.5 -137q6 -72 68 -121t169 -49q51 0 96.5 9.5t88 31.5t71.5 63.5t38 99.5zM386 475q0 -21 -14 -33.5
t-32 -12.5q-14 0 -24.5 8.5t-10.5 23.5q0 21 13.5 33.5t32.5 12.5q14 0 24.5 -8.5t10.5 -23.5z"/>
            <glyph glyph-name="Agrave" unicode="&#xc0;" horiz-adv-x="740"
                   d="M664 0h-56l-47 172h-418l-105 -172h-61l437 700h59zM172 220h376l-112 426zM474 772h-45l-60 123v1h62l44 -120z"/>
            <glyph glyph-name="Aacute" unicode="&#xc1;" horiz-adv-x="740"
                   d="M608 0h56l-191 700h-59l-437 -700h61l105 172h418zM548 220h-376l264 426zM472 771h-48l1 4l96 120h65v-1z"/>
            <glyph glyph-name="Acircumflex" unicode="&#xc2;" horiz-adv-x="740"
                   d="M608 0h56l-191 700h-59l-437 -700h61l105 172h418zM548 220h-376l264 426zM293 766l166 132h40l118 -132l-1 -7h-50l-93 100l-126 -100h-55z"/>
            <glyph glyph-name="Atilde" unicode="&#xc3;" horiz-adv-x="740"
                   d="M664 0h-56l-47 172h-418l-105 -172h-61l437 700h59zM172 220h376l-112 426zM367 785l-32 11q12 44 51 59.5t71 -4.5l37 -22q15 -10 35.5 -2.5t30.5 31.5l32 -11q-12 -45 -50.5 -61t-70.5 4l-38 22q-15 10 -35.5 3t-30.5 -30z"/>
            <glyph glyph-name="Adieresis" unicode="&#xc4;" horiz-adv-x="740"
                   d="M608 0h56l-191 700h-59l-437 -700h61l105 172h418zM548 220h-376l264 426zM317 804q0 21 14.5 33.5t32.5 12.5q14 0 23.5 -8.5t9.5 -23.5q0 -21 -13.5 -33.5t-32.5 -12.5q-34 0 -34 32zM534 804q0 21 14.5 33.5t32.5 12.5q14 0 23.5 -8.5t9.5 -23.5q0 -21 -13.5 -33.5
t-32.5 -12.5q-34 0 -34 32z"/>
            <glyph glyph-name="Aring" unicode="&#xc5;" horiz-adv-x="740"
                   d="M354 770q0 53 37.5 83.5t86.5 30.5q38 0 65 -21t27 -60q0 -42 -26.5 -71.5t-68.5 -39.5l189 -692h-58l-47 172h-418l-106 -172h-58l433 693q-56 14 -56 77zM171 222h376l-113 426zM470 846q-32 0 -51 -21.5t-19 -47.5q0 -21 12.5 -35.5t36.5 -14.5q33 0 53.5 21t20.5 47
q0 22 -13.5 36.5t-39.5 14.5z"/>
            <glyph glyph-name="AE" unicode="&#xc6;" horiz-adv-x="932"
                   d="M565 651l-49 -274h345l-8 -49h-345l-49 -277h379l-9 -51h-429l44 248h-250l-191 -248h-62l549 700h448l-8 -49h-365zM452 297l64 362h-5l-280 -362h221z"/>
            <glyph glyph-name="Ccedilla" unicode="&#xc7;" horiz-adv-x="713"
                   d="M301 -96l-5 5l36 84q-133 9 -203.5 91.5t-70.5 203.5q0 107 50 201.5t150 156.5t230 62q150 0 236 -105l-42 -32q-74 89 -202 89q-147 0 -244 -89.5t-119 -222.5q-21 -130 44 -218t210 -88q128 0 234 89l30 -34q-120 -102 -265 -105l-22 -53q39 2 61.5 -13.5t23.5 -38.5
t-8 -49q-15 -35 -47.5 -53.5t-68.5 -18.5q-32 0 -58.5 14t-36.5 40l34 28q20 -39 68 -39q52 0 70 38q14 30 -8.5 49t-76.5 8z"/>
            <glyph glyph-name="Egrave" unicode="&#xc8;" horiz-adv-x="648"
                   d="M214 650l-48 -273h410l-8 -49h-410l-49 -276h442l-9 -52h-495l123 700h483l-9 -50h-430zM475 781h-45l-60 123v1h62l44 -120z"/>
            <glyph glyph-name="Eacute" unicode="&#xc9;" horiz-adv-x="648"
                   d="M166 377l48 273h430l9 50h-483l-123 -700h495l9 52h-442l49 276h410l8 49h-410zM441 778h-48l1 4l96 120h65v-1z"/>
            <glyph glyph-name="Ecircumflex" unicode="&#xca;" horiz-adv-x="648"
                   d="M166 377l48 273h430l9 50h-483l-123 -700h495l9 52h-442l49 276h410l8 49h-410zM273 780l166 132h40l118 -132l-1 -7h-50l-93 100l-126 -100h-55z"/>
            <glyph glyph-name="Edieresis" unicode="&#xcb;" horiz-adv-x="648"
                   d="M166 377l48 273h430l9 50h-483l-123 -700h495l9 52h-442l49 276h410l8 49h-410zM301 811q0 21 14.5 33.5t32.5 12.5q14 0 23.5 -8.5t9.5 -23.5q0 -21 -13.5 -33.5t-32.5 -12.5q-34 0 -34 32zM518 811q0 21 14.5 33.5t32.5 12.5q14 0 23.5 -8.5t9.5 -23.5
q0 -21 -13.5 -33.5t-32.5 -12.5q-34 0 -34 32z"/>
            <glyph glyph-name="Igrave" unicode="&#xcc;" horiz-adv-x="251"
                   d="M100 0h-53l123 700h53zM232 778h-45l-60 123v1h62l44 -120z"/>
            <glyph glyph-name="Iacute" unicode="&#xcd;" horiz-adv-x="251"
                   d="M47 0h53l123 700h-53zM230 777h-48l1 4l96 120h65v-1z"/>
            <glyph glyph-name="Icircumflex" unicode="&#xce;" horiz-adv-x="251"
                   d="M47 0h53l123 700h-53zM50 767l149 131h36l106 -131l-1 -7h-45l-83 99l-113 -99h-50z"/>
            <glyph glyph-name="Idieresis" unicode="&#xcf;" horiz-adv-x="251"
                   d="M96 803q0 21 14 33.5t33 12.5q14 0 24 -8.5t10 -23.5q0 -21 -14 -33.5t-33 -12.5q-14 0 -24 8.5t-10 23.5zM254 803q0 21 14 33.5t33 12.5q14 0 24 -8.5t10 -23.5q0 -21 -14 -33.5t-33 -12.5q-14 0 -24 8.5t-10 23.5zM47 0h53l123 700h-53z"/>
            <glyph glyph-name="Eth" unicode="&#xd0;" horiz-adv-x="753"
                   d="M36 322l8 44h74l59 334h237q76 0 134.5 -24.5t93.5 -66t53 -93t18 -109.5q0 -74 -28.5 -145.5t-80 -130.5t-134 -95t-180.5 -36h-237l57 322h-74zM405 652h-183l-50 -286h163l-8 -44h-163l-48 -270h183q84 0 154 31.5t113.5 82t67.5 111.5t24 124q0 51 -13 94t-41 79.5
t-78.5 57t-120.5 20.5z"/>
            <glyph glyph-name="Ntilde" unicode="&#xd1;" horiz-adv-x="745"
                   d="M170 700h23l369 -579l102 579h53l-123 -700h-21l-370 584l-102 -584h-54zM364 782l-32 11q12 44 51 59.5t71 -4.5l37 -22q15 -10 35.5 -2.5t30.5 31.5l32 -11q-12 -45 -50.5 -61t-70.5 4l-38 22q-15 10 -35.5 3t-30.5 -30z"/>
            <glyph glyph-name="Ograve" unicode="&#xd2;" horiz-adv-x="814"
                   d="M481 711q86 0 148 -29.5t95 -80.5t44.5 -115t1.5 -137q-20 -148 -133 -254.5t-283 -106.5q-78 0 -137 24.5t-92.5 67.5t-50 95.5t-16.5 114.5q0 79 28.5 154t81 135t134 96t179.5 36zM472 661q-119 0 -208.5 -64.5t-127 -163t-19.5 -203.5q15 -86 75.5 -139t169.5 -53
q108 0 192 55t126.5 137.5t43.5 173.5q2 120 -61.5 188.5t-190.5 68.5zM518 783h-45l-60 123v1h62l44 -120z"/>
            <glyph glyph-name="Oacute" unicode="&#xd3;" horiz-adv-x="814"
                   d="M481 711q-98 0 -179.5 -36t-134 -96t-81 -135t-28.5 -154q0 -62 16.5 -114.5t50 -95.5t92.5 -67.5t137 -24.5q170 0 283 106.5t133 254.5q10 73 -1.5 137t-44.5 115t-95 80.5t-148 29.5zM472 661q127 0 190.5 -68.5t61.5 -188.5q-1 -91 -43.5 -173.5t-126.5 -137.5
t-192 -55q-109 0 -169.5 53t-75.5 139q-18 105 19.5 203.5t127 163t208.5 64.5zM514 783h-48l1 4l96 120h65v-1z"/>
            <glyph glyph-name="Ocircumflex" unicode="&#xd4;" horiz-adv-x="814"
                   d="M481 711q-98 0 -179.5 -36t-134 -96t-81 -135t-28.5 -154q0 -62 16.5 -114.5t50 -95.5t92.5 -67.5t137 -24.5q170 0 283 106.5t133 254.5q10 73 -1.5 137t-44.5 115t-95 80.5t-148 29.5zM472 661q127 0 190.5 -68.5t61.5 -188.5q-1 -91 -43.5 -173.5t-126.5 -137.5
t-192 -55q-109 0 -169.5 53t-75.5 139q-18 105 19.5 203.5t127 163t208.5 64.5zM339 786l166 132h40l118 -132l-1 -7h-50l-93 100l-126 -100h-55z"/>
            <glyph glyph-name="Otilde" unicode="&#xd5;" horiz-adv-x="814"
                   d="M481 711q86 0 148 -29.5t95 -80.5t44.5 -115t1.5 -137q-20 -148 -133 -254.5t-283 -106.5q-78 0 -137 24.5t-92.5 67.5t-50 95.5t-16.5 114.5q0 79 28.5 154t81 135t134 96t179.5 36zM472 661q-119 0 -208.5 -64.5t-127 -163t-19.5 -203.5q15 -86 75.5 -139t169.5 -53
q108 0 192 55t126.5 137.5t43.5 173.5q2 120 -61.5 188.5t-190.5 68.5zM421 798l-34 11q13 44 54 59.5t74 -4.5l39 -22q16 -10 37 -2.5t32 31.5l33 -11q-12 -45 -52.5 -61t-73.5 4l-40 22q-16 10 -37.5 3t-31.5 -30z"/>
            <glyph glyph-name="Odieresis" unicode="&#xd6;" horiz-adv-x="814"
                   d="M481 711q-98 0 -179.5 -36t-134 -96t-81 -135t-28.5 -154q0 -62 16.5 -114.5t50 -95.5t92.5 -67.5t137 -24.5q170 0 283 106.5t133 254.5q10 73 -1.5 137t-44.5 115t-95 80.5t-148 29.5zM472 661q127 0 190.5 -68.5t61.5 -188.5q-1 -91 -43.5 -173.5t-126.5 -137.5
t-192 -55q-109 0 -169.5 53t-75.5 139q-18 105 19.5 203.5t127 163t208.5 64.5zM359 815q0 21 14.5 33.5t32.5 12.5q14 0 23.5 -8.5t9.5 -23.5q0 -21 -13.5 -33.5t-32.5 -12.5q-34 0 -34 32zM576 815q0 21 14.5 33.5t32.5 12.5q14 0 23.5 -8.5t9.5 -23.5q0 -21 -13.5 -33.5
t-32.5 -12.5q-34 0 -34 32z"/>
            <glyph glyph-name="multiply" unicode="&#xd7;" horiz-adv-x="453"
                   d="M97 447l37 31l102 -123l144 122l28 -35l-144 -123l101 -121l-36 -31l-102 121l-149 -127l-28 35l149 128z"/>
            <glyph glyph-name="Oslash" unicode="&#xd8;" horiz-adv-x="815"
                   d="M138 -79h-53l86 116q-56 38 -84.5 106t-28.5 147t28.5 154t81 135t134 96t179.5 36q97 0 163 -38l66 88h54l-84 -111q48 -38 72.5 -101.5t24.5 -136.5q0 -78 -29 -153t-81.5 -136t-134 -98t-178.5 -37q-79 0 -145 28zM472 661q-83 0 -152.5 -31t-114 -82t-69 -116
t-24.5 -134q0 -66 23.5 -124t69.5 -91l407 546q-61 32 -140 32zM363 38q82 0 151.5 32t114.5 84t70 117t25 132q0 134 -77 201l-404 -543q51 -23 120 -23z"/>
            <glyph glyph-name="Ugrave" unicode="&#xd9;" horiz-adv-x="719"
                   d="M646 700h53l-77 -435q-24 -136 -109.5 -205t-211.5 -69q-108 0 -173 72t-42 202l77 435h53l-77 -435q-19 -108 29.5 -166.5t141.5 -58.5q97 0 168 56.5t91 168.5zM476 774h-45l-60 123v1h62l44 -120z"/>
            <glyph glyph-name="Uacute" unicode="&#xda;" horiz-adv-x="719"
                   d="M699 700h-53l-77 -435q-20 -112 -91 -168.5t-168 -56.5q-93 0 -141.5 58.5t-29.5 166.5l77 435h-53l-77 -435q-23 -130 42 -202t173 -72q126 0 211.5 69t109.5 205zM443 775h-48l1 4l96 120h65v-1z"/>
            <glyph glyph-name="Ucircumflex" unicode="&#xdb;" horiz-adv-x="719"
                   d="M699 700h-53l-77 -435q-20 -112 -91 -168.5t-168 -56.5q-93 0 -141.5 58.5t-29.5 166.5l77 435h-53l-77 -435q-23 -130 42 -202t173 -72q126 0 211.5 69t109.5 205zM281 777l166 132h40l118 -132l-1 -7h-50l-93 100l-126 -100h-55z"/>
            <glyph glyph-name="Udieresis" unicode="&#xdc;" horiz-adv-x="719"
                   d="M699 700h-53l-77 -435q-20 -112 -91 -168.5t-168 -56.5q-93 0 -141.5 58.5t-29.5 166.5l77 435h-53l-77 -435q-23 -130 42 -202t173 -72q126 0 211.5 69t109.5 205zM305 812q0 21 14.5 33.5t32.5 12.5q14 0 23.5 -8.5t9.5 -23.5q0 -21 -13.5 -33.5t-32.5 -12.5
q-34 0 -34 32zM522 812q0 21 14.5 33.5t32.5 12.5q14 0 23.5 -8.5t9.5 -23.5q0 -21 -13.5 -33.5t-32.5 -12.5q-34 0 -34 32z"/>
            <glyph glyph-name="Yacute" unicode="&#xdd;" horiz-adv-x="657"
                   d="M295 280l-49 -280h54l49 280l348 419v1h-63l-306 -370l-170 370h-62v-1zM418 777h-48l1 4l96 120h65v-1z"/>
            <glyph glyph-name="Thorn" unicode="&#xde;" horiz-adv-x="673"
                   d="M48 0l123 699h50l-21 -122h257q125 0 171 -93q41 -81 4 -182q-37 -103 -129 -152q-58 -31 -127 -31h-256l-21 -119h-51zM448 529h-255l-64 -361h256q105 0 168 87q53 72 42 153q-10 84 -84 111q-28 10 -63 10z"/>
            <glyph glyph-name="germandbls" unicode="&#xdf;" horiz-adv-x="605"
                   d="M214 357l8 44h81q42 0 79 9t73 40t45 81q13 76 -30.5 105.5t-112.5 29.5q-154 0 -187 -149l-91 -517h-51l91 518q16 95 84.5 144t159.5 49q92 0 142.5 -41t46.5 -123q-3 -59 -45 -106t-100 -60q66 -14 100 -56t34 -104q0 -84 -39.5 -140.5t-99 -77.5t-126 -19t-123.5 28
l8 46q53 -28 111.5 -30.5t106 17t79 64.5t31.5 107q0 141 -190 141h-85z"/>
            <glyph glyph-name="agrave" unicode="&#xe0;" horiz-adv-x="631"
                   d="M541 494h45q-15 -82 -44 -247t-43 -247h-47l18 105q-79 -113 -223 -113q-94 0 -152.5 59.5t-58.5 154.5q0 127 87.5 210.5t212.5 83.5q63 0 114 -29.5t70 -84.5zM328 453q-104 0 -173 -67.5t-69 -172.5q0 -79 45.5 -126t123.5 -47q121 0 193 94q60 79 53 171
q-8 93 -85 130q-38 18 -88 18zM392 584h-45l-60 123v1h62l44 -120z"/>
            <glyph glyph-name="aacute" unicode="&#xe1;" horiz-adv-x="631"
                   d="M586 494h-45l-21 -108q-19 55 -70 84.5t-114 29.5q-125 0 -212.5 -83.5t-87.5 -210.5q0 -95 58.5 -154.5t152.5 -59.5q144 0 223 113l-18 -105h47q14 82 43 247t44 247zM328 453q115 0 156 -87q37 -76 0 -169q-38 -95 -126 -135q-48 -22 -103 -22q-78 0 -123.5 47
t-45.5 126q0 105 69 172.5t173 67.5zM368 582h-48l1 4l96 120h65v-1z"/>
            <glyph glyph-name="acircumflex" unicode="&#xe2;" horiz-adv-x="631"
                   d="M586 494h-45l-21 -108q-19 55 -70 84.5t-114 29.5q-125 0 -212.5 -83.5t-87.5 -210.5q0 -95 58.5 -154.5t152.5 -59.5q144 0 223 113l-18 -105h47q14 82 43 247t44 247zM328 453q115 0 156 -87q37 -76 0 -169q-38 -95 -126 -135q-48 -22 -103 -22q-78 0 -123.5 47
t-45.5 126q0 105 69 172.5t173 67.5zM232 579l155 124h38l110 -124l-1 -6h-47l-86 93l-118 -93h-52z"/>
            <glyph glyph-name="atilde" unicode="&#xe3;" horiz-adv-x="631"
                   d="M541 494h45q-15 -82 -44 -247t-43 -247h-47l18 105q-79 -113 -223 -113q-94 0 -152.5 59.5t-58.5 154.5q0 127 87.5 210.5t212.5 83.5q63 0 114 -29.5t70 -84.5zM328 453q-104 0 -173 -67.5t-69 -172.5q0 -79 45.5 -126t123.5 -47q121 0 193 94q60 79 53 171
q-8 93 -85 130q-38 18 -88 18zM294 615l-32 11q12 44 51 59.5t71 -4.5l37 -22q15 -10 35.5 -2.5t30.5 31.5l32 -11q-12 -45 -50.5 -61t-70.5 4l-38 22q-15 10 -35.5 3t-30.5 -30z"/>
            <glyph glyph-name="adieresis" unicode="&#xe4;" horiz-adv-x="631"
                   d="M586 494h-45l-21 -108q-19 55 -70 84.5t-114 29.5q-125 0 -212.5 -83.5t-87.5 -210.5q0 -95 58.5 -154.5t152.5 -59.5q144 0 223 113l-18 -105h47q14 82 43 247t44 247zM328 453q115 0 156 -87q37 -76 0 -169q-38 -95 -126 -135q-48 -22 -103 -22q-78 0 -123.5 47
t-45.5 126q0 105 69 172.5t173 67.5zM250 653q0 21 14.5 33.5t32.5 12.5q14 0 23.5 -8.5t9.5 -23.5q0 -21 -13.5 -33.5t-32.5 -12.5q-34 0 -34 32zM467 653q0 21 14.5 33.5t32.5 12.5q14 0 23.5 -8.5t9.5 -23.5q0 -21 -13.5 -33.5t-32.5 -12.5q-34 0 -34 32z"/>
            <glyph glyph-name="aring" unicode="&#xe5;" horiz-adv-x="631"
                   d="M541 494h45q-15 -82 -44 -247t-43 -247h-47l18 105q-79 -113 -223 -113q-94 0 -152.5 59.5t-58.5 154.5q0 127 87.5 210.5t212.5 83.5q63 0 114 -29.5t70 -84.5zM328 453q-104 0 -173 -67.5t-69 -172.5q0 -79 45.5 -126t123.5 -47q121 0 193 94q60 79 53 171
q-8 93 -85 130q-38 18 -88 18zM282 641q0 46 37.5 75.5t84.5 29.5q37 0 63.5 -20t26.5 -55q0 -47 -36 -74.5t-89 -27.5q-41 0 -64 19.5t-23 52.5zM396 713q-32 0 -52 -19.5t-20 -43.5q0 -20 13 -33t39 -13q35 0 54.5 18.5t19.5 43.5q0 19 -13.5 33t-40.5 14z"/>
            <glyph glyph-name="ae" unicode="&#xe6;" horiz-adv-x="1031"
                   d="M693 -6q-66 0 -113.5 29.5t-68.5 84.5l-18 -108h-41l18 105q-89 -112 -224 -112q-97 0 -154 58.5t-57 154.5q0 126 90 210t210 84q63 0 114.5 -29.5t70.5 -84.5l18 108h41l-20 -104q40 52 99 82t124 30q114 0 173 -71t22 -207h-447q-7 -84 42.5 -135t128.5 -51
q51 0 104.5 21t86.5 57l30 -28q-87 -94 -229 -94zM327 453q-97 0 -169.5 -68.5t-72.5 -171.5q0 -80 43.5 -126.5t125.5 -46.5q121 0 194 94q60 79 52 171q-8 93 -85 130q-38 18 -88 18zM538 267h403q16 92 -26.5 142t-139.5 50q-79 0 -146.5 -52t-90.5 -140z"/>
            <glyph glyph-name="ccedilla" unicode="&#xe7;" horiz-adv-x="521"
                   d="M184 -88l-6 5l33 81q-79 11 -127 66t-48 141q0 130 89 212t214 82q105 0 167 -74l-37 -31q-49 59 -138 59q-100 0 -173 -66t-73 -176q0 -80 48.5 -125t124.5 -45q86 0 158 61l27 -33q-87 -74 -193 -74h-1l-19 -48q56 -1 73.5 -31t3.5 -73q-12 -37 -54 -55.5t-88 -7.5
t-68 49l29 25q25 -36 74 -37t68 38q14 30 -8 49t-76 8z"/>
            <glyph glyph-name="egrave" unicode="&#xe8;" horiz-adv-x="585"
                   d="M246 -8q-93 0 -152.5 58.5t-58.5 153.5q2 126 91 212t210 86q114 0 173 -71t22 -207h-447q-8 -85 39.5 -135.5t130.5 -50.5q51 0 105 20.5t87 56.5l30 -28q-43 -46 -105.5 -70.5t-124.5 -24.5zM91 268h404q16 92 -26.5 140.5t-140.5 48.5q-80 0 -146.5 -50.5
t-90.5 -138.5zM393 577h-45l-60 123v1h62l44 -120z"/>
            <glyph glyph-name="eacute" unicode="&#xe9;" horiz-adv-x="585"
                   d="M246 -8q62 0 124.5 24.5t105.5 70.5l-30 28q-33 -36 -87 -56.5t-105 -20.5q-83 0 -130.5 50.5t-39.5 135.5h447q37 136 -22 207t-173 71q-121 0 -210 -86t-91 -212q-1 -95 58.5 -153.5t152.5 -58.5zM91 268q24 88 90.5 138.5t146.5 50.5q98 0 140.5 -48.5t26.5 -140.5
h-404zM363 577h-48l1 4l96 120h65v-1z"/>
            <glyph glyph-name="ecircumflex" unicode="&#xea;" horiz-adv-x="585"
                   d="M246 -8q62 0 124.5 24.5t105.5 70.5l-30 28q-33 -36 -87 -56.5t-105 -20.5q-83 0 -130.5 50.5t-39.5 135.5h447q37 136 -22 207t-173 71q-121 0 -210 -86t-91 -212q-1 -95 58.5 -153.5t152.5 -58.5zM91 268q24 88 90.5 138.5t146.5 50.5q98 0 140.5 -48.5t26.5 -140.5
h-404zM193 569l166 132h40l118 -132l-1 -7h-50l-93 100l-126 -100h-55z"/>
            <glyph glyph-name="edieresis" unicode="&#xeb;" horiz-adv-x="585"
                   d="M246 -8q62 0 124.5 24.5t105.5 70.5l-30 28q-33 -36 -87 -56.5t-105 -20.5q-83 0 -130.5 50.5t-39.5 135.5h447q37 136 -22 207t-173 71q-121 0 -210 -86t-91 -212q-1 -95 58.5 -153.5t152.5 -58.5zM91 268q24 88 90.5 138.5t146.5 50.5q98 0 140.5 -48.5t26.5 -140.5
h-404zM214 642q0 21 14.5 33.5t32.5 12.5q14 0 23.5 -8.5t9.5 -23.5q0 -21 -13.5 -33.5t-32.5 -12.5q-34 0 -34 32zM431 642q0 21 14.5 33.5t32.5 12.5q14 0 23.5 -8.5t9.5 -23.5q0 -21 -13.5 -33.5t-32.5 -12.5q-34 0 -34 32z"/>
            <glyph glyph-name="igrave" unicode="&#xec;" horiz-adv-x="209"
                   d="M181 580h-46l-45 120v1h56l36 -117zM115 496h49l-87 -496h-49z"/>
            <glyph glyph-name="iacute" unicode="&#xed;" horiz-adv-x="209"
                   d="M171 580h-46l1 4l76 117h56v-1zM164 496h-49l-87 -496h49z"/>
            <glyph glyph-name="icircumflex" unicode="&#xee;" horiz-adv-x="209"
                   d="M45 581l119 120h31l72 -120l-1 -7h-42l-52 84l-85 -84h-43zM164 496h-49l-87 -496h49z"/>
            <glyph glyph-name="idieresis" unicode="&#xef;" horiz-adv-x="209"
                   d="M61 652q0 20 14 31t31 11q14 0 23 -8t9 -22q0 -20 -13.5 -31t-30.5 -11q-33 0 -33 30zM198 652q0 20 14 31t31 11q14 0 23 -8t9 -22q0 -20 -13.5 -31t-30.5 -11q-33 0 -33 30zM164 496h-49l-87 -496h49z"/>
            <glyph glyph-name="eth" unicode="&#xf0;" horiz-adv-x="608"
                   d="M454 716l28 -22l-57 -66q66 -50 99 -131t33 -168q0 -154 -86.5 -247t-222.5 -93q-137 0 -190 99q-45 85 -9 193q36 110 134 167q69 40 153 40q49 0 99 -24.5t77 -74.5q-7 59 -36 115t-84 91l-52 -63l-28 22l51 62q-49 30 -96 43l21 39q61 -21 107 -50zM256 35
q120 0 192 94q59 78 51 168q-9 92 -85 128q-37 18 -86 18q-120 0 -192 -94q-60 -78 -51 -168q8 -92 85 -129q37 -17 86 -17z"/>
            <glyph glyph-name="ntilde" unicode="&#xf1;"
                   d="M115 494h48l-15 -88q70 95 193 97q102 0 152 -58t32 -160l-50 -285h-49l50 284q15 84 -22 128t-124 43q-76 -1 -133.5 -52t-71.5 -128l-48 -275h-49zM269 625l-32 10q12 41 51 55.5t71 -4.5l37 -21q15 -9 35.5 -2t30.5 29l31 -10q-12 -41 -50 -56.5t-70 3.5l-38 21
q-15 9 -35.5 2.5t-30.5 -27.5z"/>
            <glyph glyph-name="ograve" unicode="&#xf2;"
                   d="M246 -8q-94 0 -152.5 57t-58.5 153q0 130 89.5 215t211.5 85q93 0 152 -58.5t59 -155.5q0 -131 -89.5 -213.5t-211.5 -82.5zM255 40q99 0 171 67t72 174q0 79 -47.5 127t-122.5 48q-98 0 -171 -70t-73 -176q0 -78 47.5 -124t123.5 -46zM385 586h-45l-60 119v1h62l44 -116
z"/>
            <glyph glyph-name="oacute" unicode="&#xf3;"
                   d="M246 -8q122 0 211.5 82.5t89.5 213.5q0 97 -59 155.5t-152 58.5q-122 0 -211.5 -85t-89.5 -215q0 -96 58.5 -153t152.5 -57zM255 40q-76 0 -123.5 46t-47.5 124q0 106 73 176t171 70q75 0 122.5 -48t47.5 -127q0 -107 -72 -174t-171 -67zM367 580h-46l1 4l92 112h63v-1z
"/>
            <glyph glyph-name="ocircumflex" unicode="&#xf4;"
                   d="M246 -8q122 0 211.5 82.5t89.5 213.5q0 97 -59 155.5t-152 58.5q-122 0 -211.5 -85t-89.5 -215q0 -96 58.5 -153t152.5 -57zM255 40q-76 0 -123.5 46t-47.5 124q0 106 73 176t171 70q75 0 122.5 -48t47.5 -127q0 -107 -72 -174t-171 -67zM195 579l166 132h40l118 -132
l-1 -7h-50l-93 100l-126 -100h-55z"/>
            <glyph glyph-name="otilde" unicode="&#xf5;"
                   d="M246 -8q-94 0 -152.5 57t-58.5 153q0 130 89.5 215t211.5 85q93 0 152 -58.5t59 -155.5q0 -131 -89.5 -213.5t-211.5 -82.5zM255 40q99 0 171 67t72 174q0 79 -47.5 127t-122.5 48q-98 0 -171 -70t-73 -176q0 -78 47.5 -124t123.5 -46zM277 622l-32 10q12 42 51 57.5
t71 -4.5l37 -21q15 -10 35.5 -2.5t30.5 30.5l33 -10q-12 -44 -51 -59.5t-71 4.5l-38 21q-15 10 -35.5 3.5t-30.5 -29.5z"/>
            <glyph glyph-name="odieresis" unicode="&#xf6;"
                   d="M246 -8q122 0 211.5 82.5t89.5 213.5q0 97 -59 155.5t-152 58.5q-122 0 -211.5 -85t-89.5 -215q0 -96 58.5 -153t152.5 -57zM255 40q-76 0 -123.5 46t-47.5 124q0 106 73 176t171 70q75 0 122.5 -48t47.5 -127q0 -107 -72 -174t-171 -67zM220 636q0 21 14.5 33.5
t32.5 12.5q14 0 23.5 -8.5t9.5 -23.5q0 -21 -13.5 -33.5t-32.5 -12.5q-34 0 -34 32zM437 636q0 21 14.5 33.5t32.5 12.5q14 0 23.5 -8.5t9.5 -23.5q0 -21 -13.5 -33.5t-32.5 -12.5q-34 0 -34 32z"/>
            <glyph glyph-name="divide" unicode="&#xf7;" horiz-adv-x="558"
                   d="M87 359l-9 -50h404l9 50h-404zM273 477q0 21 14.5 33.5t33.5 12.5q14 0 23.5 -8.5t9.5 -23.5q0 -21 -15 -33.5t-33 -12.5q-14 0 -23.5 8.5t-9.5 23.5zM219 173q0 21 15 33.5t33 12.5q14 0 23.5 -8.5t9.5 -23.5q0 -21 -14.5 -33.5t-33.5 -12.5q-14 0 -23.5 8.5t-9.5 23.5z
"/>
            <glyph glyph-name="oslash" unicode="&#xf8;"
                   d="M247 -7q-62 0 -106 22l-53 -69h-50l70 90q-72 54 -72 167q0 130 89.5 215t211.5 85q63 0 112 -26l47 62h51l-66 -85q67 -56 67 -165q0 -131 -89.5 -213.5t-211.5 -82.5zM329 457q-98 0 -171 -70t-73 -176q0 -94 53 -136l281 365q-31 17 -90 17zM256 41q99 0 171 67
t72 173q0 92 -47 136l-280 -363q28 -13 84 -13z"/>
            <glyph glyph-name="ugrave" unicode="&#xf9;" horiz-adv-x="601"
                   d="M469 0h-48l16 89q-71 -96 -193 -96q-101 0 -152 58t-33 159l50 285h49l-50 -284q-15 -84 22 -128t124 -44q76 0 133.5 52t71.5 129l48 275h49zM384 577h-45l-60 123v1h62l44 -120z"/>
            <glyph glyph-name="uacute" unicode="&#xfa;" horiz-adv-x="601"
                   d="M421 0h48l87 495h-49l-48 -275q-14 -77 -71.5 -129t-133.5 -52q-87 0 -124 44t-22 128l50 284h-49l-50 -285q-18 -101 33 -159t152 -58q122 0 193 96zM345 577h-48l1 4l96 120h65v-1z"/>
            <glyph glyph-name="ucircumflex" unicode="&#xfb;" horiz-adv-x="601"
                   d="M421 0h48l87 495h-49l-48 -275q-14 -77 -71.5 -129t-133.5 -52q-87 0 -124 44t-22 128l50 284h-49l-50 -285q-18 -101 33 -159t152 -58q122 0 193 96zM194 574l161 127h38l114 -127l-1 -7h-48l-90 96l-121 -96h-54z"/>
            <glyph glyph-name="udieresis" unicode="&#xfc;" horiz-adv-x="601"
                   d="M421 0h48l87 495h-49l-48 -275q-14 -77 -71.5 -129t-133.5 -52q-87 0 -124 44t-22 128l50 284h-49l-50 -285q-18 -101 33 -159t152 -58q122 0 193 96zM216 654q0 21 14.5 33.5t32.5 12.5q14 0 23.5 -8.5t9.5 -23.5q0 -21 -13.5 -33.5t-32.5 -12.5q-34 0 -34 32zM433 654
q0 21 14.5 33.5t32.5 12.5q14 0 23.5 -8.5t9.5 -23.5q0 -21 -13.5 -33.5t-32.5 -12.5q-34 0 -34 32z"/>
            <glyph glyph-name="yacute" unicode="&#xfd;" horiz-adv-x="598"
                   d="M417 -19q-17 -97 -74 -143t-137 -46q-79 0 -116 32t-30 98h-44q-10 -83 35.5 -129.5t146.5 -46.5q107 0 175.5 58.5t89.5 177.5l90 512h-49l-48 -274q-14 -77 -71 -128.5t-133 -52.5q-87 -1 -124 43.5t-22 128.5l50 283h-49l-50 -284q-18 -101 33 -159.5t151 -58.5
q126 2 196 97zM346 584h-45l1 4l90 113h62v-1z"/>
            <glyph glyph-name="thorn" unicode="&#xfe;" horiz-adv-x="632"
                   d="M38 -206h-47l160 905h46l-56 -314q81 116 237 116q89 -3 144.5 -58t55.5 -150q0 -139 -86.5 -220.5t-214.5 -81.5q-63 0 -113 31.5t-70 91.5zM285 38q102 0 172.5 66.5t70.5 182.5q0 81 -47 124t-123 43q-98 0 -169 -70t-71 -172q0 -77 46 -125.5t121 -48.5z"/>
            <glyph glyph-name="ydieresis" unicode="&#xff;" horiz-adv-x="598"
                   d="M417 -19q-17 -97 -74 -143t-137 -46q-79 0 -116 32t-30 98h-44q-10 -83 35.5 -129.5t146.5 -46.5q107 0 175.5 58.5t89.5 177.5l90 512h-49l-48 -274q-14 -77 -71 -128.5t-133 -52.5q-87 -1 -124 43.5t-22 128.5l50 283h-49l-50 -284q-18 -101 33 -159.5t151 -58.5
q126 2 196 97zM219 653q0 20 14 32t31 12q13 0 22 -8.5t9 -22.5q0 -20 -13 -32t-30 -12q-33 0 -33 31zM426 653q0 20 14 32t31 12q13 0 22 -8.5t9 -22.5q0 -20 -13 -32t-31 -12q-14 0 -23 8t-9 23z"/>
            <glyph glyph-name="Amacron" unicode="&#x100;" horiz-adv-x="740"
                   d="M664 0h-56l-47 172h-418l-105 -172h-61l437 700h59zM172 220h376l-112 426zM307 784l7 45h295l-7 -45h-295z"/>
            <glyph glyph-name="amacron" unicode="&#x101;" horiz-adv-x="631"
                   d="M541 494h45q-15 -82 -44 -247t-43 -247h-47l18 105q-79 -113 -223 -113q-94 0 -152.5 59.5t-58.5 154.5q0 127 87.5 210.5t212.5 83.5q63 0 114 -29.5t70 -84.5zM328 453q-104 0 -173 -67.5t-69 -172.5q0 -79 45.5 -126t123.5 -47q121 0 193 94q60 79 53 171
q-8 93 -85 130q-38 18 -88 18zM233 630l7 45h295l-7 -45h-295z"/>
            <glyph glyph-name="Abreve" unicode="&#x102;" horiz-adv-x="740"
                   d="M664 0h-56l-47 172h-418l-105 -172h-61l437 700h59zM172 220h376l-112 426zM562 893h42q-11 -58 -49 -90.5t-96 -32.5q-61 0 -89.5 32.5t-17.5 90.5h40q-16 -83 71 -83q83 0 99 83z"/>
            <glyph glyph-name="abreve" unicode="&#x103;" horiz-adv-x="631"
                   d="M541 494h45q-15 -82 -44 -247t-43 -247h-47l18 105q-79 -113 -223 -113q-94 0 -152.5 59.5t-58.5 154.5q0 127 87.5 210.5t212.5 83.5q63 0 114 -29.5t70 -84.5zM328 453q-104 0 -173 -67.5t-69 -172.5q0 -79 45.5 -126t123.5 -47q121 0 193 94q60 79 53 171
q-8 93 -85 130q-38 18 -88 18zM484 700h42q-11 -58 -49 -90.5t-96 -32.5q-61 0 -89.5 32.5t-17.5 90.5h40q-16 -83 71 -83q83 0 99 83z"/>
            <glyph glyph-name="Aogonek" unicode="&#x104;" horiz-adv-x="740"
                   d="M571 -115q57 2 95 50l28 -18q-41 -64 -125 -71q-76 -6 -97 44q-17 43 17 88q38 49 109 54l-39 140h-418l-106 -172h-58l437 700h59l191 -700q-40 2 -67 -2q-60 -8 -81 -49q-17 -33 9 -53q16 -12 46 -11zM171 222h376l-113 426z"/>
            <glyph glyph-name="aogonek" unicode="&#x105;" horiz-adv-x="631"
                   d="M328 453q-97 0 -169.5 -68.5t-72.5 -171.5q0 -80 44 -126.5t125 -46.5q121 0 193 94q60 79 53 171q-8 93 -85 130q-38 18 -88 18zM586 494l-92 -524q-77 6 -109 -38q-23 -31 -3 -56q15 -18 49 -17q57 2 95 50l29 -18q-21 -32 -56.5 -50t-71.5 -20q-75 -3 -94 46
q-17 42 22 85q34 39 95 49l18 104q-90 -113 -221 -113q-97 0 -154 59t-57 155q0 127 88.5 210.5t211.5 83.5q63 0 113 -29t69 -85l19 108h49z"/>
            <glyph glyph-name="Cacute" unicode="&#x106;" horiz-adv-x="715"
                   d="M637 93l-32 38q-46 -42 -109.5 -65t-124.5 -23q-145 0 -210 87.5t-44 217.5q22 134 117.5 223t245.5 89q127 0 202 -90l42 33q-86 105 -236 105q-100 0 -183 -36t-136 -95.5t-82 -134t-29 -154.5q0 -128 78 -212t226 -84q73 0 146.5 25.5t128.5 75.5zM508 783h-46l1 4
l91 114h62v-1z"/>
            <glyph glyph-name="cacute" unicode="&#x107;" horiz-adv-x="520"
                   d="M443 65l-27 34q-72 -61 -158 -61q-76 0 -124.5 46t-48.5 127q0 112 70 178.5t177 66.5q90 0 139 -59l35 31q-63 74 -166 74q-133 0 -218.5 -82.5t-85.5 -214.5q0 -96 60 -154.5t154 -58.5q108 0 193 73zM358 595h-41l1 4l82 102h56v-1z"/>
            <glyph glyph-name="Ccircumflex" unicode="&#x108;" horiz-adv-x="715"
                   d="M637 93l-32 38q-46 -42 -109.5 -65t-124.5 -23q-145 0 -210 87.5t-44 217.5q22 134 117.5 223t245.5 89q127 0 202 -90l42 33q-86 105 -236 105q-100 0 -183 -36t-136 -95.5t-82 -134t-29 -154.5q0 -128 78 -212t226 -84q73 0 146.5 25.5t128.5 75.5zM346 788l161 127h38
l114 -127l-1 -7h-48l-90 96l-121 -96h-54z"/>
            <glyph glyph-name="ccircumflex" unicode="&#x109;" horiz-adv-x="520"
                   d="M443 65l-27 34q-72 -61 -158 -61q-76 0 -124.5 46t-48.5 127q0 112 70 178.5t177 66.5q90 0 139 -59l35 31q-63 74 -166 74q-133 0 -218.5 -82.5t-85.5 -214.5q0 -96 60 -154.5t154 -58.5q108 0 193 73zM203 587l155 123h37l109 -123l-1 -6h-46l-86 92l-117 -92h-52z"/>
            <glyph glyph-name="Cdotaccent" unicode="&#x10a;" horiz-adv-x="715"
                   d="M637 93l-32 38q-46 -42 -109.5 -65t-124.5 -23q-145 0 -210 87.5t-44 217.5q22 134 117.5 223t245.5 89q127 0 202 -90l42 33q-86 105 -236 105q-100 0 -183 -36t-136 -95.5t-82 -134t-29 -154.5q0 -128 78 -212t226 -84q73 0 146.5 25.5t128.5 75.5zM468 818
q0 20 14.5 32.5t32.5 12.5q33 0 33 -32q0 -21 -14 -33.5t-31 -12.5q-14 0 -24.5 8.5t-10.5 24.5z"/>
            <glyph glyph-name="cdotaccent" unicode="&#x10b;" horiz-adv-x="520"
                   d="M443 65l-27 34q-72 -61 -158 -61q-76 0 -124.5 46t-48.5 127q0 112 70 178.5t177 66.5q90 0 139 -59l35 31q-63 74 -166 74q-133 0 -218.5 -82.5t-85.5 -214.5q0 -96 60 -154.5t154 -58.5q108 0 193 73zM325 647q0 19 13.5 30t30.5 11q31 0 31 -29q0 -20 -13 -31.5
t-29 -11.5q-14 0 -23.5 8t-9.5 23z"/>
            <glyph glyph-name="Ccaron" unicode="&#x10c;" horiz-adv-x="715"
                   d="M637 93l-32 38q-46 -42 -109.5 -65t-124.5 -23q-145 0 -210 87.5t-44 217.5q22 134 117.5 223t245.5 89q127 0 202 -90l42 33q-86 105 -236 105q-100 0 -183 -36t-136 -95.5t-82 -134t-29 -154.5q0 -128 78 -212t226 -84q73 0 146.5 25.5t128.5 75.5zM659 900l-154 -122
h-37l-110 122l1 7h48l83 -91l120 91h50z"/>
            <glyph glyph-name="ccaron" unicode="&#x10d;" horiz-adv-x="520"
                   d="M443 65l-27 34q-72 -61 -158 -61q-76 0 -124.5 46t-48.5 127q0 112 70 178.5t177 66.5q90 0 139 -59l35 31q-63 74 -166 74q-133 0 -218.5 -82.5t-85.5 -214.5q0 -96 60 -154.5t154 -58.5q108 0 193 73zM514 694l-151 -121h-37l-109 121l1 7h47l82 -91l119 91h49z"/>
            <glyph glyph-name="Dcaron" unicode="&#x10e;" horiz-adv-x="747"
                   d="M407 700h-237l-123 -700h237q100 0 182.5 36t133.5 95t79 130.5t28 145.5q0 124 -76 208.5t-224 84.5zM215 649h183q68 0 118.5 -20.5t79 -56t42.5 -78.5t14 -93q0 -63 -24 -124t-68 -111.5t-113.5 -82t-153.5 -31.5h-183zM583 900l-158 -126h-38l-114 126l1 7h50l85 -94
l124 94h51z"/>
            <glyph glyph-name="dcaron" unicode="&#x10f;" horiz-adv-x="631"
                   d="M328 455q-101 0 -172 -65.5t-71 -181.5q0 -168 170 -168q100 0 171 69.5t71 172.5q0 77 -47 125t-122 48zM574 700h48l-123 -700h-48l18 102q-79 -110 -226 -110q-93 0 -150 55t-57 153q0 138 85.5 220t212.5 82q64 0 114 -30t68 -86zM684 552h-39l66 149h51z"/>
            <glyph glyph-name="Dcroat" unicode="&#x110;" horiz-adv-x="753"
                   d="M46 327l7 43h65l59 330h237q76 0 134.5 -24.5t93.5 -66t53 -93t18 -109.5q0 -74 -28.5 -145.5t-80 -130.5t-134 -95t-180.5 -36h-237l58 327h-65zM405 649h-183l-50 -279h145l-7 -43h-145l-48 -275h183q84 0 153.5 31.5t113.5 82t68 111.5t24 124q0 105 -64 176.5
t-190 71.5z"/>
            <glyph glyph-name="dcroat" unicode="&#x111;" horiz-adv-x="631"
                   d="M574 700h48l-13 -74h78l-7 -40h-78l-103 -586h-48l19 109q-40 -55 -101.5 -86t-125.5 -31q-93 0 -150 55t-57 153q0 137 87.5 219.5t210.5 82.5q67 0 116.5 -29t68.5 -87l35 200h-110l7 40h110zM328 455q-101 0 -172 -65.5t-71 -181.5q0 -80 47 -124t123 -44
q100 0 171 69.5t71 172.5q0 77 -47 125t-122 48z"/>
            <glyph glyph-name="Emacron" unicode="&#x112;" horiz-adv-x="648"
                   d="M214 650l-48 -273h410l-8 -49h-410l-49 -276h442l-9 -52h-495l123 700h483l-9 -50h-430zM272 787l8 46h314l-8 -46h-314z"/>
            <glyph glyph-name="emacron" unicode="&#x113;" horiz-adv-x="585"
                   d="M246 -8q-93 0 -152.5 58.5t-58.5 153.5q2 126 91 212t210 86q114 0 173 -71t22 -207h-447q-8 -85 39.5 -135.5t130.5 -50.5q51 0 105 20.5t87 56.5l30 -28q-43 -46 -105.5 -70.5t-124.5 -24.5zM91 268h404q16 92 -26.5 140.5t-140.5 48.5q-80 0 -146.5 -50.5
t-90.5 -138.5zM219 652l7 42h307l-7 -42h-307z"/>
            <glyph glyph-name="Ebreve" unicode="&#x114;" horiz-adv-x="648"
                   d="M214 650l-48 -273h410l-8 -49h-410l-49 -276h442l-9 -52h-495l123 700h483l-9 -50h-430zM545 898h42q-11 -58 -49 -90.5t-96 -32.5q-61 0 -89.5 32.5t-17.5 90.5h40q-16 -83 71 -83q83 0 99 83z"/>
            <glyph glyph-name="ebreve" unicode="&#x115;" horiz-adv-x="585"
                   d="M246 -8q-93 0 -152.5 58.5t-58.5 153.5q2 126 91 212t210 86q114 0 173 -71t22 -207h-447q-8 -85 39.5 -135.5t130.5 -50.5q51 0 105 20.5t87 56.5l30 -28q-43 -46 -105.5 -70.5t-124.5 -24.5zM91 268h404q16 92 -26.5 140.5t-140.5 48.5q-80 0 -146.5 -50.5
t-90.5 -138.5zM455 700h42q-11 -58 -49 -90.5t-96 -32.5q-61 0 -89.5 32.5t-17.5 90.5h40q-16 -83 71 -83q83 0 99 83z"/>
            <glyph glyph-name="Edotaccent" unicode="&#x116;" horiz-adv-x="648"
                   d="M166 377l48 273h430l9 50h-483l-123 -700h495l9 52h-442l49 276h410l8 49h-410zM406 813q0 20 14.5 32.5t32.5 12.5q33 0 33 -32q0 -21 -14 -33.5t-31 -12.5q-15 0 -25 8.5t-10 24.5z"/>
            <glyph glyph-name="edotaccent" unicode="&#x117;" horiz-adv-x="585"
                   d="M246 -8q62 0 124.5 24.5t105.5 70.5l-30 28q-33 -36 -87 -56.5t-105 -20.5q-83 0 -130.5 50.5t-39.5 135.5h447q37 136 -22 207t-173 71q-121 0 -210 -86t-91 -212q-1 -95 58.5 -153.5t152.5 -58.5zM91 268q24 88 90.5 138.5t146.5 50.5q98 0 140.5 -48.5t26.5 -140.5
h-404zM330 661q0 20 14.5 32.5t32.5 12.5q33 0 33 -32q0 -21 -14 -33.5t-31 -12.5q-15 0 -25 8.5t-10 24.5z"/>
            <glyph glyph-name="Eogonek" unicode="&#x118;" horiz-adv-x="648"
                   d="M542 0q-106 -5 -140 -55q-21 -32 2 -53q16 -15 45 -14q25 1 53 14t46 37l31 -18q-22 -35 -60.5 -57t-75.5 -24q-44 -1 -69.5 18.5t-27 47t18.5 57.5t57 47h-375l123 700h483l-9 -51h-430l-48 -272h410l-8 -49h-410l-49 -276h442z"/>
            <glyph glyph-name="eogonek" unicode="&#x119;" horiz-adv-x="586"
                   d="M246 -7q-94 0 -152.5 57.5t-58.5 153.5q0 125 90.5 211.5t210.5 86.5q114 0 173 -71t22 -207h-445q-8 -84 40.5 -133.5t127.5 -49.5q51 0 105 20t87 55l30 -28q-48 -52 -126 -78q-31 -14 -41 -40.5t5.5 -47t51.5 -19.5q57 2 95 50l29 -18q-21 -32 -58 -52.5t-72 -22.5
q-49 -2 -75.5 19.5t-25 54t27.5 62.5q-36 -3 -41 -3zM93 267h401q15 90 -30 140t-136 50q-79 0 -145 -51t-90 -139z"/>
            <glyph glyph-name="Ecaron" unicode="&#x11a;" horiz-adv-x="648"
                   d="M166 377l48 273h430l9 50h-483l-123 -700h495l9 52h-442l49 276h410l8 49h-410zM618 900l-159 -127h-38l-115 127l1 7h50l86 -95l125 95h51z"/>
            <glyph glyph-name="ecaron" unicode="&#x11b;" horiz-adv-x="585"
                   d="M246 -8q62 0 124.5 24.5t105.5 70.5l-30 28q-33 -36 -87 -56.5t-105 -20.5q-83 0 -130.5 50.5t-39.5 135.5h447q37 136 -22 207t-173 71q-121 0 -210 -86t-91 -212q-1 -95 58.5 -153.5t152.5 -58.5zM91 268q24 88 90.5 138.5t146.5 50.5q98 0 140.5 -48.5t26.5 -140.5
h-404zM526 694l-157 -125h-38l-113 125l1 7h50l84 -93l124 93h50z"/>
            <glyph glyph-name="Gcircumflex" unicode="&#x11c;" horiz-adv-x="747"
                   d="M691 570l37 35q-88 105 -238 105q-183 0 -307 -119t-124 -303q0 -129 78.5 -213t226.5 -84q176 0 281 104l49 271h-295l-8 -47h247l-38 -202q-72 -76 -227 -76q-134 0 -197.5 71t-63.5 185q0 69 25 133.5t70.5 116t117 82.5t157.5 31q61 0 117 -23t92 -67zM334 786
l158 127h38l113 -127l-1 -6h-48l-89 95l-120 -95h-52z"/>
            <glyph glyph-name="gcircumflex" unicode="&#x11d;" horiz-adv-x="629"
                   d="M326 453q115 0 157 -88q36 -76 -1 -169q-37 -95 -125 -136q-48 -22 -103 -22q-85 0 -127.5 47t-42.5 128q0 103 72.5 171.5t169.5 68.5zM584 494h-45l-21 -107q-20 55 -70 84t-113 29q-120 0 -210 -84t-90 -210q0 -98 54.5 -156t155.5 -58q140 0 224 106l-21 -112
q-17 -103 -81 -149t-149 -46q-81 0 -124.5 32t-37.5 99h-44q-10 -81 44.5 -128.5t158.5 -47.5q112 0 185.5 60.5t94.5 180.5zM229 585l158 126h38l112 -126l-1 -6h-47l-89 95l-119 -95h-53z"/>
            <glyph glyph-name="Gbreve" unicode="&#x11e;" horiz-adv-x="747"
                   d="M728 605l-37 -35q-36 44 -92 67t-117 23q-86 0 -157.5 -31t-117 -82.5t-70.5 -116t-25 -133.5q0 -114 63.5 -185t197.5 -71q155 0 227 76l38 202h-247l8 47h295l-49 -271q-105 -104 -281 -104q-148 0 -226.5 84t-78.5 213q0 184 124 303t307 119q150 0 238 -105zM613 898
h42q-11 -54 -49 -84.5t-97 -30.5q-61 0 -90 30.5t-18 84.5h41q-7 -31 7.5 -54t63.5 -23q84 0 100 77z"/>
            <glyph glyph-name="gbreve" unicode="&#x11f;" horiz-adv-x="629"
                   d="M326 453q-97 0 -169.5 -68.5t-72.5 -171.5q0 -81 42.5 -128t127.5 -47q121 0 193 95q60 79 52 171q-8 94 -85 131q-38 18 -88 18zM539 494h45l-89 -507q-21 -120 -94.5 -180.5t-185.5 -60.5q-104 0 -158.5 47.5t-44.5 128.5h44q-6 -67 37.5 -99t124.5 -32q85 0 149 46
t81 149l21 112q-84 -106 -224 -106q-101 0 -155.5 58t-54.5 156q0 126 90 210t210 84q63 0 113 -29t70 -84zM484 710h42q-11 -58 -49 -90.5t-96 -32.5q-61 0 -89.5 32.5t-17.5 90.5h40q-16 -83 71 -83q83 0 99 83z"/>
            <glyph glyph-name="Gdotaccent" unicode="&#x120;" horiz-adv-x="747"
                   d="M691 570l37 35q-88 105 -238 105q-183 0 -307 -119t-124 -303q0 -129 78.5 -213t226.5 -84q176 0 281 104l49 271h-295l-8 -47h247l-38 -202q-72 -76 -227 -76q-134 0 -197.5 71t-63.5 185q0 69 25 133.5t70.5 116t117 82.5t157.5 31q61 0 117 -23t92 -67zM461 812
q0 19 15 31t34 12q33 0 33 -31q0 -20 -14 -32t-32 -12q-15 0 -25.5 8t-10.5 24z"/>
            <glyph glyph-name="gdotaccent" unicode="&#x121;" horiz-adv-x="629"
                   d="M326 453q115 0 157 -88q36 -76 -1 -169q-37 -95 -125 -136q-48 -22 -103 -22q-85 0 -127.5 47t-42.5 128q0 103 72.5 171.5t169.5 68.5zM584 494h-45l-21 -107q-20 55 -70 84t-113 29q-120 0 -210 -84t-90 -210q0 -98 54.5 -156t155.5 -58q140 0 224 106l-21 -112
q-17 -103 -81 -149t-149 -46q-81 0 -124.5 32t-37.5 99h-44q-10 -81 44.5 -128.5t158.5 -47.5q112 0 185.5 60.5t94.5 180.5zM354 661q0 19 15 31t34 12q33 0 33 -31q0 -20 -14 -32t-32 -12q-15 0 -25.5 8.5t-10.5 23.5z"/>
            <glyph glyph-name="Gcommaaccent" unicode="&#x122;" horiz-adv-x="747"
                   d="M279 -138q0 22 14.5 33.5t33.5 11.5q20 0 28.5 -15.5t-0.5 -35.5q-14 -30 -54 -95h-43l40 71q-19 7 -19 30zM728 605l-37 -35q-36 44 -92 67t-117 23q-86 0 -157.5 -31t-117 -82.5t-70.5 -116t-25 -133.5q0 -114 63.5 -185t197.5 -71q155 0 227 76l38 202h-247l8 47h295
l-49 -271q-105 -104 -281 -104q-148 0 -226.5 84t-78.5 213q0 184 124 303t307 119q150 0 238 -105z"/>
            <glyph glyph-name="gcommaaccent" unicode="&#x123;" horiz-adv-x="629"
                   d="M417 623q0 -21 -15.5 -33t-34.5 -12q-14 0 -22.5 8.5t-8.5 23.5q0 12 7 24l51 90h44l-40 -71q19 -7 19 -30zM326 453q115 0 157 -88q36 -76 -1 -169q-37 -95 -125 -136q-48 -22 -103 -22q-85 0 -127.5 47t-42.5 128q0 103 72.5 171.5t169.5 68.5zM584 494h-45l-21 -107
q-20 55 -70 84t-113 29q-120 0 -210 -84t-90 -210q0 -98 54.5 -156t155.5 -58q140 0 224 106l-21 -112q-17 -103 -81 -149t-149 -46q-81 0 -124.5 32t-37.5 99h-44q-10 -81 44.5 -128.5t158.5 -47.5q112 0 185.5 60.5t94.5 180.5z"/>
            <glyph glyph-name="Hcircumflex" unicode="&#x124;" horiz-adv-x="752"
                   d="M547 0h54l123 700h-54l-58 -333h-446l58 333h-54l-123 -700h54l56 318h446zM310 778l162 129h38l115 -129l-1 -7h-48l-91 98l-122 -98h-54z"/>
            <glyph glyph-name="hcircumflex" unicode="&#x125;" horiz-adv-x="586"
                   d="M198 700h-47l-123 -700h49l48 271q14 78 72.5 131t135.5 53q159 0 129 -172l-50 -283h48l50 283q18 100 -25 159t-144 59q-124 -2 -195 -99zM203 772l159 127h38l114 -127l-1 -7h-48l-90 96l-121 -96h-52z"/>
            <glyph glyph-name="Hbar" unicode="&#x126;" horiz-adv-x="764"
                   d="M607 0h-54l56 318h-446l-56 -318h-54l94 531h-74l7 41h74l22 128h54l-22 -128h446l22 128h54l-22 -128h74l-7 -41h-74zM172 367h446l29 164h-446z"/>
            <glyph glyph-name="hbar" unicode="&#x127;" horiz-adv-x="586"
                   d="M65 578l7 41h65l14 81h47l-14 -81h127l-7 -41h-127l-31 -176q71 97 195 99q101 0 144 -59t25 -159l-50 -283h-48l50 283q14 80 -17.5 125.5t-111.5 45.5q-77 0 -135.5 -52.5t-72.5 -130.5l-48 -271h-49l102 578h-65z"/>
            <glyph glyph-name="Itilde" unicode="&#x128;" horiz-adv-x="251"
                   d="M100 0h-53l123 700h53zM119 782l-31 11q12 42 50 57.5t69 -3.5l36 -22q14 -10 34 -3t30 31l31 -10q-12 -44 -49.5 -60t-68.5 4l-37 22q-14 10 -34.5 3t-29.5 -30z"/>
            <glyph glyph-name="itilde" unicode="&#x129;" horiz-adv-x="209"
                   d="M115 496h49l-87 -496h-49zM86 638l-27 10q10 39 43 53.5t60 -4.5l32 -19q12 -10 29.5 -3t25.5 29l28 -10q-11 -41 -43.5 -55.5t-59.5 4.5l-32 19q-13 9 -30 3t-26 -27z"/>
            <glyph glyph-name="Imacron" unicode="&#x12a;" horiz-adv-x="251"
                   d="M100 0h-53l123 700h53zM88 777l6 45h235l-6 -45h-235z"/>
            <glyph glyph-name="imacron" unicode="&#x12b;" horiz-adv-x="209"
                   d="M115 496h49l-87 -496h-49zM63 638l5 43h200l-5 -43h-200z"/>
            <glyph glyph-name="Ibreve" unicode="&#x12c;" horiz-adv-x="251"
                   d="M309 885h39q-16 -108 -136 -108q-59 0 -84 28t-13 81h39q-6 -32 6 -51t59 -19q78 0 90 69zM100 0h-53l123 700h53z"/>
            <glyph glyph-name="ibreve" unicode="&#x12d;" horiz-adv-x="209"
                   d="M115 496h49l-87 -496h-49zM250 700h37q-10 -55 -43.5 -85.5t-84.5 -30.5q-53 0 -78.5 31t-15.5 85h35q-13 -78 62 -78q72 0 88 78z"/>
            <glyph glyph-name="Iogonek" unicode="&#x12e;" horiz-adv-x="253"
                   d="M225 700l-123 -700q-15 0 -20 -1q-42 -6 -59.5 -29t-12.5 -49q7 -37 56 -34q58 2 93 46l29 -18q-21 -32 -56.5 -50t-71.5 -20q-43 -1 -67.5 15t-29.5 45q-6 37 18.5 71.5t71.5 47.5l119 676h53z"/>
            <glyph glyph-name="iogonek" unicode="&#x12f;" horiz-adv-x="211"
                   d="M131 648q0 21 14.5 33.5t32.5 12.5q14 0 23.5 -8.5t9.5 -23.5q0 -21 -14 -33.5t-32 -12.5q-14 0 -24 8.5t-10 23.5zM167 496h-49l-84 -473q-42 -12 -65 -42t-21 -62.5t27 -55.5q32 -30 86 -18.5t84 55.5l-27 17q-24 -26 -58 -33t-58 14q-13 17 -12 39.5t26 42t63 20.5z
"/>
            <glyph glyph-name="Idotaccent" unicode="&#x130;" horiz-adv-x="251"
                   d="M47 0h53l123 700h-53zM178 808q0 20 14.5 32.5t32.5 12.5q33 0 33 -32q0 -21 -14 -33.5t-31 -12.5q-15 0 -25 8.5t-10 24.5z"/>
            <glyph glyph-name="dotlessi" unicode="&#x131;" horiz-adv-x="209"
                   d="M115 496h49l-87 -496h-49z"/>
            <glyph glyph-name="IJ" unicode="&#x132;" horiz-adv-x="921"
                   d="M100 0h-53l123 700h53zM772 264l69 389h-269l9 47h321l-77 -436q-22 -126 -113 -200.5t-213 -74.5q-120 0 -184.5 77t-42.5 198h50q-18 -101 32 -163t154 -62q100 0 172.5 59.5t91.5 165.5z"/>
            <glyph glyph-name="ij" unicode="&#x133;" horiz-adv-x="416"
                   d="M164 496h-49l-87 -496h49zM130 653q0 21 14.5 33.5t32.5 12.5q14 0 23.5 -8.5t9.5 -23.5q0 -21 -14.5 -33.5t-33.5 -12.5q-13 0 -22.5 8.5t-9.5 23.5zM371 495h-47l-100 -566q-11 -60 -32.5 -91.5t-73.5 -31.5q-40 0 -72 20l-21 -42q41 -24 85 -24q76 0 112 44t50 125z
M336 653q0 21 14.5 33.5t32.5 12.5q14 0 23.5 -8.5t9.5 -23.5q0 -21 -14.5 -33.5t-32.5 -12.5q-14 0 -23.5 8.5t-9.5 23.5z"/>
            <glyph glyph-name="Jcircumflex" unicode="&#x134;" horiz-adv-x="670"
                   d="M590 653l-69 -389q-19 -106 -91.5 -165.5t-172.5 -59.5q-104 0 -154 62t-32 163h-50q-22 -121 42.5 -198t184.5 -77q122 0 213 74.5t113 200.5l77 436h-321l-9 -47h269zM340 779l162 128h38l115 -128l-1 -7h-48l-91 97l-122 -97h-54z"/>
            <glyph glyph-name="jcircumflex" unicode="&#x135;" horiz-adv-x="207"
                   d="M162 495h-47l-101 -570q-11 -60 -32.5 -91.5t-73.5 -31.5q-40 0 -72 20l-21 -42q41 -24 85 -24q76 0 112 44t50 125zM26 568l129 133h31l92 -133l-1 -7h-39l-72 101l-98 -101h-43z"/>
            <glyph glyph-name="Kcommaaccent" unicode="&#x136;" horiz-adv-x="588"
                   d="M214 -113q0 22 15 33.5t34 11.5q14 0 23 -8.5t9 -23.5q0 -20 -59 -114h-43l40 71q-19 7 -19 30zM538 4l-1 -4h-68l-308 345l-61 -344h-54l123 699h54l-56 -319l395 319h66l-1 -5l-408 -335z"/>
            <glyph glyph-name="kcommaaccent" unicode="&#x137;" horiz-adv-x="461"
                   d="M150 -115q0 20 14.5 31.5t32.5 11.5q13 0 21.5 -8.5t8.5 -22.5q0 -11 -7 -22l-49 -86h-41l38 68q-18 5 -18 28zM151 700h48l-74 -422l271 216h65v-2l-291 -235l234 -254l-1 -3h-60l-224 242l-43 -242h-48z"/>
            <glyph glyph-name="kgreenlandic" unicode="&#x138;" horiz-adv-x="461"
                   d="M115 495h48l-38 -217l271 216h65v-2l-291 -231l234 -258l-1 -3h-62l-222 242l-43 -242h-48z"/>
            <glyph glyph-name="Lacute" unicode="&#x139;" horiz-adv-x="558"
                   d="M224 700h-54l-123 -700h448l9 51h-394zM243 776h-45l1 4l90 112h61v-1z"/>
            <glyph glyph-name="lacute" unicode="&#x13a;" horiz-adv-x="223"
                   d="M207 700h-49l-123 -700h49zM213 775h-42l1 4l84 105h57v-1z"/>
            <glyph glyph-name="Lcommaaccent" unicode="&#x13b;" horiz-adv-x="558"
                   d="M211 -132q0 22 15 33.5t34 11.5q14 0 23 -8.5t9 -23.5q0 -12 -7 -24l-52 -90h-43l40 71q-19 7 -19 30zM170 700h54l-114 -649h394l-9 -51h-448z"/>
            <glyph glyph-name="lcommaaccent" unicode="&#x13c;" horiz-adv-x="223"
                   d="M1 -124q0 20 14 31.5t32 11.5q29 0 29 -29q0 -13 -6 -24l-49 -84h-40l37 67q-17 5 -17 27zM158 700h49l-123 -700h-49z"/>
            <glyph glyph-name="Lcaron" unicode="&#x13d;" horiz-adv-x="559"
                   d="M170 700h54l-114 -649h394l-9 -51h-448zM460 545h-40l68 153h52z"/>
            <glyph glyph-name="lcaron" unicode="&#x13e;" horiz-adv-x="216"
                   d="M158 700h49l-123 -700h-49zM269 547h-40l68 154h52z"/>
            <glyph glyph-name="Ldot" unicode="&#x13f;" horiz-adv-x="558"
                   d="M170 700h54l-114 -649h394l-9 -51h-448zM325 280q0 21 14.5 33.5t32.5 12.5q14 0 23.5 -8.5t9.5 -23.5q0 -21 -14 -33.5t-33 -12.5q-14 0 -23.5 8.5t-9.5 23.5z"/>
            <glyph glyph-name="ldot" unicode="&#x140;" horiz-adv-x="295"
                   d="M158 700h49l-123 -700h-49zM218 280q0 20 14.5 32.5t32.5 12.5q13 0 22.5 -8.5t9.5 -23.5q0 -21 -14 -33t-32 -12q-14 0 -23.5 8.5t-9.5 23.5z"/>
            <glyph glyph-name="Lslash" unicode="&#x141;" horiz-adv-x="564"
                   d="M177 700h54l-59 -330l125 49l-9 -50l-124 -48l-48 -270h394l-9 -51h-448l53 299l-75 -28l8 48l76 29z"/>
            <glyph glyph-name="lslash" unicode="&#x142;" horiz-adv-x="252"
                   d="M172 700h49l-59 -333l87 33l-9 -50l-87 -32l-56 -318h-49l53 299l-77 -28l8 48l78 29z"/>
            <glyph glyph-name="Nacute" unicode="&#x143;" horiz-adv-x="745"
                   d="M193 700h-23l-123 -700h54l102 584l370 -584h21l123 700h-53l-102 -579zM455 777h-47l1 4l93 116h63v-1z"/>
            <glyph glyph-name="nacute" unicode="&#x144;"
                   d="M163 494h-48l-87 -494h49l48 275q14 77 71.5 128t133.5 52q87 1 124 -43t22 -128l-50 -284h49l50 285q18 102 -32 160t-152 58q-123 -2 -193 -97zM344 584h-45l1 4l90 113h62v-1z"/>
            <glyph glyph-name="Ncommaaccent" unicode="&#x145;" horiz-adv-x="745"
                   d="M283 -121q0 22 15 33.5t35 11.5q13 0 22 -8.5t9 -23.5q0 -12 -7 -24l-52 -90h-43l40 71q-19 7 -19 30zM170 700h23l369 -579l102 579h53l-123 -700h-21l-370 584l-102 -584h-54z"/>
            <glyph glyph-name="ncommaaccent" unicode="&#x146;"
                   d="M200 -116q0 20 14 31t32 11q20 0 27 -15.5t-5 -36.5l-48 -84h-40l37 66q-17 7 -17 28zM115 494h48l-15 -88q70 95 193 97q102 0 152 -58t32 -160l-50 -285h-49l50 284q15 84 -22 128t-124 43q-76 -1 -133.5 -52t-71.5 -128l-48 -275h-49z"/>
            <glyph glyph-name="Ncaron" unicode="&#x147;" horiz-adv-x="745"
                   d="M193 700h-23l-123 -700h54l102 584l370 -584h21l123 700h-53l-102 -579zM619 900l-157 -125h-38l-113 125l1 7h50l84 -93l124 93h50z"/>
            <glyph glyph-name="ncaron" unicode="&#x148;"
                   d="M163 494h-48l-87 -494h49l48 275q14 77 71.5 128t133.5 52q87 1 124 -43t22 -128l-50 -284h49l50 285q18 102 -32 160t-152 58q-123 -2 -193 -97zM524 699l-155 -123h-37l-111 123l1 7h48l84 -92l121 92h50z"/>
            <glyph glyph-name="napostrophe" unicode="&#x149;"
                   d="M115 494h48l-15 -88q70 95 193 97q102 0 152 -58t32 -160l-50 -285h-49l50 284q15 84 -22 128t-124 43q-76 -1 -133.5 -52t-71.5 -128l-48 -275h-49z"/>
            <glyph glyph-name="Eng" unicode="&#x14a;" horiz-adv-x="745"
                   d="M170 700h23l369 -583l102 583h53l-128 -728q-14 -81 -50 -125t-112 -44q-38 0 -80 24l22 42q32 -20 66 -20q52 0 74.5 31.5t33.5 91.5l10 58l-351 557l-101 -587h-54z"/>
            <glyph glyph-name="eng" unicode="&#x14b;"
                   d="M525 285l-54 -306q-13 -80 -49 -124.5t-113 -44.5q-35 0 -75 24l21 42q32 -20 63 -20q52 0 72.5 31t31.5 92l54 305q15 83 -24.5 127.5t-121.5 43.5q-76 -1 -133.5 -52t-71.5 -128l-48 -275h-49l87 494h48l-15 -88q70 95 193 97q100 0 151 -58.5t33 -159.5z"/>
            <glyph glyph-name="Omacron" unicode="&#x14c;" horiz-adv-x="814"
                   d="M481 711q86 0 148 -29.5t95 -80.5t44.5 -115t1.5 -137q-20 -148 -133 -254.5t-283 -106.5q-78 0 -137 24.5t-92.5 67.5t-50 95.5t-16.5 114.5q0 79 28.5 154t81 135t134 96t179.5 36zM472 661q-119 0 -208.5 -64.5t-127 -163t-19.5 -203.5q15 -86 75.5 -139t169.5 -53
q108 0 192 55t126.5 137.5t43.5 173.5q2 120 -61.5 188.5t-190.5 68.5zM337 799l8 46h314l-8 -46h-314z"/>
            <glyph glyph-name="omacron" unicode="&#x14d;"
                   d="M246 -8q-94 0 -152.5 57t-58.5 153q0 130 89.5 215t211.5 85q93 0 152 -58.5t59 -155.5q0 -131 -89.5 -213.5t-211.5 -82.5zM255 40q99 0 171 67t72 174q0 79 -47.5 127t-122.5 48q-98 0 -171 -70t-73 -176q0 -78 47.5 -124t123.5 -46zM217 644l7 42h287l-7 -42h-287z
"/>
            <glyph glyph-name="Obreve" unicode="&#x14e;" horiz-adv-x="814"
                   d="M481 711q86 0 148 -29.5t95 -80.5t44.5 -115t1.5 -137q-20 -148 -133 -254.5t-283 -106.5q-78 0 -137 24.5t-92.5 67.5t-50 95.5t-16.5 114.5q0 79 28.5 154t81 135t134 96t179.5 36zM472 661q-119 0 -208.5 -64.5t-127 -163t-19.5 -203.5q15 -86 75.5 -139t169.5 -53
q108 0 192 55t126.5 137.5t43.5 173.5q2 120 -61.5 188.5t-190.5 68.5zM607 903h42q-11 -56 -49 -88t-96 -32q-61 0 -89.5 32t-17.5 88h40q-16 -81 71 -81q83 0 99 81z"/>
            <glyph glyph-name="obreve" unicode="&#x14f;"
                   d="M246 -8q-94 0 -152.5 57t-58.5 153q0 130 89.5 215t211.5 85q93 0 152 -58.5t59 -155.5q0 -131 -89.5 -213.5t-211.5 -82.5zM255 40q99 0 171 67t72 174q0 79 -47.5 127t-122.5 48q-98 0 -171 -70t-73 -176q0 -78 47.5 -124t123.5 -46zM459 700h41q-11 -56 -48 -87
t-95 -31q-60 0 -88 31.5t-18 86.5h40q-16 -80 70 -80q82 0 98 80z"/>
            <glyph glyph-name="Ohungarumlaut" unicode="&#x150;" horiz-adv-x="814"
                   d="M481 711q-98 0 -179.5 -36t-134 -96t-81 -135t-28.5 -154q0 -62 16.5 -114.5t50 -95.5t92.5 -67.5t137 -24.5q170 0 283 106.5t133 254.5q10 73 -1.5 137t-44.5 115t-95 80.5t-148 29.5zM472 661q127 0 190.5 -68.5t61.5 -188.5q-1 -91 -43.5 -173.5t-126.5 -137.5
t-192 -55q-109 0 -169.5 53t-75.5 139q-18 105 19.5 203.5t127 163t208.5 64.5zM446 786h-47l1 4l88 104h62v-1zM572 786h-46l1 4l87 104h63v-1z"/>
            <glyph glyph-name="ohungarumlaut" unicode="&#x151;"
                   d="M246 -8q122 0 211.5 82.5t89.5 213.5q0 97 -59 155.5t-152 58.5q-122 0 -211.5 -85t-89.5 -215q0 -96 58.5 -153t152.5 -57zM255 40q-76 0 -123.5 46t-47.5 124q0 106 73 176t171 70q75 0 122.5 -48t47.5 -127q0 -107 -72 -174t-171 -67zM303 589h-46l1 4l88 96h63v-1z
M431 589h-46l1 4l88 96h63v-1z"/>
            <glyph glyph-name="OE" unicode="&#x152;" horiz-adv-x="950"
                   d="M588 656l-50 -279h340l-8 -46h-340l-51 -287h378l-8 -44h-423q-38 -5 -70 -5q-145 0 -221 84t-76 210q0 79 28.5 153t81 133t134 95t178.5 36q39 0 70 -6h406l-7 -44h-362zM474 663q-109 0 -194 -53.5t-127.5 -135t-42.5 -174.5q0 -111 65 -186t188 -75q37 0 70 6
l109 612q-32 6 -68 6z"/>
            <glyph glyph-name="oe" unicode="&#x153;" horiz-adv-x="1024"
                   d="M689 -7q-75 0 -126.5 40t-65.5 106q-39 -69 -105 -107.5t-145 -38.5q-94 0 -152.5 57t-58.5 153q0 130 89.5 215t211.5 85q78 0 129 -40t65 -111q39 67 106 108.5t142 41.5q73 0 123.5 -29t72.5 -91t-5 -158q-289 0 -437 -1q-8 -84 39 -134t126 -50q114 0 187 77l30 -28
q-43 -46 -104 -70.5t-122 -24.5zM256 41q99 0 170 67t71 174q0 79 -47 127t-121 48q-98 0 -171 -70t-73 -176q0 -80 45 -125t126 -45zM541 267h392q31 190 -162 190q-79 0 -143 -51t-87 -139z"/>
            <glyph glyph-name="Racute" unicode="&#x154;" horiz-adv-x="697"
                   d="M405 268q123 1 187.5 65t74.5 165q8 83 -40 142.5t-149 59.5h-308l-123 -700h54l47 265h196l193 -265h68zM157 316l59 335h254q85 0 120.5 -50t22.5 -118q-14 -77 -67 -122t-141 -45h-248zM436 783h-46l1 4l92 115h62v-1z"/>
            <glyph glyph-name="racute" unicode="&#x155;" horiz-adv-x="403"
                   d="M161 494h-46l-87 -494h49l51 288q12 68 68.5 115.5t125.5 47.5q47 0 80 -23l27 42q-46 30 -101 29q-52 0 -101 -23t-79 -70zM292 591h-42l1 3l85 107h57v-1z"/>
            <glyph glyph-name="Rcommaaccent" unicode="&#x156;" horiz-adv-x="697"
                   d="M230 -121q0 22 15 33.5t34 11.5q32 0 32 -32q0 -18 -62 -114h-40l40 71q-19 7 -19 30zM405 268l200 -268h-68l-193 265h-196l-47 -265h-54l123 700h308q101 0 149 -59.5t40 -142.5q-10 -101 -74.5 -165t-187.5 -65zM216 651l-59 -335h248q88 0 141 45t67 122
q13 68 -22.5 118t-120.5 50h-254z"/>
            <glyph glyph-name="rcommaaccent" unicode="&#x157;" horiz-adv-x="403"
                   d="M-4 -119q0 20 14 31.5t32 11.5q20 0 26.5 -15t-3.5 -36q-10 -23 -48 -87h-37l33 67q-17 7 -17 28zM115 494h46l-13 -88q30 47 79 70t101 23q55 1 101 -29l-27 -42q-33 23 -80 23q-69 0 -125.5 -47.5t-68.5 -115.5l-51 -288h-49z"/>
            <glyph glyph-name="Rcaron" unicode="&#x158;" horiz-adv-x="697"
                   d="M405 268q123 1 187.5 65t74.5 165q8 83 -40 142.5t-149 59.5h-308l-123 -700h54l47 265h196l193 -265h68zM157 316l59 335h254q85 0 120.5 -50t22.5 -118q-14 -77 -67 -122t-141 -45h-248zM598 900l-157 -125h-38l-113 125l1 7h50l84 -93l124 93h50z"/>
            <glyph glyph-name="rcaron" unicode="&#x159;" horiz-adv-x="403"
                   d="M161 494h-46l-87 -494h49l51 288q12 68 68.5 115.5t125.5 47.5q47 0 80 -23l27 42q-46 30 -101 29q-52 0 -101 -23t-79 -70zM438 697l-146 -123h-36l-106 123l1 7h47l79 -92l115 92h47z"/>
            <glyph glyph-name="Sacute" unicode="&#x15a;" horiz-adv-x="655"
                   d="M594 563l40 25q-26 58 -91.5 89t-146.5 31q-137 0 -221 -61t-74 -163q2 -24 11.5 -43.5t28 -33.5t36 -24t48 -18.5t50 -13t56.5 -12.5q40 -8 66.5 -14.5t58 -19.5t48.5 -27.5t26.5 -38.5t4.5 -53q-6 -36 -26 -63t-46 -42.5t-59 -25t-61 -12.5t-57 -3q-73 0 -137 32
t-84 93l-48 -24q25 -75 100.5 -113.5t165.5 -38.5q50 0 94 7.5t90.5 26t79 58t42.5 95.5q8 44 -3.5 77.5t-31 54t-58.5 37t-68.5 24t-78.5 17.5q-48 10 -77 17.5t-60 21t-45.5 33.5t-14.5 47q0 44 22.5 75.5t60.5 48t78 23.5t83 7q62 -1 119 -25t79 -71zM416 783h-48l1 4
l95 119h65v-1z"/>
            <glyph glyph-name="sacute" unicode="&#x15b;" horiz-adv-x="500"
                   d="M426 405l35 31q-59 66 -173 66q-90 1 -155.5 -38t-65.5 -113q0 -39 26.5 -65t59.5 -36.5t84 -18.5q36 -6 59 -11.5t47 -16.5t33 -28.5t4 -41.5q-11 -52 -61 -73t-109 -21q-121 0 -169 83l-38 -29q51 -101 198 -101q36 0 70 6t68 20t58 42t32 67q7 31 -2 55.5t-25.5 39
t-46 26t-51.5 16.5t-55 11q-81 14 -106 31q-27 20 -28 51q0 48 49 74t116 26q97 0 146 -52zM304 587h-44l1 4l88 110h60z"/>
            <glyph glyph-name="Scircumflex" unicode="&#x15c;" horiz-adv-x="655"
                   d="M594 563l40 25q-26 58 -91.5 89t-146.5 31q-137 0 -221 -61t-74 -163q2 -24 11.5 -43.5t28 -33.5t36 -24t48 -18.5t50 -13t56.5 -12.5q40 -8 66.5 -14.5t58 -19.5t48.5 -27.5t26.5 -38.5t4.5 -53q-6 -36 -26 -63t-46 -42.5t-59 -25t-61 -12.5t-57 -3q-73 0 -137 32
t-84 93l-48 -24q25 -75 100.5 -113.5t165.5 -38.5q50 0 94 7.5t90.5 26t79 58t42.5 95.5q8 44 -3.5 77.5t-31 54t-58.5 37t-68.5 24t-78.5 17.5q-48 10 -77 17.5t-60 21t-45.5 33.5t-14.5 47q0 44 22.5 75.5t60.5 48t78 23.5t83 7q62 -1 119 -25t79 -71zM267 790l166 132h40
l118 -132l-1 -7h-50l-93 100l-126 -100h-55z"/>
            <glyph glyph-name="scircumflex" unicode="&#x15d;" horiz-adv-x="500"
                   d="M426 405l35 31q-59 66 -173 66q-90 1 -155.5 -38t-65.5 -113q0 -39 26.5 -65t59.5 -36.5t84 -18.5q36 -6 59 -11.5t47 -16.5t33 -28.5t4 -41.5q-11 -52 -61 -73t-109 -21q-121 0 -169 83l-38 -29q51 -101 198 -101q36 0 70 6t68 20t58 42t32 67q7 31 -2 55.5t-25.5 39
t-46 26t-51.5 16.5t-55 11q-81 14 -106 31q-27 20 -28 51q0 48 49 74t116 26q97 0 146 -52zM147 578l155 123h37l109 -123l-1 -6h-46l-86 92l-117 -92h-52z"/>
            <glyph glyph-name="Scedilla" unicode="&#x15e;" horiz-adv-x="655"
                   d="M634 588l-40 -25q-22 47 -79 71t-119 25q-43 0 -83 -7t-78 -23.5t-60.5 -48t-22.5 -75.5q0 -27 14.5 -47t45.5 -33.5t60 -21t77 -17.5q49 -10 78.5 -17.5t68.5 -24t58.5 -37t31 -54t3.5 -77.5q-32 -173 -274 -186l-21 -51q39 2 61 -13.5t23 -38.5t-8 -49
q-15 -35 -47 -52.5t-68 -17.5q-32 0 -58 13.5t-35 39.5l32 27q20 -39 68 -39q52 0 70 38q14 30 -8 49t-76 8l-5 5l33 80q-89 2 -162 40t-97 112l48 24q20 -61 84 -93t137 -32q29 0 57 3t61 12.5t59 25t46 42.5t26 63q5 29 -4.5 53t-26.5 38.5t-48.5 27.5t-58 19.5
t-66.5 14.5q-37 8 -56.5 12.5t-50 13t-48 18.5t-36 24t-28 33.5t-11.5 43.5q-10 102 74 163t221 61q81 0 146.5 -31t91.5 -89z"/>
            <glyph glyph-name="scedilla" unicode="&#x15f;" horiz-adv-x="500"
                   d="M461 436l-35 -31q-49 52 -146 52q-67 0 -116 -26t-49 -74q0 -21 9.5 -35.5t35 -24t35.5 -12t45 -8.5q3 -1 5 -1.5t4 -0.5q33 -6 55 -11t51.5 -16.5t46 -26t25.5 -39t2 -55.5q-25 -121 -200 -134l-17 -43q46 5 70.5 -24.5t4.5 -69.5q-13 -28 -42.5 -42.5t-61.5 -14.5
q-66 0 -95 47l28 22q22 -33 69 -33q46 0 65 34q13 27 -8.5 43.5t-73.5 6.5l-5 5l29 68q-139 3 -189 101l38 29q48 -83 169 -83q59 0 109 21t61 73q5 24 -4 41.5t-33 28.5t-47 16.5t-59 11.5q-51 8 -84 18.5t-59.5 36.5t-26.5 65q0 74 65.5 113t155.5 38q114 0 173 -66z"/>
            <glyph glyph-name="Scaron" unicode="&#x160;" horiz-adv-x="655"
                   d="M594 563l40 25q-26 58 -91.5 89t-146.5 31q-137 0 -221 -61t-74 -163q2 -24 11.5 -43.5t28 -33.5t36 -24t48 -18.5t50 -13t56.5 -12.5q40 -8 66.5 -14.5t58 -19.5t48.5 -27.5t26.5 -38.5t4.5 -53q-6 -36 -26 -63t-46 -42.5t-59 -25t-61 -12.5t-57 -3q-73 0 -137 32
t-84 93l-48 -24q25 -75 100.5 -113.5t165.5 -38.5q50 0 94 7.5t90.5 26t79 58t42.5 95.5q8 44 -3.5 77.5t-31 54t-58.5 37t-68.5 24t-78.5 17.5q-48 10 -77 17.5t-60 21t-45.5 33.5t-14.5 47q0 44 22.5 75.5t60.5 48t78 23.5t83 7q62 -1 119 -25t79 -71zM611 910l-165 -132
h-40l-119 132l1 7h52l89 -98l130 98h53z"/>
            <glyph glyph-name="scaron" unicode="&#x161;" horiz-adv-x="500"
                   d="M426 405l35 31q-59 66 -173 66q-90 1 -155.5 -38t-65.5 -113q0 -39 26.5 -65t59.5 -36.5t84 -18.5q36 -6 59 -11.5t47 -16.5t33 -28.5t4 -41.5q-11 -52 -61 -73t-109 -21q-121 0 -169 83l-38 -29q51 -101 198 -101q36 0 70 6t68 20t58 42t32 67q7 31 -2 55.5t-25.5 39
t-46 26t-51.5 16.5t-55 11q-81 14 -106 31q-27 20 -28 51q0 48 49 74t116 26q97 0 146 -52zM470 697l-149 -120h-37l-107 120l1 6h47l80 -88l118 88h48z"/>
            <glyph glyph-name="Tcommaaccent" unicode="&#x162;" horiz-adv-x="586"
                   d="M190 -74l-5 5l28 70l115 650h-253l8 48h560l-8 -48h-253l-115 -651h-16l-15 -39q39 2 61 -14.5t23 -40.5t-8 -50q-28 -66 -115 -66q-67 0 -93 53l30 23q24 -35 70 -35q52 0 70 38q14 30 -8 49t-76 8z"/>
            <glyph glyph-name="tcommaaccent" unicode="&#x163;" horiz-adv-x="370"
                   d="M134 -92l-6 5l35 88q-77 26 -54 151l53 301h-105l7 41h105l25 144l49 5l-26 -149h168l-7 -41h-168l-53 -301q-10 -57 3.5 -85.5t67.5 -28.5q34 0 79 20l10 -40q-57 -25 -97 -25q-16 0 -22 1l-20 -52q59 5 80 -22t3 -68q-30 -63 -111 -63q-64 0 -99 48l29 24
q25 -35 73 -35q50 0 68 35q8 17 1.5 30t-28 18.5t-60.5 -1.5z"/>
            <glyph glyph-name="Tcaron" unicode="&#x164;" horiz-adv-x="586"
                   d="M328 652l-114 -652h54l114 652h253l9 48h-560l-9 -48h253zM551 900l-165 -132h-40l-119 132l1 7h52l89 -98l130 98h53z"/>
            <glyph glyph-name="tcaron" unicode="&#x165;" horiz-adv-x="366"
                   d="M183 638l49 5l-27 -149h116l-7 -41h-116l-53 -301q-10 -57 3.5 -85.5t67.5 -28.5q34 0 79 20l10 -40q-55 -25 -97 -25q-75 0 -100 41t-11 118l53 301h-93l7 41h93zM408 493h-39l67 151h51z"/>
            <glyph glyph-name="Tbar" unicode="&#x166;" horiz-adv-x="598"
                   d="M143 308l7 42h130l53 301h-253l8 48h560l-8 -48h-253l-53 -301h130l-7 -42h-130l-55 -308h-54l55 308h-130z"/>
            <glyph glyph-name="tbar" unicode="&#x167;" horiz-adv-x="369"
                   d="M49 268l7 38h81l26 147h-105l7 41h105l25 144l49 5l-26 -149h168l-7 -41h-168l-26 -147h125l-7 -38h-125l-20 -116q-10 -57 3 -85.5t67 -28.5q35 0 80 20l10 -40q-57 -25 -97 -25q-75 0 -100 41t-11 118l20 116h-81z"/>
            <glyph glyph-name="Utilde" unicode="&#x168;" horiz-adv-x="719"
                   d="M646 700h53l-77 -435q-24 -136 -109.5 -205t-211.5 -69q-108 0 -173 72t-42 202l77 435h53l-77 -435q-19 -108 29.5 -166.5t141.5 -58.5q97 0 168 56.5t91 168.5zM351 783l-32 10q12 42 51 57.5t71 -4.5l37 -21q15 -10 35.5 -2.5t30.5 30.5l32 -10q-12 -44 -50.5 -59.5
t-70.5 4.5l-38 21q-15 10 -35.5 3.5t-30.5 -29.5z"/>
            <glyph glyph-name="utilde" unicode="&#x169;" horiz-adv-x="601"
                   d="M469 0h-48l16 89q-71 -96 -193 -96q-101 0 -152 58t-33 159l50 285h49l-50 -284q-15 -84 22 -128t124 -44q76 0 133.5 52t71.5 129l48 275h49zM270 631l-32 10q12 40 51 55t71 -4l37 -21q15 -9 35.5 -2t30.5 29l32 -10q-12 -41 -50.5 -56t-70.5 4l-38 20q-15 9 -35.5 2.5
t-30.5 -27.5z"/>
            <glyph glyph-name="Umacron" unicode="&#x16a;" horiz-adv-x="719"
                   d="M646 700h53l-77 -435q-24 -136 -109.5 -205t-211.5 -69q-108 0 -173 72t-42 202l77 435h53l-77 -435q-19 -108 29.5 -166.5t141.5 -58.5q97 0 168 56.5t91 168.5zM302 781l7 44h297l-7 -44h-297z"/>
            <glyph glyph-name="umacron" unicode="&#x16b;" horiz-adv-x="601"
                   d="M469 0h-48l16 89q-71 -96 -193 -96q-101 0 -152 58t-33 159l50 285h49l-50 -284q-15 -84 22 -128t124 -44q76 0 133.5 52t71.5 129l48 275h49zM226 657l7 41h282l-7 -41h-282z"/>
            <glyph glyph-name="Ubreve" unicode="&#x16c;" horiz-adv-x="719"
                   d="M646 700h53l-77 -435q-24 -136 -109.5 -205t-211.5 -69q-108 0 -173 72t-42 202l77 435h53l-77 -435q-19 -108 29.5 -166.5t141.5 -58.5q97 0 168 56.5t91 168.5zM558 893h42q-11 -58 -49 -90.5t-96 -32.5q-61 0 -89.5 32.5t-17.5 90.5h40q-16 -83 71 -83q83 0 99 83z
"/>
            <glyph glyph-name="ubreve" unicode="&#x16d;" horiz-adv-x="601"
                   d="M469 0h-48l16 89q-71 -96 -193 -96q-101 0 -152 58t-33 159l50 285h49l-50 -284q-15 -84 22 -128t124 -44q76 0 133.5 52t71.5 129l48 275h49zM459 700h41q-10 -56 -47 -87t-94 -31q-59 0 -87 31t-18 87h39q-13 -80 70 -80q80 0 96 80z"/>
            <glyph glyph-name="Uring" unicode="&#x16e;" horiz-adv-x="719"
                   d="M646 700h53l-77 -435q-24 -136 -109.5 -205t-211.5 -69q-108 0 -173 72t-42 202l77 435h53l-77 -435q-19 -108 29.5 -166.5t141.5 -58.5q97 0 168 56.5t91 168.5zM357 812q0 46 36 74.5t81 28.5q35 0 60.5 -19.5t25.5 -53.5q0 -46 -34.5 -74t-85.5 -28q-39 0 -61 19.5
t-22 52.5zM467 883q-31 0 -50.5 -19.5t-19.5 -43.5q0 -19 13 -32t37 -13q33 0 52 18.5t19 42.5q0 20 -13 33.5t-38 13.5z"/>
            <glyph glyph-name="uring" unicode="&#x16f;" horiz-adv-x="601"
                   d="M469 0h-48l16 89q-71 -96 -193 -96q-101 0 -152 58t-33 159l50 285h49l-50 -284q-15 -84 22 -128t124 -44q76 0 133.5 52t71.5 129l48 275h49zM265 617q0 44 35 72.5t79 28.5q34 0 58 -19t24 -53q0 -46 -33 -72.5t-82 -26.5q-38 0 -59.5 19t-21.5 51zM371 686
q-30 0 -48.5 -19t-18.5 -42q0 -19 12 -31.5t36 -12.5q32 0 50.5 18t18.5 41q0 19 -12.5 32.5t-37.5 13.5z"/>
            <glyph glyph-name="Uhungarumlaut" unicode="&#x170;" horiz-adv-x="719"
                   d="M699 700h-53l-77 -435q-20 -112 -91 -168.5t-168 -56.5q-93 0 -141.5 58.5t-29.5 166.5l77 435h-53l-77 -435q-23 -130 42 -202t173 -72q126 0 211.5 69t109.5 205zM375 774h-47l1 4l88 106h63v-1zM502 774h-46l1 4l88 106h63v-1z"/>
            <glyph glyph-name="uhungarumlaut" unicode="&#x171;" horiz-adv-x="601"
                   d="M421 0h48l87 495h-49l-48 -275q-14 -77 -71.5 -129t-133.5 -52q-87 0 -124 44t-22 128l50 284h-49l-50 -285q-18 -101 33 -159t152 -58q122 0 193 96zM294 597h-45l1 4l84 100h60v-1zM415 597h-44l1 4l84 100h60v-1z"/>
            <glyph glyph-name="Uogonek" unicode="&#x172;" horiz-adv-x="719"
                   d="M646 700h53l-77 -435q-18 -100 -78.5 -166.5t-143.5 -93.5q-35 -14 -47.5 -44t5 -53t57.5 -22q25 1 54.5 15.5t49.5 39.5l32 -21q-47 -74 -140 -78q-39 -1 -66 14t-36 38t-4.5 49.5t22.5 47.5q-55 -4 -103 12t-83.5 48.5t-51 88t-3.5 125.5l77 435h53l-77 -435
q-19 -106 30 -165.5t136 -59.5q90 0 167.5 58.5t96.5 166.5z"/>
            <glyph glyph-name="uogonek" unicode="&#x173;" horiz-adv-x="601"
                   d="M556 495l-94 -534q-87 2 -115 -42q-20 -29 3 -51q17 -16 50 -15q57 2 95 50l27 -17q-43 -67 -125 -71q-75 -3 -94 46q-16 41 19.5 82.5t98.5 45.5l18 100q-70 -95 -195 -97q-101 0 -152 58.5t-33 159.5l50 285h49l-50 -284q-15 -84 22.5 -128t123.5 -44q76 0 133.5 52
t71.5 129l48 275h49z"/>
            <glyph glyph-name="Wcircumflex" unicode="&#x174;" horiz-adv-x="1079"
                   d="M593 700l-330 -640l-101 640h-57l121 -702h58l170 330l138 273l38 -275l53 -328h58l371 702h-58l-331 -640l-100 640h-30zM464 786l163 129h40l115 -129l-1 -7h-49l-91 98l-124 -98h-54z"/>
            <glyph glyph-name="wcircumflex" unicode="&#x175;" horiz-adv-x="818"
                   d="M550 0l261 494h-54l-226 -437l-72 437h-35l-228 -437l-72 437h-54l89 -494h54l118 215l96 193l26 -192l42 -216h55zM299 574l160 127h38l114 -127l-1 -7h-48l-90 96l-121 -96h-53z"/>
            <glyph glyph-name="Ycircumflex" unicode="&#x176;" horiz-adv-x="657"
                   d="M295 280l-49 -280h54l49 280l348 419v1h-63l-306 -370l-170 370h-62v-1zM257 784l159 127h38l113 -127l-1 -6h-48l-89 95l-120 -95h-53z"/>
            <glyph glyph-name="ycircumflex" unicode="&#x177;" horiz-adv-x="598"
                   d="M417 -19q-17 -97 -74 -143t-137 -46q-79 0 -116 32t-30 98h-44q-10 -83 35.5 -129.5t146.5 -46.5q107 0 175.5 58.5t89.5 177.5l90 512h-49l-48 -274q-14 -77 -71 -128.5t-133 -52.5q-87 -1 -124 43.5t-22 128.5l50 283h-49l-50 -284q-18 -101 33 -159.5t151 -58.5
q126 2 196 97zM202 584l155 124h38l110 -124l-1 -6h-47l-86 93l-118 -93h-52z"/>
            <glyph glyph-name="Ydieresis" unicode="&#x178;" horiz-adv-x="657"
                   d="M295 280l-49 -280h54l49 280l348 419v1h-63l-306 -370l-170 370h-62v-1zM278 802q0 20 14 32t31 12q13 0 22 -8.5t9 -22.5q0 -20 -13 -32t-30 -12q-33 0 -33 31zM485 802q0 20 14 32t31 12q13 0 22 -8.5t9 -22.5q0 -20 -13 -32t-31 -12q-14 0 -23 8t-9 23z"/>
            <glyph glyph-name="Zacute" unicode="&#x179;" horiz-adv-x="590"
                   d="M119 700l-8 -49h421l-556 -628l-4 -23h531l9 51h-450l561 630l3 19h-507zM385 783h-48l1 4l96 120h65v-1z"/>
            <glyph glyph-name="zacute" unicode="&#x17a;" horiz-adv-x="453"
                   d="M80 494l-8 -44h297l-389 -433l-3 -17h388l8 46h-311l387 429l3 19h-372zM291 585h-45l1 4l90 112h61v-1z"/>
            <glyph glyph-name="Zdotaccent" unicode="&#x17b;" horiz-adv-x="590"
                   d="M119 700l-8 -49h421l-556 -628l-4 -23h531l9 51h-450l561 630l3 19h-507zM361 816q0 23 15.5 36t35.5 13q16 0 26.5 -9t10.5 -26q0 -23 -15.5 -36.5t-34.5 -13.5q-16 0 -27 9.5t-11 26.5z"/>
            <glyph glyph-name="zdotaccent" unicode="&#x17c;" horiz-adv-x="453"
                   d="M80 494l-8 -44h297l-389 -433l-3 -17h388l8 46h-311l387 429l3 19h-372zM267 647q0 20 14.5 32.5t32.5 12.5q33 0 33 -32q0 -21 -14 -33.5t-31 -12.5q-14 0 -24.5 8.5t-10.5 24.5z"/>
            <glyph glyph-name="Zcaron" unicode="&#x17d;" horiz-adv-x="590"
                   d="M119 700l-8 -49h421l-556 -628l-4 -23h531l9 51h-450l561 630l3 19h-507zM579 910l-165 -132h-40l-119 132l1 7h52l89 -98l130 98h53z"/>
            <glyph glyph-name="zcaron" unicode="&#x17e;" horiz-adv-x="453"
                   d="M80 494l-8 -44h297l-389 -433l-3 -17h388l8 46h-311l387 429l3 19h-372zM460 694l-148 -120h-36l-108 120l1 6h47l80 -88l118 88h47z"/>
            <glyph glyph-name="longs" unicode="&#x17f;" horiz-adv-x="281"
                   d="M129 0h-48l79 447h-101l8 43h100l8 44q31 169 178 169q53 0 92 -34l-30 -36q-38 25 -72 25q-98 0 -120 -124z"/>
            <glyph glyph-name="florin" unicode="&#x192;" horiz-adv-x="430"
                   d="M109 -1l79 448h-101l7 43h101l8 44q31 169 178 169q53 0 92 -34l-30 -36q-39 25 -72 25q-97 0 -120 -124l-8 -44h163l-7 -43h-163l-79 -448q-14 -82 -51.5 -126t-113.5 -44q-48 0 -88 35l29 34q26 -25 69 -25q46 0 71 30t36 96z"/>
            <glyph glyph-name="Aringacute" unicode="&#x1fa;" horiz-adv-x="741"
                   d="M548 222h-376l263 426zM460 788q23 0 35.5 -11t12.5 -26q0 -18 -17 -32.5t-46 -14.5q-23 0 -34.5 10.5t-11.5 25.5q0 19 16.5 33.5t44.5 14.5zM357 734q0 -41 44 -57l-423 -677h58l106 172h418l47 -172h58l-185 677q70 23 70 80q0 32 -24.5 50t-59.5 18q-41 0 -75 -26
t-34 -65zM489 851h-50l1 3l100 81h68v-1z"/>
            <glyph glyph-name="aringacute" unicode="&#x1fb;" horiz-adv-x="631"
                   d="M586 494h-45l-21 -108q-19 55 -70 84.5t-114 29.5q-125 0 -212.5 -83.5t-87.5 -210.5q0 -95 58.5 -154.5t152.5 -59.5q144 0 223 113l-18 -105h47q14 82 43 247t44 247zM328 453q115 0 156 -87q37 -76 0 -169q-38 -95 -126 -135q-48 -22 -103 -22q-78 0 -123.5 47
t-45.5 126q0 105 69 172.5t173 67.5zM276 603q0 -30 21 -48t57 -18q47 0 79.5 25.5t32.5 67.5q0 31 -23.5 48.5t-56.5 17.5q-43 0 -76.5 -26t-33.5 -67zM379 667q23 0 35.5 -12.5t12.5 -29.5q0 -22 -18 -39t-49 -17q-22 0 -34 11.5t-12 29.5q0 22 18 39.5t47 17.5zM415 730
h-45l1 3l90 89h61v-1z"/>
            <glyph glyph-name="AEacute" unicode="&#x1fc;" horiz-adv-x="932"
                   d="M516 377l49 274h365l8 49h-448l-549 -700h62l191 248h250l-44 -248h429l9 51h-379l49 277h345l8 49h-345zM516 659l-64 -362h-221l280 362h5zM593 783h-48l1 4l96 120h65v-1z"/>
            <glyph glyph-name="aeacute" unicode="&#x1fd;" horiz-adv-x="1031"
                   d="M693 -6q142 0 229 94l-30 28q-33 -36 -86.5 -57t-104.5 -21q-79 0 -128.5 51t-42.5 135h447q37 136 -22 207t-173 71q-65 0 -124 -30t-99 -82l20 104h-41l-18 -108q-19 55 -70.5 84.5t-114.5 29.5q-120 0 -210 -84t-90 -210q0 -96 57 -154.5t154 -58.5q135 0 224 112
l-18 -105h41l18 108q21 -55 68.5 -84.5t113.5 -29.5zM327 453q115 0 157 -87q36 -75 0 -168q-37 -95 -126 -136q-48 -22 -104 -22q-82 0 -125.5 46.5t-43.5 126.5q0 103 72.5 171.5t169.5 68.5zM538 267q23 88 90.5 140t146.5 52q97 0 139.5 -50t26.5 -142h-403zM588 588
h-44l1 4l88 110h60z"/>
            <glyph glyph-name="Oslashacute" unicode="&#x1fe;" horiz-adv-x="815"
                   d="M85 -79h53l71 95q66 -28 145 -28q97 0 178.5 37t134 98t81.5 136t29 153q0 73 -24.5 136.5t-72.5 101.5l84 111h-54l-66 -88q-66 38 -163 38q-98 0 -179.5 -36t-134 -96t-81 -135t-28.5 -154t28.5 -147t84.5 -106zM472 661q79 0 140 -32l-407 -546q-46 33 -69.5 91
t-23.5 124q0 69 24.5 134t69 116t114 82t152.5 31zM363 38q-69 0 -120 23l404 543q77 -67 77 -201q0 -67 -25 -132t-70 -117t-114.5 -84t-151.5 -32zM522 785h-48l1 4l96 120h65v-1z"/>
            <glyph glyph-name="oslashacute" unicode="&#x1ff;"
                   d="M247 -7q122 0 211.5 82.5t89.5 213.5q0 109 -67 165l66 85h-51l-47 -62q-49 26 -112 26q-122 0 -211.5 -85t-89.5 -215q0 -113 72 -167l-70 -90h50l53 69q44 -22 106 -22zM329 457q48 0 87 -21l-276 -358q-55 44 -55 133q0 106 73 176t171 70zM256 41q-47 0 -82 16
l275 356q50 -47 50 -132q0 -106 -72 -173t-171 -67zM370 589h-43l1 4l86 108h59v-1z"/>
            <glyph glyph-name="Scommaaccent" unicode="&#x218;" horiz-adv-x="655"
                   d="M234 -246h-43l41 74q-19 7 -19 30q0 22 15 33.5t35 11.5q13 0 22 -8.5t9 -23.5q0 -12 -7 -24zM634 588l-40 -25q-22 47 -79 71t-119 25q-43 0 -83 -7t-78 -23.5t-60.5 -48t-22.5 -75.5q0 -27 14.5 -47t45.5 -33.5t60 -21t77 -17.5q49 -10 78.5 -17.5t68.5 -24t58.5 -37
t31 -54t3.5 -77.5q-10 -56 -42.5 -95.5t-79 -58t-90.5 -26t-94 -7.5q-90 0 -165.5 38.5t-100.5 113.5l48 24q20 -61 84 -93t137 -32q29 0 57 3t61 12.5t59 25t46 42.5t26 63q5 29 -4.5 53t-26.5 38.5t-48.5 27.5t-58 19.5t-66.5 14.5q-37 8 -56.5 12.5t-50 13t-48 18.5
t-36 24t-28 33.5t-11.5 43.5q-10 102 74 163t221 61q81 0 146.5 -31t91.5 -89z"/>
            <glyph glyph-name="scommaaccent" unicode="&#x219;" horiz-adv-x="500"
                   d="M168 -238h-44l42 75q-19 7 -19 30q0 22 15 33.5t34 11.5q14 0 23 -8.5t9 -23.5q0 -12 -7 -24zM461 436l-35 -31q-49 52 -146 52q-67 0 -116 -26t-49 -74q0 -21 9.5 -35.5t35 -24t35.5 -12t45 -8.5q3 -1 5 -1.5t4 -0.5q33 -6 55 -11t51.5 -16.5t46 -26t25.5 -39t2 -55.5
q-10 -51 -50.5 -83t-84 -42t-93.5 -10q-147 0 -198 101l38 29q48 -83 169 -83q59 0 109 21t61 73q5 24 -4 41.5t-33 28.5t-47 16.5t-59 11.5q-51 8 -84 18.5t-59.5 36.5t-26.5 65q0 74 65.5 113t155.5 38q114 0 173 -66z"/>
            <glyph glyph-name="uni021A" unicode="&#x21a;" horiz-adv-x="586"
                   d="M197 -239h-43l42 76q-19 7 -19 30q0 22 15 33.5t34 11.5q14 0 23 -8.5t9 -23.5q0 -12 -7 -24zM214 0l114 652h-253l9 48h560l-9 -48h-253l-114 -652h-54z"/>
            <glyph glyph-name="uni021B" unicode="&#x21b;" horiz-adv-x="369"
                   d="M150 -247h-44l42 75q-19 7 -19 30q0 22 15 33.5t35 11.5q13 0 22 -8.5t9 -23.5q0 -12 -7 -24zM196 638l49 5l-27 -149h157l-8 -43h-157l-52 -299q-10 -57 3.5 -85.5t67.5 -28.5q34 0 79 20l10 -40q-55 -25 -97 -25q-75 0 -100 41t-11 118l52 299h-105l8 43h105z"/>
            <glyph glyph-name="dotlessj" unicode="&#x237;" horiz-adv-x="207"
                   d="M115 495h47l-100 -570q-14 -81 -50 -125t-112 -44q-44 0 -85 24l21 42q32 -20 72 -20q52 0 73.5 31.5t32.5 91.5z"/>
            <glyph glyph-name="circumflex" unicode="&#x2c6;" horiz-adv-x="421"
                   d="M136 569l166 132h40l118 -132l-1 -7h-50l-93 100l-126 -100h-55z"/>
            <glyph glyph-name="caron" unicode="&#x2c7;" horiz-adv-x="404"
                   d="M482 694l-165 -132h-40l-119 132l1 7h52l89 -98l130 98h53z"/>
            <glyph glyph-name="breve" unicode="&#x2d8;" horiz-adv-x="333"
                   d="M364 700h42q-11 -58 -49 -90.5t-96 -32.5q-61 0 -89.5 32.5t-17.5 90.5h40q-16 -83 71 -83q83 0 99 83z"/>
            <glyph glyph-name="dotaccent" unicode="&#x2d9;" horiz-adv-x="206"
                   d="M173 661q0 20 14.5 32.5t32.5 12.5q33 0 33 -32q0 -21 -14 -33.5t-31 -12.5q-14 0 -24.5 8.5t-10.5 24.5z"/>
            <glyph glyph-name="ring" unicode="&#x2da;" horiz-adv-x="397"
                   d="M181 603q0 51 38.5 83t86.5 32q38 0 64.5 -21.5t26.5 -60.5q0 -52 -36.5 -82.5t-90.5 -30.5q-42 0 -65.5 22t-23.5 58zM298 682q-33 0 -53.5 -22t-20.5 -48q0 -22 13.5 -36t39.5 -14q35 0 55.5 20.5t20.5 47.5q0 21 -14 36.5t-41 15.5z"/>
            <glyph glyph-name="ogonek" unicode="&#x2db;" horiz-adv-x="407"
                   d="M218 -10l10 -31q-82 15 -119 -29q-26 -31 -9 -60q15 -25 54 -23q61 2 97 48l28 -18q-20 -32 -55.5 -50t-71.5 -20q-73 -3 -94 47q-18 44 18 88q46 58 136 49q3 -1 6 -1z"/>
            <glyph glyph-name="tilde" unicode="&#x2dc;" horiz-adv-x="325"
                   d="M176 628l-32 11q12 44 51 59.5t71 -4.5l37 -22q15 -10 35.5 -2.5t30.5 31.5l32 -11q-12 -45 -50.5 -61t-70.5 4l-38 22q-15 10 -35.5 3t-30.5 -30z"/>
            <glyph glyph-name="hungarumlaut" unicode="&#x2dd;" horiz-adv-x="352"
                   d="M183 588h-48l1 4l91 109h65v-1zM315 588h-48l1 4l91 109h65v-1z"/>
            <glyph glyph-name="_375" unicode="&#x394;" horiz-adv-x="693"
                   d="M488 700l191 -700h-687l437 700h59zM449 645l-370 -598h531z"/>
            <glyph glyph-name="_376" unicode="&#x3a9;" horiz-adv-x="796"
                   d="M461 0l8 45q112 23 186 109t94 196q15 85 -5 154t-81.5 113t-158.5 44q-164 0 -262.5 -108.5t-98.5 -254.5q0 -93 45 -163.5t133 -89.5l-8 -45h-249l8 46l146 -2q-64 32 -96.5 98.5t-32.5 149.5q0 79 28.5 153t81 134t134 96t179.5 36q145 0 221 -85t76 -213
q0 -118 -63 -219.5t-174 -149.5l164 2l-8 -46h-267z"/>
            <glyph glyph-name="mu" unicode="&#x3bc;" horiz-adv-x="593"
                   d="M449 70q-33 -46 -87.5 -69t-107 -21t-96.5 29t-57 73l-53 -308h-51q39 223 126 717h49q-30 -173 -51 -290q-18 -97 52 -147q60 -44 141 -24q91 21 133 109q15 31 22 68l50 284h49l-86 -491h-42z"/>
            <glyph glyph-name="pi" unicode="&#x3c0;" horiz-adv-x="663"
                   d="M136 0h-48l80 453h-122l7 41h616l-7 -41h-126l-56 -315q-11 -59 7.5 -84t81.5 -16l-7 -40q-84 -15 -114 24t-16 116l56 315h-272z"/>
            <glyph glyph-name="Wgrave" unicode="&#x1e80;" horiz-adv-x="1079"
                   d="M263 60l330 640h30l100 -640l331 640h58l-371 -702h-58l-53 328l-38 275l-138 -273l-170 -330h-58l-121 702h57zM640 783h-43l-57 117v1h59l42 -114z"/>
            <glyph glyph-name="wgrave" unicode="&#x1e81;" horiz-adv-x="818"
                   d="M811 494l-261 -494h-55l-42 216l-26 192l-96 -193l-118 -215h-54l-89 494h54l72 -437l228 437h35l72 -437l226 437h54zM475 592h-39l-53 108v1h55l38 -105z"/>
            <glyph glyph-name="Wacute" unicode="&#x1e82;" horiz-adv-x="1079"
                   d="M593 700l-330 -640l-101 640h-57l121 -702h58l170 330l138 273l38 -275l53 -328h58l371 702h-58l-331 -640l-100 640h-30zM641 783h-44l1 4l89 111h60v-1z"/>
            <glyph glyph-name="wacute" unicode="&#x1e83;" horiz-adv-x="818"
                   d="M550 0l261 494h-54l-226 -437l-72 437h-35l-228 -437l-72 437h-54l89 -494h54l118 215l96 193l26 -192l42 -216h55zM470 592h-42l1 4l84 105h57v-1z"/>
            <glyph glyph-name="Wdieresis" unicode="&#x1e84;" horiz-adv-x="1079"
                   d="M593 700l-330 -640l-101 640h-57l121 -702h58l170 330l138 273l38 -275l53 -328h58l371 702h-58l-331 -640l-100 640h-30zM485 833q0 21 14.5 33.5t32.5 12.5q14 0 23.5 -8.5t9.5 -23.5q0 -21 -13.5 -33.5t-32.5 -12.5q-34 0 -34 32zM702 833q0 21 14.5 33.5t32.5 12.5
q14 0 23.5 -8.5t9.5 -23.5q0 -21 -13.5 -33.5t-32.5 -12.5q-34 0 -34 32z"/>
            <glyph glyph-name="wdieresis" unicode="&#x1e85;" horiz-adv-x="818"
                   d="M550 0l261 494h-54l-226 -437l-72 437h-35l-228 -437l-72 437h-54l89 -494h54l118 215l96 193l26 -192l42 -216h55zM336 656q0 20 13.5 31.5t30.5 11.5q12 0 21 -8t9 -22q0 -20 -12.5 -31.5t-30.5 -11.5q-31 0 -31 30zM537 656q0 20 13.5 31.5t30.5 11.5q13 0 22 -8
t9 -22q0 -19 -13 -31t-30 -12q-32 0 -32 30z"/>
            <glyph glyph-name="Ygrave" unicode="&#x1ef2;" horiz-adv-x="657"
                   d="M246 0l49 280l-199 419v1h62l170 -370l306 370h63v-1l-348 -419l-49 -280h-54zM432 783h-42l-55 114h57l40 -110v-4z"/>
            <glyph glyph-name="ygrave" unicode="&#x1ef3;" horiz-adv-x="598"
                   d="M417 -19l20 108q-70 -95 -196 -97q-100 0 -151 58.5t-33 159.5l50 284h49l-50 -283q-15 -84 22 -128.5t124 -43.5q76 1 133 52.5t71 128.5l48 274h49l-90 -512q-21 -119 -89.5 -177.5t-175.5 -58.5q-101 0 -146.5 46.5t-35.5 129.5h44q-7 -66 30 -98t116 -32q80 0 137 46
t74 143zM368 589h-41l-54 111v1h56l40 -108z"/>
            <glyph glyph-name="endash" unicode="&#x2013;" horiz-adv-x="592"
                   d="M66 259l9 51h446l-9 -51h-446z"/>
            <glyph glyph-name="emdash" unicode="&#x2014;" horiz-adv-x="697"
                   d="M64 257l9 51h553l-9 -51h-553z"/>
            <glyph glyph-name="quoteleft" unicode="&#x2018;" horiz-adv-x="209"
                   d="M185 701h44l-73 -163h-57z"/>
            <glyph glyph-name="quoteright" unicode="&#x2019;" horiz-adv-x="208"
                   d="M145 532h-44l75 169h57z"/>
            <glyph glyph-name="quotesinglbase" unicode="&#x201a;" horiz-adv-x="227"
                   d="M21 -105h-44l75 169h57z"/>
            <glyph glyph-name="quotedblleft" unicode="&#x201c;" horiz-adv-x="339"
                   d="M314 698h44l-77 -168h-57zM188 698h44l-77 -168h-57z"/>
            <glyph glyph-name="quotedblright" unicode="&#x201d;" horiz-adv-x="333"
                   d="M146 540h-44l73 161h57zM272 540h-44l73 161h57z"/>
            <glyph glyph-name="quotedblbase" unicode="&#x201e;" horiz-adv-x="347"
                   d="M21 -105h-44l75 169h57zM141 -105h-44l75 169h57z"/>
            <glyph glyph-name="dagger" unicode="&#x2020;" horiz-adv-x="551"
                   d="M552 503l-8 -47h-216l-104 -588h-49l104 588h-216l8 47h216l35 197h49l-35 -197h216z"/>
            <glyph glyph-name="daggerdbl" unicode="&#x2021;" horiz-adv-x="596"
                   d="M575 503l-9 -47h-216l-49 -278h216l-8 -47h-216l-46 -263h-49l46 263h-216l8 47h216l49 278h-216l9 47h216l34 197h49l-34 -197h216z"/>
            <glyph glyph-name="bullet" unicode="&#x2022;" horiz-adv-x="381"
                   d="M172 189q-37 0 -60 22t-23 58q0 49 34.5 80.5t82.5 31.5q36 0 58.5 -22t22.5 -58q0 -48 -34 -80t-81 -32z"/>
            <glyph glyph-name="ellipsis" unicode="&#x2026;" horiz-adv-x="603"
                   d="M27 23q0 21 14.5 33.5t32.5 12.5q14 0 23.5 -8.5t9.5 -23.5q0 -21 -14 -33.5t-33 -12.5q-14 0 -23.5 8.5t-9.5 23.5zM218 23q0 21 14.5 33.5t32.5 12.5q14 0 23.5 -8.5t9.5 -23.5q0 -21 -14 -33.5t-33 -12.5q-14 0 -23.5 8.5t-9.5 23.5zM409 23q0 21 14.5 33.5t32.5 12.5
q14 0 23.5 -8.5t9.5 -23.5q0 -21 -14 -33.5t-33 -12.5q-14 0 -23.5 8.5t-9.5 23.5z"/>
            <glyph glyph-name="perthousand" unicode="&#x2030;" horiz-adv-x="1127"
                   d="M697 702h-57l-571 -702h56zM263 705q63 0 97 -35t34 -87q0 -68 -48.5 -120.5t-133.5 -52.5q-65 0 -96 35t-32 89q0 71 51 121t128 50zM258 664q-58 0 -94.5 -37.5t-36.5 -84.5q0 -39 21.5 -64.5t69.5 -25.5q58 0 93.5 37.5t35.5 84.5q0 39 -21 64.5t-68 25.5zM559 290
q63 0 97 -35t34 -87q0 -68 -48.5 -120.5t-133.5 -52.5q-65 0 -96 35t-32 89q0 71 51 121t128 50zM554 249q-58 0 -94.5 -37.5t-36.5 -84.5q0 -39 21.5 -64.5t69.5 -25.5q58 0 93.5 37.5t35.5 84.5q0 39 -21 64.5t-68 25.5zM935 290q63 0 97 -35t34 -87q0 -68 -48.5 -120.5
t-133.5 -52.5q-65 0 -96 35t-32 89q0 71 51 121t128 50zM930 249q-58 0 -94.5 -37.5t-36.5 -84.5q0 -39 21.5 -64.5t69.5 -25.5q58 0 93.5 37.5t35.5 84.5q0 39 -21 64.5t-68 25.5z"/>
            <glyph glyph-name="guilsinglleft" unicode="&#x2039;" horiz-adv-x="295"
                   d="M51 299l176 219h52l-1 -5l-172 -214l97 -214l-1 -6h-52z"/>
            <glyph glyph-name="guilsinglright" unicode="&#x203a;" horiz-adv-x="295"
                   d="M245 295l-177 -220h-52l1 6l173 214l-97 214v5h52z"/>
            <glyph glyph-name="fraction" unicode="&#x2044;" horiz-adv-x="154"
                   d="M-134 -2h-53l495 705h54z"/>
            <glyph glyph-name="zerosuperior" unicode="&#x2070;" horiz-adv-x="374"
                   d="M152 653l-9 -52q-13 -74 37 -102q43 -24 92 3q53 30 65 99l9 52q13 77 -36 105q-43 25 -93 -4q-52 -32 -65 -101zM96 601l9 52q17 98 97 139q67 35 129 8q66 -29 67 -110q0 -18 -3 -37l-9 -52q-17 -96 -96 -138q-67 -36 -129 -9q-67 28 -68 108z"/>
            <glyph glyph-name="foursuperior" unicode="&#x2074;" horiz-adv-x="343"
                   d="M290 807h65l-41 -233h42l-8 -44h-42l-14 -78h-45l14 78h-192l4 37zM130 574h139l33 189z"/>
            <glyph glyph-name="fivesuperior" unicode="&#x2075;" horiz-adv-x="355"
                   d="M236 631h-126l31 176h249l-8 -43h-204l-16 -91h81q63 0 94 -26t31 -70q0 -57 -42.5 -94t-121.5 -37q-57 0 -92 23.5t-26 78.5h44q-10 -59 82 -59q108 0 108 81q0 25 -19 43t-65 18z"/>
            <glyph glyph-name="sixsuperior" unicode="&#x2076;" horiz-adv-x="369"
                   d="M225 481q42 0 74 19t32 61q0 30 -24.5 45.5t-56.5 15.5q-37 0 -69 -18t-39 -52q-6 -37 19.5 -54t63.5 -17zM166 694l-11 -67q39 35 102 35q52 0 87 -22t35 -70q0 -65 -48.5 -97t-112.5 -32q-59 0 -96 27.5t-27 83.5l25 142q10 57 54.5 85.5t101.5 28.5q58 0 92 -23
t29 -68h-45q2 23 -19 35.5t-64 12.5q-90 0 -103 -71z"/>
            <glyph glyph-name="sevensuperior" unicode="&#x2077;" horiz-adv-x="309"
                   d="M110 764l8 43h259v-22l-241 -334h-55l228 313h-199z"/>
            <glyph glyph-name="eightsuperior" unicode="&#x2078;" horiz-adv-x="377"
                   d="M244 609q-42 0 -75.5 -19t-33.5 -56q0 -28 27.5 -41t58.5 -13q33 0 67 15t41 46q6 34 -20.5 51t-64.5 17zM213 438q-53 0 -91.5 20.5t-38.5 67.5q0 41 28 68.5t68 35.5q-59 19 -59 70q0 56 49.5 83t109.5 27q50 0 87.5 -20t37.5 -63q0 -72 -88 -98q28 -6 46 -26.5
t18 -49.5q0 -42 -27.5 -69t-63 -36.5t-76.5 -9.5zM272 771q-38 0 -70 -15.5t-32 -50.5q0 -27 23.5 -39.5t57.5 -12.5q42 0 73 16.5t31 50.5q0 27 -26 39t-57 12z"/>
            <glyph glyph-name="ninesuperior" unicode="&#x2079;" horiz-adv-x="371"
                   d="M262 768q-42 0 -74.5 -19t-32.5 -61q0 -31 24.5 -46t57.5 -15q37 0 69 18t38 52q7 37 -18.5 54t-63.5 17zM320 555l12 67q-39 -35 -102 -35q-53 0 -88 21.5t-35 70.5q0 65 49 97t113 32q59 0 95.5 -27.5t26.5 -83.5l-25 -142q-10 -57 -54.5 -85.5t-101.5 -28.5t-91 23
t-30 68h45q-2 -23 19.5 -35.5t64.5 -12.5q90 0 102 71z"/>
            <glyph glyph-name="zeroinferior" unicode="&#x2080;" horiz-adv-x="375"
                   d="M58 117l-9 -52q-13 -74 37 -102q43 -24 92 3q53 30 65 99l9 52q13 77 -36 105q-43 25 -93 -4q-53 -31 -65 -101zM2 65l9 52q17 97 97 139q67 34 129 7q66 -29 67 -109q0 -18 -3 -37l-9 -52q-17 -95 -96 -137q-67 -35 -129 -9q-66 28 -68 107q-1 19 3 39z"/>
            <glyph glyph-name="oneinferior" unicode="&#x2081;" horiz-adv-x="236"
                   d="M-31 -87l7 41h63l46 260l-57 -14l7 44l107 23l-55 -313h65l-7 -41h-176z"/>
            <glyph glyph-name="twoinferior" unicode="&#x2082;" horiz-adv-x="355"
                   d="M69 167h-46q19 106 154 106q116 0 116 -87q0 -40 -16 -67.5t-42 -39t-48 -16t-47 -4.5q-33 0 -64 -15t-38 -53l-5 -30h219l-9 -49h-267q3 17 7 41t7 39q9 52 54.5 80.5t102.5 28.5q98 0 98 78q0 52 -77 52q-41 0 -66.5 -13t-32.5 -51z"/>
            <glyph glyph-name="threeinferior" unicode="&#x2083;" horiz-adv-x="355"
                   d="M139 75h-55l8 43h51q37 0 66.5 15t29.5 47q0 21 -19.5 36t-56.5 15q-32 0 -62.5 -15t-36.5 -50h-43q9 53 51.5 79t97.5 26q50 0 83 -21.5t33 -62.5q0 -35 -20.5 -59t-52.5 -32q25 -7 38.5 -27t13.5 -42q0 -63 -46 -91.5t-114 -28.5q-58 0 -91.5 25.5t-24.5 81.5h48
q-5 -27 10 -42t31 -18t36 -3q17 0 32.5 2.5t32.5 9.5t27.5 22t10.5 37q0 20 -19 36.5t-59 16.5z"/>
            <glyph glyph-name="fourinferior" unicode="&#x2084;" horiz-adv-x="343"
                   d="M196 268h65l-41 -233h42l-8 -44h-42l-14 -78h-45l14 78h-192l4 37zM36 35h139l33 189z"/>
            <glyph glyph-name="fiveinferior" unicode="&#x2085;" horiz-adv-x="356"
                   d="M141 92h-126l31 176h249l-8 -43h-204l-16 -91h81q63 0 94 -26t31 -70q0 -57 -42.5 -94t-121.5 -37q-57 0 -92 23.5t-26 78.5h44q-10 -59 82 -59q108 0 108 81q0 25 -19 43t-65 18z"/>
            <glyph glyph-name="sixinferior" unicode="&#x2086;" horiz-adv-x="370"
                   d="M131 -54q42 0 74 19t32 61q0 30 -24.5 45.5t-56.5 15.5q-37 0 -69 -18t-39 -52q-6 -37 19.5 -54t63.5 -17zM72 159l-11 -67q39 35 102 35q52 0 87 -21.5t35 -70.5q0 -65 -48.5 -97t-112.5 -32q-59 0 -96 27.5t-27 83.5l25 142q10 57 54.5 85.5t101.5 28.5t91 -23t30 -68
h-45q2 23 -19 35.5t-64 12.5q-90 0 -103 -71z"/>
            <glyph glyph-name="seveninferior" unicode="&#x2087;" horiz-adv-x="309"
                   d="M15 226l8 43h259v-22l-241 -334h-55l228 313h-199z"/>
            <glyph glyph-name="eightinferior" unicode="&#x2088;" horiz-adv-x="376"
                   d="M150 79q-42 0 -75.5 -19t-33.5 -56q0 -28 27.5 -41t58.5 -13q33 0 67 15t41 46q6 34 -20.5 51t-64.5 17zM119 -92q-53 0 -91.5 20.5t-38.5 67.5q0 41 28 68.5t68 35.5q-59 19 -59 70q0 56 49.5 83t109.5 27q50 0 87.5 -20t37.5 -63q0 -72 -88 -98q28 -6 46 -26.5
t18 -49.5q0 -42 -27.5 -69t-63 -36.5t-76.5 -9.5zM178 241q-38 0 -70 -15.5t-32 -50.5q0 -27 23.5 -39.5t57.5 -12.5q42 0 73 16.5t31 50.5q0 27 -26 39t-57 12z"/>
            <glyph glyph-name="nineinferior" unicode="&#x2089;" horiz-adv-x="371"
                   d="M168 233q-42 0 -74.5 -19t-32.5 -61q0 -30 24.5 -45.5t57.5 -15.5q37 0 69 18t38 52q7 37 -18.5 54t-63.5 17zM226 20l12 67q-39 -35 -102 -35q-53 0 -88 21.5t-35 70.5q0 65 49 97t113 32q59 0 95.5 -27.5t26.5 -83.5l-25 -142q-10 -57 -54.5 -85.5t-101.5 -28.5t-91 23
t-30 68h45q-2 -23 19.5 -35.5t64.5 -12.5q90 0 102 71z"/>
            <glyph glyph-name="Euro" unicode="&#x20ac;" horiz-adv-x="610"
                   d="M514 62l6 -48q-68 -22 -128 -22q-290 0 -292 280h-64l8 46h58q0 4 4 28q5 23 7 31h-58l8 46h64q39 127 141 206t250 79q46 0 96 -15l-18 -43q-42 12 -86 12q-249 0 -329 -239h273l-21 -46h-267q-2 -5 -7 -29q-4 -28 -4 -30h253l-18 -46h-236q-3 -112 58.5 -171t187.5 -59
q57 0 114 20z"/>
            <glyph glyph-name="afii61289" unicode="&#x2113;" horiz-adv-x="404"
                   d="M195 242l-17 -95q-8 -44 26.5 -61.5t92.5 -4.5l-13 -69q-51 -16 -91.5 -16t-70 16t-41 54.5t-1.5 96.5l-53 -24l-6 46q32 13 67 30l59 333q16 91 56.5 129t128.5 38q135 0 76 -193q-42 -146 -213 -280zM246 548q-6 -31 -22 -119.5t-21 -117.5q130 124 159 220
q8 26 11 43.5t3.5 40.5t-12.5 35.5t-39 12.5q-28 0 -49.5 -34.5t-29.5 -80.5z"/>
            <glyph glyph-name="uni2117" unicode="&#x2117;" horiz-adv-x="838"
                   d="M493 713q145 0 224 -85.5t79 -217.5q0 -112 -52 -209t-152 -157.5t-228 -60.5q-145 0 -224 86t-79 218q0 112 52 208.5t152.5 157t227.5 60.5zM112 291q0 -116 67.5 -189.5t192.5 -73.5q165 0 269.5 110.5t104.5 266.5q0 116 -68 190t-193 74q-110 0 -196.5 -52.5
t-131.5 -138t-45 -187.5zM462 286q86 0 130 69q36 57 17 114q-30 62 -100 66h-170l-67 -383h47l23 134h120zM350 328l28 161h123q54 0 65 -46q11 -44 -22 -82q-29 -33 -74 -33h-120z"/>
            <glyph glyph-name="trademark" unicode="&#x2122;" horiz-adv-x="786"
                   d="M192 420l42 240h-112l7 40h273l-7 -40h-114l-42 -240h-47zM407 420l49 280h44l89 -147l142 147h42l-49 -280h-47l35 202l-131 -132h-9l-82 136l-36 -206h-47z"/>
            <glyph glyph-name="Omega" unicode="&#x2126;" horiz-adv-x="823"
                   d="M434 0l8 45q112 23 186 109t94 196q15 85 -5 154t-81.5 113t-158.5 44q-164 0 -262.5 -108.5t-98.5 -254.5q0 -93 45 -163.5t133 -89.5l-8 -45h-249l8 46l146 -2q-64 32 -96.5 98.5t-32.5 149.5q0 79 28.5 153t81 134t134 96t179.5 36q145 0 221 -85t76 -213
q0 -118 -63 -219.5t-174 -149.5l146 2l-8 -46h-249z"/>
            <glyph glyph-name="estimated" unicode="&#x212e;" horiz-adv-x="651"
                   d="M282 -7q-99 0 -160.5 62.5t-61.5 174.5q0 165 95.5 260.5t230.5 95.5q58 0 103 -16.5t78.5 -54t39 -99.5t-15.5 -153h-402l-30 -170q48 -53 132 -53q125 0 206 93l32 -29q-54 -61 -113.5 -86t-133.5 -25zM378 539q-88 0 -148 -46l-33 -183h283l33 186q-47 43 -135 43z
"/>
            <glyph glyph-name="onethird" unicode="&#x2153;" horiz-adv-x="729"
                   d="M60 357l7 41h63l46 260l-57 -14l7 44l107 23l-55 -313h65l-7 -41h-176zM533 165h-55l8 43h51q37 0 66.5 15t29.5 47q0 21 -19.5 36t-56.5 15q-32 0 -62 -15t-37 -50h-43q10 53 52 79t97 26q50 0 83 -21.5t33 -62.5q0 -35 -20.5 -59t-52.5 -32q25 -7 38.5 -27t13.5 -42
q0 -63 -46 -91.5t-113 -28.5q-58 0 -92 25.5t-25 81.5h48q-5 -27 10 -41.5t30.5 -17.5t36.5 -3q103 0 103 70q0 20 -19 36.5t-59 16.5zM119 -2h-53l495 705h54z"/>
            <glyph glyph-name="twothirds" unicode="&#x2154;" horiz-adv-x="810"
                   d="M614 165h-55l7 43h51q37 0 67 15t30 47q0 21 -20 36t-57 15q-32 0 -62 -15t-36 -50h-43q9 53 51 79t97 26q50 0 83.5 -21.5t33.5 -62.5q0 -35 -20.5 -59t-53.5 -32q25 -7 39 -27t14 -42q0 -63 -46.5 -91.5t-113.5 -28.5q-58 0 -91.5 25.5t-24.5 81.5h48q-5 -27 10 -41.5
t30.5 -17.5t36.5 -3q103 0 103 70q0 20 -19 36.5t-59 16.5zM199 -2h-53l496 705h54zM153 603h-46q19 106 154 106q116 0 116 -87q0 -40 -16 -67.5t-42 -39t-48 -16t-47 -4.5q-33 0 -64.5 -15t-38.5 -53l-6 -32h212l-8 -47h-259q3 17 7 41t7 39q9 52 54.5 80.5t102.5 28.5
q98 0 98 78q0 52 -77 52q-41 0 -66.5 -13t-32.5 -51z"/>
            <glyph glyph-name="oneeighth" unicode="&#x215b;" horiz-adv-x="759"
                   d="M60 357l7 41h63l46 260l-57 -14l7 44l108 23l-55 -313h64l-7 -41h-176zM119 -2h-53l495 705h54zM549 163q-42 0 -75.5 -19t-33.5 -56q0 -28 27.5 -41t58.5 -13q34 0 68 15t40 46q6 34 -20.5 51t-64.5 17zM519 -8q-53 0 -92 20.5t-39 67.5q0 41 28 68.5t68 35.5
q-59 19 -59 70q0 56 49.5 83t109.5 27q51 0 88.5 -20t37.5 -63q0 -72 -89 -98q28 -6 46 -26.5t18 -49.5q0 -42 -27.5 -69t-62.5 -36.5t-76 -9.5zM577 325q-38 0 -70 -15.5t-32 -50.5q0 -27 23.5 -39.5t58.5 -12.5q42 0 72.5 16.5t30.5 50.5q0 27 -26 39t-57 12z"/>
            <glyph glyph-name="threeeighths" unicode="&#x215c;" horiz-adv-x="814"
                   d="M184 -2h-53l495 705h54zM605 163q-42 0 -75.5 -19t-33.5 -56q0 -28 27.5 -41t58.5 -13q34 0 68 15t40 46q6 34 -20.5 51t-64.5 17zM575 -8q-53 0 -92 20.5t-39 67.5q0 41 28 68.5t69 35.5q-60 19 -60 70q0 56 49.5 83t109.5 27q51 0 88.5 -20t37.5 -63q0 -72 -89 -98
q28 -6 46 -26.5t18 -49.5q0 -42 -27.5 -69t-62.5 -36.5t-76 -9.5zM633 325q-38 0 -70 -15.5t-32 -50.5q0 -27 23.5 -39.5t58.5 -12.5q42 0 72.5 16.5t30.5 50.5q0 27 -26 39t-57 12zM220 510h-55l8 43h51q37 0 66.5 15t29.5 47q0 21 -19.5 36t-56.5 15q-32 0 -62.5 -15
t-36.5 -50h-43q9 53 51.5 79t97.5 26q50 0 83 -21.5t33 -62.5q0 -35 -20.5 -59t-52.5 -32q25 -7 38.5 -27t13.5 -42q0 -63 -46 -91.5t-114 -28.5q-58 0 -91.5 25.5t-24.5 81.5h48q-5 -27 10 -41.5t30.5 -17.5t36.5 -3q103 0 103 70q0 20 -19 36.5t-59 16.5z"/>
            <glyph glyph-name="fiveeighths" unicode="&#x215d;" horiz-adv-x="820"
                   d="M190 -2h-53l495 705h54zM611 163q-42 0 -75.5 -19t-33.5 -56q0 -28 27.5 -41t58.5 -13q33 0 67 15t41 46q6 34 -20.5 51t-64.5 17zM581 -8q-53 0 -92 20.5t-39 67.5q0 41 28 68.5t68 35.5q-59 19 -59 70q0 56 49.5 83t109.5 27q50 0 88 -20t38 -63q0 -72 -89 -98
q28 -6 46 -26.5t18 -49.5q0 -42 -27.5 -69t-62.5 -36.5t-76 -9.5zM639 325q-38 0 -70 -15.5t-32 -50.5q0 -27 23.5 -39.5t57.5 -12.5q42 0 73 16.5t31 50.5q0 27 -26 39t-57 12zM221 527h-126l31 176h249l-8 -43h-204l-16 -91h81q63 0 94 -26t31 -70q0 -57 -42.5 -94
t-121.5 -37q-57 0 -92 23.5t-26 78.5h44q-10 -59 82 -59q108 0 108 81q0 25 -19 43t-65 18z"/>
            <glyph glyph-name="seveneighths" unicode="&#x215e;" horiz-adv-x="738"
                   d="M107 -2h-53l495 705h54zM528 163q-42 0 -75.5 -19t-33.5 -56q0 -27 28 -40.5t58 -13.5q34 0 68 15t40 46q6 34 -20.5 51t-64.5 17zM498 -8q-53 0 -92 20.5t-39 67.5q0 40 28.5 68t68.5 36q-60 19 -60 70q0 56 49.5 83t110.5 27q50 0 87.5 -20t37.5 -63q0 -72 -88 -98
q27 -6 45 -27t18 -49q0 -42 -27.5 -69t-62.5 -36.5t-76 -9.5zM557 325q-38 0 -70 -15.5t-32 -50.5q0 -27 23 -39.5t58 -12.5q42 0 72.5 16.5t30.5 50.5q0 27 -25.5 39t-56.5 12zM102 659l7 43h259v-22l-241 -334h-55l229 313h-199z"/>
            <glyph glyph-name="arrowleft" unicode="&#x2190;" horiz-adv-x="645"
                   d="M235 140l-174 211l248 211l24 -28l-184 -159h443l-8 -49h-442l127 -158z"/>
            <glyph glyph-name="arrowup" unicode="&#x2191;" horiz-adv-x="494"
                   d="M55 404l248 211l174 -211l-33 -29l-132 156l-78 -443h-49l78 442l-185 -155z"/>
            <glyph glyph-name="arrowright" unicode="&#x2192;" horiz-adv-x="644"
                   d="M429 562l174 -211l-248 -211l-24 28l184 159h-443l9 49h442l-128 158z"/>
            <glyph glyph-name="arrowdown" unicode="&#x2193;" horiz-adv-x="495"
                   d="M457 288l-248 -211l-174 211l33 29l132 -156l78 443h49l-78 -442l185 155z"/>
            <glyph glyph-name="uni2196" unicode="&#x2196;" horiz-adv-x="495"
                   d="M55 239l53 299h299l-8 -41l-222 -2l258 -313l-41 -35l-257 313l-41 -221h-41z"/>
            <glyph glyph-name="uni2197" unicode="&#x2197;" horiz-adv-x="500"
                   d="M475 538l-53 -299h-41l37 221l-367 -313l-29 35l368 313l-221 2l7 41h299z"/>
            <glyph glyph-name="uni2198" unicode="&#x2198;" horiz-adv-x="545"
                   d="M467 462l-53 -299h-299l7 41l223 2l-258 313l41 35l257 -313l41 221h41z"/>
            <glyph glyph-name="uni2199" unicode="&#x2199;" horiz-adv-x="548"
                   d="M84 163l53 299h41l-37 -221l367 313l29 -35l-368 -313l221 -2l-7 -41h-299z"/>
            <glyph glyph-name="partialdiff" unicode="&#x2202;" horiz-adv-x="607"
                   d="M549 253q-20 -118 -102 -191t-199 -73q-137 0 -190 99q-45 85 -9 193q36 110 134 167q69 40 153 40q57 0 106 -25t74 -79q-10 101 -83 174t-166 99l21 41q315 -114 261 -445zM254 35q120 0 192 94q60 78 53 168q-8 93 -85 129q-37 17 -85 17q-120 0 -193 -94
q-60 -78 -53 -168q8 -92 84 -128q37 -18 87 -18z"/>
            <glyph glyph-name="Delta" unicode="&#x2206;" horiz-adv-x="746"
                   d="M474 700l191 -700h-687l437 700h59zM438 651l-373 -604h529z"/>
            <glyph glyph-name="product" unicode="&#x220f;" horiz-adv-x="681"
                   d="M499 -188h-54l148 839h-379l-148 -839h-54l157 888h487z"/>
            <glyph glyph-name="summation" unicode="&#x2211;" horiz-adv-x="574"
                   d="M351 362l-270 -309h397l-9 -53h-485l4 23l301 345l-167 313l3 19h461l-8 -50h-381z"/>
            <glyph glyph-name="minus" unicode="&#x2212;" horiz-adv-x="530"
                   d="M79 313l9 51h375l-9 -51h-375z"/>
            <glyph glyph-name="uni2215" unicode="&#x2215;" horiz-adv-x="424"
                   d="M2 -2h-53l495 705h54z"/>
            <glyph glyph-name="uni2219" unicode="&#x2219;" horiz-adv-x="225"
                   d="M74 303q0 21 14.5 33.5t33.5 12.5q13 0 22.5 -8.5t9.5 -23.5q0 -21 -14.5 -33.5t-32.5 -12.5q-14 0 -23.5 8.5t-9.5 23.5z"/>
            <glyph glyph-name="radical" unicode="&#x221a;" horiz-adv-x="615"
                   d="M670 698l-362 -698h-55l-104 364l-103 -43l-11 42l166 68l92 -363l334 642z"/>
            <glyph glyph-name="infinity" unicode="&#x221e;" horiz-adv-x="802"
                   d="M210 217q25 0 52 12.5t39.5 22t45 40t37.5 34.5q-1 2 -9 14.5t-10 15.5l-10 15t-11.5 15.5t-11.5 13t-13.5 13t-14.5 10t-17 9t-18 4.5t-20 2q-78 0 -119 -62q-35 -53 -15 -103q22 -54 95 -56zM564 217q82 2 121 65q33 53 12 102q-22 54 -94 54q-25 0 -51 -12.5
t-41.5 -25t-42.5 -38.5t-39 -36q7 -8 33 -43.5t48 -50.5t54 -15zM200 171q-98 0 -128 73q-27 64 12 136q41 78 127 98q24 5 48 5q50 0 84.5 -31.5t70.5 -87.5q117 119 194 119q97 0 130 -73q28 -64 -8 -136q-40 -78 -125 -98q-23 -5 -48 -5q-50 0 -85.5 30.5t-71.5 85.5
q-54 -55 -100.5 -85.5t-99.5 -30.5z"/>
            <glyph glyph-name="integral" unicode="&#x222b;" horiz-adv-x="447"
                   d="M140 -1l94 535q29 169 178 169q53 0 92 -34l-30 -36q-39 25 -72 25q-98 0 -120 -124l-94 -535q-14 -82 -51.5 -126t-113.5 -44q-48 0 -88 35l29 34q26 -25 69 -25q46 0 71 30t36 96z"/>
            <glyph glyph-name="approxequal" unicode="&#x2248;" horiz-adv-x="556"
                   d="M125 384l-29 24q70 82 166 47l94 -41q73 -26 113 31l33 -21q-60 -87 -160 -53l-101 43q-65 23 -116 -30zM91 192l-29 24q32 38 74 50.5t92 -3.5l94 -42q72 -26 114 32l32 -21q-60 -87 -160 -53l-101 43q-65 23 -116 -30z"/>
            <glyph glyph-name="notequal" unicode="&#x2260;" horiz-adv-x="549"
                   d="M54 193l9 49h132l120 148h-226l9 50h257l54 67l26 -17l-40 -50h102l-9 -50h-133l-119 -148h226l-9 -49h-257l-58 -72l-27 17l44 55h-101z"/>
            <glyph glyph-name="lessequal" unicode="&#x2264;" horiz-adv-x="448"
                   d="M109 429l270 156l16 -35l-246 -140l199 -152l-33 -34l-213 166zM46 101l8 44h291l-8 -44h-291z"/>
            <glyph glyph-name="greaterequal" unicode="&#x2265;" horiz-adv-x="446"
                   d="M171 585l216 -156l-7 -39l-271 -166l-21 34l251 152l-196 140zM342 145l-8 -44h-291l8 44h291z"/>
            <glyph glyph-name="lozenge" unicode="&#x25ca;" horiz-adv-x="553"
                   d="M526 352l-282 -345h-40l-155 345l277 344h40zM336 645l-226 -294l122 -294l239 294z"/>
            <glyph glyph-name="commaaccent" unicode="&#xf6c3;" horiz-adv-x="462"
                   d="M156 -148q0 22 15 33.5t34 11.5q13 0 22.5 -9t9.5 -24q0 -4 -0.5 -6.5t-2 -7.5t-3.5 -9t-7.5 -13.5t-11.5 -19.5t-17 -29t-23 -40h-43l46 83q-19 7 -19 30z"/>
            <glyph glyph-name="fi" unicode="&#xfb01;" horiz-adv-x="545"
                   d="M427 683l-24 -40q-26 15 -60 15q-97 0 -120 -124l-8 -44h156l-8 -43h-155l-79 -447h-48l79 447h-101l8 43h100l8 44q31 169 178 169q42 0 74 -20zM453 496h49l-88 -496h-49zM466 648q0 22 15 34t34 12q13 0 22 -8.5t9 -23.5q0 -21 -14 -33.5t-32 -12.5q-14 0 -24 8.5
t-10 23.5z"/>
            <glyph glyph-name="fl" unicode="&#xfb02;" horiz-adv-x="540"
                   d="M424 683l-24 -39q-25 15 -57 15q-97 0 -120 -125l-8 -44h153l-8 -43h-152l-79 -447h-48l79 447h-101l8 43h100l8 44q31 169 178 169q39 0 71 -20zM476 700h49l-124 -700h-49z"/>
            <glyph glyph-name="CR" horiz-adv-x="322"
            />
            <glyph glyph-name="g.alt" horiz-adv-x="606"
                   d="M487 457l61 59l27 -26l-61 -61q43 -59 43 -127q0 -84 -54 -161t-146 -98q56 -13 93 -48.5t37 -87.5q0 -96 -82.5 -150t-203.5 -54q-103 0 -164 53t-45 144h48q-6 -40 5 -69.5t36.5 -47t57.5 -25.5t71 -8q91 0 158.5 38t67.5 113q0 58 -53.5 88.5t-125.5 30.5
q-100 0 -158.5 52.5t-58.5 145.5q0 68 28 123.5t72.5 89.5t96.5 52.5t104 18.5q91 0 146 -45zM334 456q-42 0 -83.5 -14t-78 -41t-59.5 -73t-23 -103q0 -79 45 -119t124 -40q103 0 176.5 69t73.5 160q0 79 -50.5 120t-124.5 41z"/>
            <glyph glyph-name="gcircumflex.alt" horiz-adv-x="606"
                   d="M195 576l168 132h37l119 -132l-1 -7h-49l-91 99l-133 -99h-51zM487 457l61 59l27 -26l-61 -61q43 -59 43 -127q0 -84 -54 -161t-146 -98q56 -13 93 -48.5t37 -87.5q0 -96 -82.5 -150t-203.5 -54q-103 0 -164 53t-45 144h48q-6 -40 5 -69.5t36.5 -47t57.5 -25.5t71 -8
q91 0 158.5 38t67.5 113q0 58 -53.5 88.5t-125.5 30.5q-100 0 -158.5 52.5t-58.5 145.5q0 68 28 123.5t72.5 89.5t96.5 52.5t104 18.5q91 0 146 -45zM334 456q-42 0 -83.5 -14t-78 -41t-59.5 -73t-23 -103q0 -79 45 -119t124 -40q103 0 176.5 69t73.5 160q0 79 -50.5 120
t-124.5 41z"/>
            <glyph glyph-name="gbreve.alt" horiz-adv-x="606"
                   d="M469 704h42q-11 -58 -48.5 -90.5t-97.5 -32.5q-61 0 -89 32.5t-17 90.5h40q-16 -83 71 -83q83 0 99 83zM487 457l61 59l27 -26l-61 -61q43 -59 43 -127q0 -84 -54 -161t-146 -98q56 -13 93 -48.5t37 -87.5q0 -96 -82.5 -150t-203.5 -54q-103 0 -164 53t-45 144h48
q-6 -40 5 -69.5t36.5 -47t57.5 -25.5t71 -8q91 0 158.5 38t67.5 113q0 58 -53.5 88.5t-125.5 30.5q-100 0 -158.5 52.5t-58.5 145.5q0 68 28 123.5t72.5 89.5t96.5 52.5t104 18.5q91 0 146 -45zM334 456q-42 0 -83.5 -14t-78 -41t-59.5 -73t-23 -103q0 -79 45 -119t124 -40
q103 0 176.5 69t73.5 160q0 79 -50.5 120t-124.5 41z"/>
            <glyph glyph-name="gdotaccent.alt" horiz-adv-x="606"
                   d="M331 646q0 21 14.5 33.5t32.5 12.5q14 0 23.5 -8.5t9.5 -23.5q0 -21 -14.5 -33.5t-31.5 -12.5q-34 0 -34 32zM487 457l61 59l27 -26l-61 -61q43 -59 43 -127q0 -84 -54 -161t-146 -98q56 -13 93 -48.5t37 -87.5q0 -96 -82.5 -150t-203.5 -54q-103 0 -164 53t-45 144h48
q-6 -40 5 -69.5t36.5 -47t57.5 -25.5t71 -8q91 0 158.5 38t67.5 113q0 58 -53.5 88.5t-125.5 30.5q-100 0 -158.5 52.5t-58.5 145.5q0 68 28 123.5t72.5 89.5t96.5 52.5t104 18.5q91 0 146 -45zM334 456q-42 0 -83.5 -14t-78 -41t-59.5 -73t-23 -103q0 -79 45 -119t124 -40
q103 0 176.5 69t73.5 160q0 79 -50.5 120t-124.5 41z"/>
            <glyph glyph-name="gcommaaccent.alt" horiz-adv-x="606"
                   d="M401 628q0 -21 -14.5 -33t-33.5 -12q-14 0 -23 8.5t-9 23.5q0 18 58 114h43l-39 -71q18 -7 18 -30zM487 457l61 59l27 -26l-61 -61q43 -59 43 -127q0 -84 -54 -161t-146 -98q56 -13 93 -48.5t37 -87.5q0 -96 -82.5 -150t-203.5 -54q-103 0 -164 53t-45 144h48
q-6 -40 5 -69.5t36.5 -47t57.5 -25.5t71 -8q91 0 158.5 38t67.5 113q0 58 -53.5 88.5t-125.5 30.5q-100 0 -158.5 52.5t-58.5 145.5q0 68 28 123.5t72.5 89.5t96.5 52.5t104 18.5q91 0 146 -45zM334 456q-42 0 -83.5 -14t-78 -41t-59.5 -73t-23 -103q0 -79 45 -119t124 -40
q103 0 176.5 69t73.5 160q0 79 -50.5 120t-124.5 41z"/>
            <glyph glyph-name="commaaccent.alt" horiz-adv-x="462"
                   d="M374 682q0 -20 -15 -32.5t-33 -12.5q-33 0 -33 32q0 12 7 24l58 102h43l-45 -83q18 -7 18 -30z"/>
            <glyph glyph-name="zero.tf" horiz-adv-x="685"
                   d="M152 434l-30 -167q-20 -108 28.5 -165.5t142.5 -57.5q93 0 166 58t93 165l30 167q21 107 -26 167t-141 60q-96 0 -169 -59t-94 -168zM69 267l30 167q24 133 115 204t210 71q107 0 171.5 -73.5t40.5 -201.5l-29 -167q-25 -131 -114 -203t-206 -72q-52 0 -96 17.5
t-76.5 50.5t-45.5 86.5t0 120.5z"/>
            <glyph glyph-name="one.tf" horiz-adv-x="685"
                   d="M77 0l8 45h194l112 597l-185 -51l8 51l239 65l-123 -662h212l-8 -45h-457z"/>
            <glyph glyph-name="two.tf" horiz-adv-x="685"
                   d="M169 519h-50q9 53 39 92t73 59.5t88.5 29.5t96.5 9q68 0 123 -20t89.5 -66t26.5 -112q-8 -69 -57.5 -118t-113 -69t-132.5 -20q-35 0 -63.5 -3t-61.5 -12.5t-56 -24.5t-41.5 -42t-24.5 -63l-21 -109h484l-9 -50h-535l28 158q10 56 40.5 95.5t75 60.5t91 30t99.5 9
q37 0 74.5 7.5t74.5 24t64 47.5t34 73q8 44 -7.5 76t-47.5 49t-67.5 24.5t-74.5 7.5t-74.5 -6.5t-71.5 -21t-61 -44.5t-32 -71z"/>
            <glyph glyph-name="three.tf" horiz-adv-x="685"
                   d="M173 529h-51q9 52 39 89t73.5 56t87.5 27t92 8q44 0 84.5 -10t75 -30.5t53 -56.5t13.5 -83q-6 -61 -58.5 -111t-119.5 -62q55 -11 93.5 -53.5t38.5 -93.5q0 -95 -81 -156.5t-223 -61.5q-39 0 -74 4.5t-70.5 17.5t-58.5 33.5t-34.5 54t-3.5 77.5h49q-6 -36 5 -62.5
t30.5 -40.5t51.5 -22t57.5 -10t57.5 -2q116 0 180 47.5t64 114.5q0 55 -50 94.5t-143 39.5h-116l8 45h113q98 0 161 43t74 99q11 58 -37 99t-147 41q-210 0 -234 -135z"/>
            <glyph glyph-name="four.tf" horiz-adv-x="685"
                   d="M549 700h56l-87 -491h94l-8 -48h-94l-29 -161h-52l29 161h-431l-3 45zM466 209l76 419l-446 -419h370z"/>
            <glyph glyph-name="five.tf" horiz-adv-x="685"
                   d="M384 380h-275l57 320h475l-9 -48h-425l-39 -224h225q209 0 217 -177q5 -105 -80 -180.5t-234 -75.5q-52 0 -95 9.5t-80 30.5t-54 61.5t-7 96.5h51q-8 -43 7 -73.5t47.5 -45t66 -20t73.5 -5.5q122 0 187 53.5t65 138.5q0 139 -173 139z"/>
            <glyph glyph-name="six.tf" horiz-adv-x="685"
                   d="M176 516l-37 -191q88 99 244 99q99 0 167.5 -46t67.5 -137q-1 -65 -30.5 -115t-77 -78t-101.5 -42t-112 -14q-52 0 -97 12.5t-80.5 37t-51 68t-4.5 100.5l59 306q12 63 60.5 108.5t111.5 65.5t132 20q111 0 177 -46t56 -131h-54q7 61 -46 95t-142 34q-55 0 -105.5 -15.5
t-89 -50t-47.5 -80.5zM307 43q45 0 87 9.5t81 29.5t63 58.5t25 89.5q1 69 -56 107t-134 38q-53 0 -105.5 -16.5t-95.5 -56t-54 -93.5q-9 -45 4.5 -78.5t43.5 -52t65.5 -27t75.5 -8.5z"/>
            <glyph glyph-name="seven.tf" horiz-adv-x="685"
                   d="M114 0l492 651h-452l7 49h510v-44l-496 -656h-61z"/>
            <glyph glyph-name="eight.tf" horiz-adv-x="685"
                   d="M350 340q-38 0 -80.5 -9t-85.5 -27.5t-71 -54.5t-28 -83q0 -70 62 -102t150 -32q38 0 77.5 7.5t80 24t69 48t34.5 72.5q9 52 -26 89t-83.5 52t-98.5 15zM288 -15q-65 0 -120 15t-96 55.5t-41 101.5q0 78 59 134.5t137 72.5q-124 40 -124 136q0 58 30 102t78.5 67.5
t100 34.5t105.5 11q61 0 113 -14.5t91.5 -53.5t39.5 -98q0 -78 -51 -122.5t-136 -69.5q57 -12 98.5 -53t41.5 -99q0 -59 -30.5 -104t-80.5 -69t-104 -35.5t-111 -11.5zM408 669q-38 0 -78.5 -8t-82 -25t-67.5 -50.5t-26 -78.5q0 -33 20.5 -58t53 -38t65.5 -19t65 -6
q38 0 78 7.5t81 24t67.5 48.5t26.5 75q0 37 -20 63.5t-52.5 39.5t-64.5 19t-66 6z"/>
            <glyph glyph-name="nine.tf" horiz-adv-x="685"
                   d="M536 200l33 177q-87 -99 -246 -99q-100 0 -169.5 46t-69.5 137q0 65 28.5 115t75.5 78t100.5 42t111.5 14q52 0 97.5 -12.5t81.5 -37t52.5 -68t6.5 -100.5l-52 -292q-18 -106 -102 -157t-200 -51q-110 0 -177.5 46t-58.5 131h53q-6 -64 47 -96.5t144 -32.5q86 0 158 42.5
t86 117.5zM391 662q-44 0 -86.5 -10t-81.5 -31.5t-62.5 -61t-23.5 -91.5q0 -73 55.5 -107.5t139.5 -34.5q85 0 161 43.5t91 123.5q16 88 -40 128.5t-153 40.5z"/>
            <glyph glyph-name="Euro.tf" horiz-adv-x="685"
                   d="M560 62l6 -48q-68 -22 -128 -22q-290 0 -292 280h-81l8 46h75q0 4 4 28q5 23 7 31h-75l8 46h81q39 127 141 206t250 79q46 0 96 -15l-18 -43q-42 12 -86 12q-249 0 -329 -239h273l-21 -46h-267q-2 -5 -7 -29q-4 -28 -4 -30h253l-18 -46h-236q-3 -112 58.5 -171t187.5 -59
q57 0 114 20z"/>
            <glyph glyph-name="cent.tf" horiz-adv-x="685"
                   d="M348 -14l-13 -71h-48l13 71q-86 8 -139 62t-53 145q0 123 81 203.5t199 91.5l11 60h48l-11 -60q90 -10 143 -73l-39 -31q-51 60 -136 60q-102 0 -174.5 -66t-72.5 -179q0 -81 48.5 -124.5t126.5 -43.5q82 0 156 62l28 -35q-76 -64 -168 -72z"/>
            <glyph glyph-name="sterling.tf" horiz-adv-x="685"
                   d="M83 308l8 43h80q-6 78 -6 98q0 66 23 117t63 80.5t89 44.5t105 15q47 0 83.5 -9t66 -29t41.5 -56.5t4 -86.5h-44q6 40 -5 68.5t-36.5 42.5t-54 20t-63.5 6q-98 0 -160 -52t-62 -154q0 -19 2.5 -56.5t2.5 -48.5h259l-8 -43h-250q0 -77 -25 -139t-99 -121h465l-8 -48h-525
l8 45q86 75 113 134.5t24 128.5h-91z"/>
            <glyph glyph-name="florin.tf" horiz-adv-x="685"
                   d="M248 -1l79 448h-143l7 43h143l9 55q14 85 56 127.5t122 42.5q52 0 92 -35l-28 -34q-29 25 -74 25q-49 0 -79 -28.5t-41 -97.5l-9 -55h181l-7 -43h-181l-79 -448q-14 -82 -51.5 -126t-113.5 -44q-48 0 -88 35l29 34q26 -25 69 -25q46 0 71 30t36 96z"/>
            <glyph glyph-name="yen.tf" horiz-adv-x="685"
                   d="M137 167l7 41h154l12 63h-154l7 41h133l-184 387v1h56l176 -376l308 376h61v-1l-322 -387h139l-7 -41h-160l-12 -63h160l-7 -41h-160l-29 -167h-53l29 167h-154z"/>
            <glyph glyph-name="dollar.tf" horiz-adv-x="685"
                   d="M414 805h45l-17 -100q72 -4 129 -33.5t77 -84.5l-41 -22q-17 49 -73.5 71.5t-122.5 23.5q-37 0 -75.5 -8t-77.5 -24.5t-64 -49.5t-25 -76q0 -20 6 -35.5t22 -27.5t28.5 -19.5t41.5 -15t44.5 -11t52.5 -10.5q66 -13 99 -22.5t76.5 -31.5t58.5 -59t5 -91q-11 -62 -60 -104
t-106 -58.5t-121 -19.5l-17 -97h-44l17 97q-84 3 -150.5 37.5t-88.5 100.5l46 23q20 -59 84 -86.5t139 -27.5q35 0 73.5 7.5t77 23t66.5 44.5t35 67q6 30 -4.5 54t-26.5 38t-51 26.5t-57.5 17.5t-67.5 14q-43 9 -69 15.5t-60.5 19.5t-53 28.5t-32.5 41t-14 58.5q0 52 26 92
t68.5 63.5t89 36t95.5 14.5z"/>
            <glyph glyph-name="zero.denom" horiz-adv-x="375"
                   d="M72 203l-9 -52q-9 -53 13.5 -82.5t64.5 -29.5q40 0 74.5 29t43.5 83l9 52q20 115 -74 115q-41 0 -76.5 -30t-45.5 -85zM17 151l9 52q13 76 64 117t111 41t94 -41.5t21 -116.5l-9 -52q-13 -76 -61 -116.5t-112 -40.5q-60 0 -95 41t-22 116z"/>
            <glyph glyph-name="one.denom" horiz-adv-x="237"
                   d="M-15 0l7 41h63l46 260l-57 -14l7 44l107 23l-55 -313h65l-7 -41h-176z"/>
            <glyph glyph-name="two.denom" horiz-adv-x="355"
                   d="M84 255h-46q19 106 154 106q116 0 116 -87q0 -40 -16 -67.5t-42 -39t-48 -16t-47 -4.5q-33 0 -64 -15t-38 -53l-5 -30h219l-9 -49h-267q3 17 7 41t7 39q9 52 54.5 80.5t102.5 28.5q98 0 98 78q0 52 -77 52q-41 0 -66.5 -13t-32.5 -51z"/>
            <glyph glyph-name="three.denom" horiz-adv-x="356"
                   d="M155 165h-55l8 43h51q37 0 66.5 15t29.5 47q0 21 -19.5 36t-56.5 15q-32 0 -62.5 -15t-36.5 -50h-43q9 53 51.5 79t97.5 26q50 0 83 -21.5t33 -62.5q0 -35 -20.5 -59t-52.5 -32q25 -7 38.5 -27t13.5 -42q0 -63 -46 -91.5t-114 -28.5q-58 0 -91.5 25.5t-24.5 81.5h48
q-5 -27 10 -41.5t30.5 -17.5t36.5 -3q103 0 103 70q0 20 -19 36.5t-59 16.5z"/>
            <glyph glyph-name="four.denom" horiz-adv-x="343"
                   d="M211 356h65l-41 -233h42l-8 -44h-42l-14 -78h-45l14 78h-192l4 37zM51 123h139l33 189z"/>
            <glyph glyph-name="five.denom" horiz-adv-x="356"
                   d="M157 180h-126l31 176h249l-8 -43h-204l-16 -91h81q63 0 94 -26t31 -70q0 -57 -42.5 -94t-121.5 -37q-57 0 -92 23.5t-26 78.5h44q-10 -59 82 -59q108 0 108 81q0 25 -19 43t-65 18z"/>
            <glyph glyph-name="six.denom" horiz-adv-x="371"
                   d="M148 35q42 0 74 19t32 61q0 30 -24.5 45.5t-56.5 15.5q-37 0 -69 -18t-39 -52q-6 -37 19.5 -54t63.5 -17zM89 248l-11 -67q39 35 102 35q52 0 87 -22t35 -70q0 -65 -48.5 -97t-112.5 -32q-59 0 -96 27.5t-27 83.5l25 142q10 57 54.5 85.5t101.5 28.5t91 -23t30 -68h-45
q2 23 -19 35.5t-64 12.5q-90 0 -103 -71z"/>
            <glyph glyph-name="seven.denom" horiz-adv-x="307"
                   d="M30 313l8 43h259v-22l-241 -334h-55l228 313h-199z"/>
            <glyph glyph-name="eight.denom" horiz-adv-x="376"
                   d="M165 163q-42 0 -75.5 -19t-33.5 -56q0 -28 27.5 -41t58.5 -13q33 0 67 15t41 46q6 34 -20.5 51t-64.5 17zM134 -8q-53 0 -91.5 20.5t-38.5 67.5q0 41 28 68.5t68 35.5q-59 19 -59 70q0 56 49.5 83t109.5 27q50 0 87.5 -20t37.5 -63q0 -72 -88 -98q28 -6 46 -26.5
t18 -49.5q0 -42 -27.5 -69t-63 -36.5t-76.5 -9.5zM193 325q-37 0 -69.5 -15.5t-32.5 -50.5q0 -27 23.5 -39.5t57.5 -12.5q42 0 73 16.5t31 50.5q0 27 -26 39t-57 12z"/>
            <glyph glyph-name="nine.denom" horiz-adv-x="370"
                   d="M183 321q-42 0 -74.5 -19t-32.5 -61q0 -31 24.5 -46t57.5 -15q37 0 69 18t38 52q7 37 -18.5 54t-63.5 17zM241 108l12 67q-39 -35 -102 -35q-53 0 -88 21.5t-35 70.5q0 65 49 97t113 32q59 0 95.5 -27.5t26.5 -83.5l-25 -142q-10 -57 -54.5 -85.5t-101.5 -28.5t-91 23
t-30 68h45q-2 -23 19.5 -35.5t64.5 -12.5q90 0 102 71z"/>
            <glyph glyph-name="zero.num" horiz-adv-x="375"
                   d="M133 551l-9 -52q-9 -53 13.5 -82.5t64.5 -29.5q40 0 74.5 29t43.5 83l9 52q20 115 -74 115q-41 0 -76.5 -30t-45.5 -85zM78 499l9 52q13 76 64 117t111 41t94 -41.5t21 -116.5l-9 -52q-13 -76 -61 -116.5t-112 -40.5q-60 0 -95 41t-22 116z"/>
            <glyph glyph-name="one.num" horiz-adv-x="239"
                   d="M48 355l7 41h63l46 260l-57 -14l7 44l107 23l-55 -313h65l-7 -41h-176z"/>
            <glyph glyph-name="two.num" horiz-adv-x="356"
                   d="M146 603h-46q19 106 154 106q116 0 116 -87q0 -40 -16 -67.5t-42 -39t-48 -16t-47 -4.5q-33 0 -64 -15t-38 -53l-5 -30h219l-9 -49h-267q3 17 7 41t7 39q9 52 54.5 80.5t102.5 28.5q98 0 98 78q0 52 -77 52q-41 0 -66.5 -13t-32.5 -51z"/>
            <glyph glyph-name="three.num" horiz-adv-x="355"
                   d="M216 512h-55l8 43h51q37 0 66.5 15t29.5 47q0 21 -19.5 36t-56.5 15q-32 0 -62.5 -15t-36.5 -50h-43q9 53 51.5 79t97.5 26q50 0 83 -21.5t33 -62.5q0 -35 -20.5 -59t-52.5 -32q25 -7 38.5 -27t13.5 -42q0 -63 -46 -91.5t-114 -28.5q-58 0 -91.5 25.5t-24.5 81.5h48
q-5 -27 10 -41.5t30.5 -17.5t36.5 -3q103 0 103 70q0 20 -19 36.5t-59 16.5z"/>
            <glyph glyph-name="four.num" horiz-adv-x="343"
                   d="M272 702h65l-41 -233h42l-8 -44h-42l-14 -78h-45l14 78h-192l4 37zM112 469h139l33 189z"/>
            <glyph glyph-name="five.num" horiz-adv-x="355"
                   d="M217 525h-126l31 176h249l-8 -43h-204l-16 -91h81q63 0 94 -26t31 -70q0 -57 -42.5 -94t-121.5 -37q-57 0 -92 23.5t-26 78.5h44q-10 -59 82 -59q108 0 108 81q0 25 -19 43t-65 18z"/>
            <glyph glyph-name="six.num" horiz-adv-x="370"
                   d="M207 382q42 0 74.5 19t32.5 61q0 31 -24.5 46t-57.5 15q-36 0 -68 -18t-39 -52q-7 -37 18.5 -54t63.5 -17zM149 595l-12 -67q41 35 102 35q53 0 88 -21.5t35 -70.5q0 -65 -49 -97t-113 -32q-59 0 -95.5 27.5t-26.5 83.5l25 142q10 57 54.5 85.5t101.5 28.5t91 -23t30 -68
h-45q2 23 -19.5 35.5t-64.5 12.5q-89 0 -102 -71z"/>
            <glyph glyph-name="seven.num" horiz-adv-x="309"
                   d="M92 659l8 43h259v-22l-241 -334h-55l228 313h-199z"/>
            <glyph glyph-name="eight.num" horiz-adv-x="377"
                   d="M226 508q-42 0 -75.5 -19t-33.5 -56q0 -28 27.5 -41t58.5 -13q33 0 67 15t41 46q6 34 -20.5 51t-64.5 17zM195 337q-53 0 -91.5 20.5t-38.5 67.5q0 41 28 68.5t68 35.5q-59 19 -59 70q0 56 49.5 83t109.5 27q50 0 87.5 -20t37.5 -63q0 -72 -88 -98q28 -6 46 -26.5
t18 -49.5q0 -42 -27.5 -69t-63 -36.5t-76.5 -9.5zM254 670q-37 0 -69.5 -15.5t-32.5 -50.5q0 -27 23.5 -39.5t57.5 -12.5q42 0 73 16.5t31 50.5q0 27 -26 39t-57 12z"/>
            <glyph glyph-name="nine.num" horiz-adv-x="372"
                   d="M245 670q-42 0 -74.5 -19t-32.5 -61q0 -31 24.5 -46t57.5 -15q37 0 69 18t38 52q7 37 -18.5 54t-63.5 17zM303 457l12 67q-39 -35 -102 -35q-53 0 -88 21.5t-35 70.5q0 65 49 97t113 32q59 0 95.5 -27.5t26.5 -83.5l-25 -142q-10 -57 -54.5 -85.5t-101.5 -28.5t-91 23
t-30 68h45q-2 -23 19.5 -35.5t64.5 -12.5q90 0 102 71z"/>
            <glyph glyph-name="parenleft.case" horiz-adv-x="332"
                   d="M359 801l25 -37q-104 -64 -173.5 -173.5t-91.5 -224t8.5 -227t114.5 -182.5l-33 -39q-76 55 -116 145.5t-37.5 193.5t34.5 205.5t103 193t166 145.5z"/>
            <glyph glyph-name="parenright.case" horiz-adv-x="331"
                   d="M114 765l31 38q76 -55 116 -145.5t37.5 -194t-35 -206.5t-103 -193.5t-165.5 -145.5l-23 40q109 70 178.5 182.5t88.5 227t-12.5 224t-112.5 173.5z"/>
            <glyph glyph-name="hyphen.case" horiz-adv-x="505"
                   d="M79 312l9 52h350l-9 -52h-350z"/>
            <glyph glyph-name="bracketleft.case" horiz-adv-x="318"
                   d="M28 -93l156 882h181l-9 -48h-129l-139 -786h129l-8 -48h-181z"/>
            <glyph glyph-name="bracketright.case" horiz-adv-x="319"
                   d="M309 788l-156 -882h-181l8 48h129l139 787h-129l9 47h181z"/>
            <glyph glyph-name="braceleft.case" horiz-adv-x="313"
                   d="M215 -20l-7 -38q-93 -13 -118.5 17.5t-9.5 118.5l26 147q21 118 -58 118l7 39q79 0 100 118l23 135q15 87 55 120t122 17l-6 -34q-63 10 -89 -12t-38 -91l-23 -135q-4 -25 -9 -42.5t-15 -38.5t-28 -35.5t-44 -20.5q23 -6 36 -20t15.5 -36.5t1 -39t-5.5 -42.5l-26 -147
q-12 -68 6.5 -88.5t84.5 -9.5z"/>
            <glyph glyph-name="bar.case" horiz-adv-x="249"
                   d="M233 759l-146 -828h-53l146 828h53z"/>
            <glyph glyph-name="braceright.case" horiz-adv-x="313"
                   d="M-20 -57l7 38q62 -11 87.5 9.5t37.5 88.5l26 147q4 25 9 42.5t15 39t28 36t44 20.5q-23 6 -36.5 20t-16 36t-1 38.5t5.5 42.5l24 135q12 69 -6 91t-84 12l6 34q88 16 116 -17t12 -120l-24 -135q-21 -118 59 -118l-7 -39q-79 0 -100 -118l-26 -147q-16 -88 -52 -118.5
t-124 -17.5z"/>
            <glyph glyph-name="guilsinglleft.case" horiz-adv-x="328"
                   d="M73 347l177 219h52l-1 -5l-173 -214l97 -214l-1 -6h-52z"/>
            <glyph glyph-name="guilsinglright.case" horiz-adv-x="327"
                   d="M272 341l-177 -220h-52l1 6l173 214l-97 214v5h52z"/>
            <glyph glyph-name="guillemotleft.case" horiz-adv-x="406"
                   d="M57 327l176 219h52l-1 -5l-172 -214l97 -214l-1 -6h-52zM262 107l-99 220l176 219h52l-1 -5l-172 -214l97 -214l-1 -6h-52z"/>
            <glyph glyph-name="guillemotright.case" horiz-adv-x="433"
                   d="M378 336l-177 -220h-52l1 6l173 214l-97 214v5h52zM271 336l-177 -220h-52l1 6l173 214l-97 214v5h52z"/>
            <glyph glyph-name="endash.case" horiz-adv-x="592"
                   d="M74 313l9 51h446l-9 -51h-446z"/>
            <glyph glyph-name="emdash.case" horiz-adv-x="700"
                   d="M75 315l9 51h553l-9 -51h-553z"/>
            <glyph glyph-name="bullet.case" horiz-adv-x="377"
                   d="M180 249q-37 0 -60 22t-23 58q0 49 34.5 80.5t82.5 31.5q36 0 58.5 -22t22.5 -58q0 -48 -34 -80t-81 -32z"/>
            <glyph glyph-name="periodcentered.case" horiz-adv-x="236"
                   d="M84 332q0 21 14.5 33.5t33.5 12.5q14 0 23.5 -8.5t9.5 -23.5q0 -21 -14.5 -33.5t-32.5 -12.5q-14 0 -24 8.5t-10 23.5z"/>
            <glyph glyph-name="a.alt" horiz-adv-x="553"
                   d="M288 500q100 0 155 -46.5t39 -140.5l-55 -313h-44l17 102q-78 -112 -213 -112q-74 0 -124.5 34t-50.5 101q0 89 67 135.5t162 46.5q96 0 183 -46l9 52q14 80 -28.5 111t-125.5 31q-79 0 -172 -41l-3 45q105 41 184 41zM414 218q-76 43 -182 45q-70 0 -120 -32t-50 -97
q0 -51 38.5 -74.5t94.5 -23.5q80 0 140.5 51t78.5 131z"/>
            <glyph glyph-name="agrave.alt" horiz-adv-x="553"
                   d="M288 500q100 0 155 -46.5t39 -140.5l-55 -313h-44l17 102q-78 -112 -213 -112q-74 0 -124.5 34t-50.5 101q0 89 67 135.5t162 46.5q96 0 183 -46l9 52q14 80 -28.5 111t-125.5 31q-79 0 -172 -41l-3 45q105 41 184 41zM414 218q-76 43 -182 45q-70 0 -120 -32t-50 -97
q0 -51 38.5 -74.5t94.5 -23.5q80 0 140.5 51t78.5 131zM357 584h-45l-65 115v1h61l50 -112z"/>
            <glyph glyph-name="aacute.alt" horiz-adv-x="553"
                   d="M324 584h-45l1 4l90 112h61v-1zM288 500q-79 0 -184 -41l3 -45q93 41 172 41q83 0 125.5 -31t28.5 -111l-9 -52q-87 46 -183 46q-95 0 -162 -46.5t-67 -135.5q0 -67 50.5 -101t124.5 -34q135 0 213 112l-17 -102h44l55 313q16 94 -39 140.5t-155 46.5zM414 218
q-18 -80 -78.5 -131t-140.5 -51q-56 0 -94.5 23.5t-38.5 74.5q0 65 50 97t120 32q106 -2 182 -45z"/>
            <glyph glyph-name="acircumflex.alt" horiz-adv-x="553"
                   d="M157 573l158 127h39l115 -127l-1 -7h-48l-89 97l-125 -97h-50zM288 500q-79 0 -184 -41l3 -45q93 41 172 41q83 0 125.5 -31t28.5 -111l-9 -52q-87 46 -183 46q-95 0 -162 -46.5t-67 -135.5q0 -67 50.5 -101t124.5 -34q135 0 213 112l-17 -102h44l55 313q16 94 -39 140.5
t-155 46.5zM414 218q-18 -80 -78.5 -131t-140.5 -51q-56 0 -94.5 23.5t-38.5 74.5q0 65 50 97t120 32q106 -2 182 -45z"/>
            <glyph glyph-name="atilde.alt" horiz-adv-x="553"
                   d="M288 500q102 0 156.5 -45.5t37.5 -141.5l-55 -313h-44l17 102q-84 -112 -213 -112q-74 0 -124.5 34t-50.5 101q0 89 69 136t160 46q96 0 183 -46l9 52q13 76 -30 108.5t-124 32.5q-82 0 -172 -40l-3 45q105 41 184 41zM414 215q-78 44 -182 46q-68 0 -119 -31t-51 -96
q0 -50 40.5 -74t92.5 -24q80 0 140.5 49.5t78.5 129.5zM238 627l-32 11q13 43 53.5 58t72.5 -6l38 -22q15 -10 34.5 -3.5t29.5 30.5l32 -11q-12 -45 -50 -60.5t-70 5.5l-38 22q-15 11 -37.5 5t-32.5 -29z"/>
            <glyph glyph-name="adieresis.alt" horiz-adv-x="553"
                   d="M205 652q0 20 14 31.5t32 11.5q31 0 31 -30q0 -20 -13.5 -32t-29.5 -12q-34 0 -34 31zM394 652q0 20 14 31.5t32 11.5q31 0 31 -30q0 -20 -13.5 -32t-29.5 -12q-34 0 -34 31zM288 500q-79 0 -184 -41l3 -45q93 41 172 41q83 0 125.5 -31t28.5 -111l-9 -52q-87 46 -183 46
q-95 0 -162 -46.5t-67 -135.5q0 -67 50.5 -101t124.5 -34q135 0 213 112l-17 -102h44l55 313q16 94 -39 140.5t-155 46.5zM414 218q-18 -80 -78.5 -131t-140.5 -51q-56 0 -94.5 23.5t-38.5 74.5q0 65 50 97t120 32q106 -2 182 -45z"/>
            <glyph glyph-name="amacron.alt" horiz-adv-x="553"
                   d="M189 633l7 42h265l-7 -42h-265zM288 500q100 0 155 -46.5t39 -140.5l-55 -313h-44l17 102q-78 -112 -213 -112q-74 0 -124.5 34t-50.5 101q0 89 67 135.5t162 46.5q96 0 183 -46l9 52q14 80 -28.5 111t-125.5 31q-79 0 -172 -41l-3 45q105 41 184 41zM414 218
q-76 43 -182 45q-70 0 -120 -32t-50 -97q0 -51 38.5 -74.5t94.5 -23.5q80 0 140.5 51t78.5 131z"/>
            <glyph glyph-name="abreve.alt" horiz-adv-x="553"
                   d="M432 700h42q-10 -57 -48 -87.5t-93 -30.5q-58 0 -89 31t-22 87h40q-5 -33 11 -57t61 -24q43 0 68 24.5t30 56.5zM288 500q100 0 155 -46.5t39 -140.5l-55 -313h-44l17 102q-78 -112 -213 -112q-74 0 -124.5 34t-50.5 101q0 89 67 135.5t162 46.5q96 0 183 -46l9 52
q14 80 -28.5 111t-125.5 31q-79 0 -172 -41l-3 45q105 41 184 41zM414 218q-76 43 -182 45q-70 0 -120 -32t-50 -97q0 -51 38.5 -74.5t94.5 -23.5q80 0 140.5 51t78.5 131z"/>
            <glyph glyph-name="aring.alt" horiz-adv-x="553"
                   d="M239 630q0 46 35 73t81 27q36 0 60.5 -18.5t24.5 -52.5q0 -46 -32 -73t-82 -27q-40 0 -63.5 19t-23.5 52zM349 696q-31 0 -49.5 -16.5t-20.5 -39.5q-2 -19 11 -31.5t37 -12.5q32 0 52 17t20 41q0 42 -50 42zM288 500q100 0 155 -46.5t39 -140.5l-55 -313h-44l17 102
q-78 -112 -213 -112q-74 0 -124.5 34t-50.5 101q0 89 67 135.5t162 46.5q96 0 183 -46l9 52q14 80 -28.5 111t-125.5 31q-79 0 -172 -41l-3 45q105 41 184 41zM414 218q-76 43 -182 45q-70 0 -120 -32t-50 -97q0 -51 38.5 -74.5t94.5 -23.5q80 0 140.5 51t78.5 131z"/>
            <glyph glyph-name="aringacute.alt" horiz-adv-x="553"
                   d="M231 612q0 -32 21 -50t58 -18q46 0 78.5 25.5t32.5 66.5q0 31 -24 49t-58 18q-43 0 -75.5 -24t-32.5 -67zM333 672q41 0 46 -32q5 -31 -23 -50q-18 -12 -40 -12q-39 0 -44 32q-5 31 23 51q17 11 38 11zM366 732h-45l1 3l86 89h60v-1zM288 500q-79 0 -184 -41l3 -45
q93 41 172 41q83 0 125.5 -31t28.5 -111l-9 -52q-87 46 -183 46q-95 0 -162 -46.5t-67 -135.5q0 -67 50.5 -101t124.5 -34q135 0 213 112l-17 -102h44l55 313q16 94 -39 140.5t-155 46.5zM414 218q-18 -80 -78.5 -131t-140.5 -51q-56 0 -94.5 23.5t-38.5 74.5q0 65 50 97
t120 32q106 -2 182 -45z"/>
            <glyph glyph-name="aogonek.alt" horiz-adv-x="554"
                   d="M414 215q-78 44 -182 46q-68 0 -119 -31t-51 -96q0 -51 38.5 -74.5t94.5 -23.5q80 0 140.5 49.5t78.5 129.5zM288 500q102 0 156.5 -45.5t37.5 -141.5l-61 -348q-78 8 -110 -35q-22 -30 -2 -54q15 -18 50 -17q24 1 50 14t44 36l29 -18q-21 -32 -56 -50t-71 -20
q-75 -3 -92 46q-16 42 22 85q35 39 96 47l19 103q-84 -112 -213 -112q-74 0 -124.5 34t-50.5 101q0 89 69 136t160 46q96 0 183 -46l9 52q14 82 -28.5 111.5t-125.5 29.5q-82 0 -172 -40l-3 45q105 41 184 41z"/>
            <glyph glyph-name="y.alt" horiz-adv-x="530"
                   d="M480 494h53l-443 -733h-52l147 245l-112 488h53l64 -292l33 -143l82 144z"/>
            <glyph glyph-name="yacute.alt" horiz-adv-x="530"
                   d="M312 584h-38l1 4l90 113h58v-1zM533 494h-53l-175 -291l-82 -144l-33 143l-64 292h-53l112 -488l-147 -245h52z"/>
            <glyph glyph-name="ycircumflex.alt" horiz-adv-x="530"
                   d="M171 577l153 124h38l112 -124l-1 -6h-50l-87 93l-117 -93h-49zM533 494h-53l-175 -291l-82 -144l-33 143l-64 292h-53l112 -488l-147 -245h52z"/>
            <glyph glyph-name="ydieresis.alt" horiz-adv-x="530"
                   d="M202 658q0 20 12.5 30.5t29.5 10.5q13 0 21.5 -7.5t8.5 -21.5q0 -20 -12.5 -30.5t-30.5 -10.5q-13 0 -21 7.5t-8 21.5zM533 494h-53l-175 -291l-82 -144l-33 143l-64 292h-53l112 -488l-147 -245h52zM395 658q0 20 12.5 30.5t29.5 10.5q13 0 21.5 -7.5t8.5 -21.5
q0 -20 -12.5 -30.5t-30.5 -10.5q-13 0 -21 7.5t-8 21.5z"/>
            <glyph glyph-name="ygrave.alt" horiz-adv-x="530"
                   d="M359 584h-41l-61 116v1h55l48 -113zM480 494h53l-443 -733h-52l147 245l-112 488h53l64 -292l33 -143l82 144z"/>
            </font>
</defs>
</svg>
